SplineFontDB: 3.0
FontName: Latte-BoldItalic
FullName: Latte Bold Italic
FamilyName: Latte
Weight: Bold
Copyright: Copyright (c) 2016 by Guillaume Litaudon (www.guillaumelitaudon.fr) with Reserved Font Name "Latte".\nThis Font Software is licensed under the SIL Open Font License, Version 1.1.\n\nLatte is a variation of Carlito.\nCarlito is Copyright (c) 2010-2013 by tyPoland Lukasz Dziedzic with Reserved Font Name "Carlito". Licensed under the SIL Open Font License, Version 1.1.

StartChar: .notdef
Encoding: 2513 -1 0
Width: 1038
GlyphClass: 2
Flags: MW
LayerCount: 2
Fore
SplineSet
241 1101 m 1,0,1
 359 1204 359 1204 507 1204 c 0,2,3
 629 1204 629 1204 704 1139 c 128,-1,4
 779 1074 779 1074 779 965 c 0,5,6
 779 837 779 837 681 758 c 0,7,8
 656 736 656 736 632 718 c 0,9,10
 578 675 578 675 571 642 c 2,11,-1
 554 542 l 1,12,-1
 435 542 l 1,13,-1
 422 655 l 2,14,15
 421 660 421 660 421 665 c 0,16,17
 421 730 421 730 514 797 c 0,18,19
 616 870 616 870 616 955 c 0,20,21
 616 1003 616 1003 581.5 1031.5 c 128,-1,22
 547 1060 547 1060 500.5 1060 c 128,-1,23
 454 1060 454 1060 427 1051.5 c 128,-1,24
 400 1043 400 1043 380.5 1032.5 c 128,-1,25
 361 1022 361 1022 348 1013.5 c 128,-1,26
 335 1005 335 1005 317 1005 c 128,-1,27
 299 1005 299 1005 287 1026 c 2,28,-1
 241 1101 l 1,0,1
390 240.5 m 128,-1,30
 382 260 382 260 382 282.5 c 128,-1,31
 382 305 382 305 390 325 c 0,32,33
 398 346 398 346 412 360 c 0,34,35
 444 392 444 392 476 392 c 0,36,37
 478 392 l 0,38,39
 512 392 512 392 531 383 c 128,-1,40
 550 374 550 374 564 360 c 0,41,42
 595 328 595 328 595 294 c 128,-1,43
 595 260 595 260 586.5 240.5 c 128,-1,44
 578 221 578 221 564 207 c 0,45,46
 533 176 533 176 499.5 176 c 128,-1,47
 466 176 466 176 446.5 184.5 c 128,-1,48
 427 193 427 193 412.5 207 c 128,-1,29
 398 221 398 221 390 240.5 c 128,-1,30
43 1383 m 1,49,-1
 985 1383 l 1,50,-1
 985 0 l 1,51,-1
 43 0 l 1,52,-1
 43 1383 l 1,49,-1
93 53 m 1,53,-1
 930 53 l 1,54,-1
 930 1330 l 1,55,-1
 93 1330 l 1,56,-1
 93 53 l 1,53,-1
EndSplineSet
Validated: 1
EndChar

StartChar: glyph1
Encoding: 0 -1 1
AltUni2: 000000.ffffffff.0
Width: 0
Flags: MW
LayerCount: 2
Fore
SplineSet
0.5 -348 m 128,-1,1
 -17 -348 -17 -348 -17 -330.5 c 128,-1,2
 -17 -313 -17 -313 0.5 -313 c 128,-1,3
 18 -313 18 -313 18 -330.5 c 128,-1,0
 18 -348 18 -348 0.5 -348 c 128,-1,1
EndSplineSet
Validated: 1
EndChar

StartChar: A
Encoding: 35 65 3
Width: 1201
GlyphClass: 2
Flags: W
AnchorPoint: "Ancre-5" 1109 1414 basechar 0
AnchorPoint: "Ancre-3" 1185 -510 basechar 0
AnchorPoint: "Ancre-2" 1185 1515 basechar 0
AnchorPoint: "Ancre-1" 593 -3 basechar 0
AnchorPoint: "Ancre-0" 567 1414 basechar 0
LayerCount: 2
Fore
SplineSet
978 60 m 1,0,-1
 978 62 l 1,1,-1
 912 358 l 1,2,-1
 410 358 l 1,3,-1
 264 58 l 2,4,5
 236 0 236 0 177 0 c 2,6,-1
 7 0 l 1,7,-1
 680 1314 l 1,8,-1
 904 1314 l 1,9,-1
 1216 -0 l 1,10,-1
 1053 0 l 2,11,12
 996 0 996 0 978 60 c 1,0,-1
736 1006 m 2,13,-1
 497 513 l 1,14,-1
 872 513 l 1,15,-1
 763 1011 l 2,16,17
 759 1026 759 1026 755 1045 c 1,18,19
 745 1024 745 1024 736 1006 c 2,13,-1
EndSplineSet
Validated: 1
Position2: "sous-table 'cpsp' Chasses pour composition en capitales lookups0" dx=40 dy=0 dh=80 dv=0
Substitution2: "sous-table 'sups' Exposant lookups25" A.superior
Substitution2: "sous-table 'c2sc' Capitales vers petites capitales lookups24" a.smcp
EndChar

StartChar: Aogonek
Encoding: 197 260 4
Width: 1201
GlyphClass: 2
Flags: W
AnchorPoint: "Ancre-5" 1185 1414 basechar 0
AnchorPoint: "Ancre-2" 1185 1515 basechar 0
AnchorPoint: "Ancre-1" 593 -3 basechar 0
AnchorPoint: "Ancre-0" 567 1414 basechar 0
AnchorPoint: "Ancre-3" 1185 -510 basechar 0
LayerCount: 2
Fore
SplineSet
1213 12 m 1,0,1
 1086 -59 1086 -59 1086 -135 c 0,2,3
 1087 -156 1087 -156 1099 -168 c 0,4,5
 1116 -185 1116 -185 1143 -178.5 c 128,-1,6
 1170 -172 1170 -172 1177 -168 c 128,-1,7
 1184 -164 1184 -164 1189 -162 c 1,8,-1
 1189 -161 l 1,9,-1
 1190 -161 l 1,10,11
 1217 -149 1217 -149 1232.5 -160.5 c 128,-1,12
 1248 -172 1248 -172 1252 -186 c 2,13,-1
 1269 -248 l 1,14,-1
 1274 -265 l 1,15,16
 1183 -330 1183 -330 1096 -330 c 2,17,-1
 1093 -330 l 1,18,19
 996 -329 996 -329 946 -288 c 128,-1,20
 896 -247 896 -247 896 -195 c 2,21,-1
 896 -193 l 1,22,23
 898 -75 898 -75 1011 11 c 1,24,25
 980 31 980 31 974 62 c 2,26,-1
 908 358 l 1,27,-1
 409 358 l 1,28,-1
 264 58 l 2,29,30
 236 0 236 0 177 0 c 2,31,-1
 7 0 l 1,32,-1
 678 1314 l 1,33,-1
 900 1314 l 1,34,-1
 1209 30 l 1,35,-1
 1213 12 l 1,0,1
733 1006 m 2,36,-1
 496 513 l 1,37,-1
 869 513 l 1,38,-1
 760 1011 l 2,39,40
 756 1026 756 1026 752 1045 c 1,41,42
 742 1024 742 1024 733 1006 c 2,36,-1
EndSplineSet
Validated: 1
LCarets2: 1 0
Substitution2: "sous-table 'c2sc' Capitales vers petites capitales lookups24" aogonek.smcp
Position2: "sous-table 'cpsp' Chasses pour composition en capitales lookups0" dx=40 dy=0 dh=80 dv=0
Ligature2: "sous-table 'ccmp' Composition et d+AOkA-composition de glyphe (CJK) lookups10" A uni0328
EndChar

StartChar: AE
Encoding: 135 198 5
Width: 1452
GlyphClass: 2
Flags: W
AnchorPoint: "Ancre-0" 999 1414 basechar 0
AnchorPoint: "Ancre-1" 892 89 basechar 0
AnchorPoint: "Ancre-2" 1563 1515 basechar 0
AnchorPoint: "Ancre-3" 1563 -510 basechar 0
AnchorPoint: "Ancre-5" 1563 1414 basechar 0
LayerCount: 2
Fore
SplineSet
898 1314 m 1,0,-1
 1720 1314 l 1,1,-1
 1677 1135 l 1,2,-1
 1673 1116 l 1,3,-1
 1129 1116 l 1,4,-1
 1075 760 l 1,5,-1
 1487 760 l 1,6,-1
 1444 586 l 1,7,-1
 1439 567 l 1,8,-1
 1046 567 l 1,9,-1
 988 198 l 1,10,-1
 1442 198 l 1,11,-1
 1398 19 l 1,12,-1
 1394 0 l 1,13,-1
 755 0 l 1,14,-1
 805 358 l 1,15,-1
 439 358 l 1,16,-1
 239 53 l 1,17,18
 201 0 201 0 148 0 c 2,19,-1
 -17 0 l 1,20,-1
 891 1303 l 1,21,-1
 898 1314 l 1,0,-1
897 1032 m 2,22,-1
 558 513 l 1,23,-1
 831 513 l 1,24,-1
 908 1048 l 1,25,26
 902 1040 902 1040 897 1032 c 2,22,-1
EndSplineSet
Validated: 1
Substitution2: "sous-table 'c2sc' Capitales vers petites capitales lookups24" ae.smcp
Position2: "sous-table 'cpsp' Chasses pour composition en capitales lookups0" dx=40 dy=0 dh=80 dv=0
EndChar

StartChar: B
Encoding: 36 66 6
Width: 1131
GlyphClass: 2
Flags: W
AnchorPoint: "Ancre-5" 1114 1414 basechar 0
AnchorPoint: "Ancre-3" 1114 -510 basechar 0
AnchorPoint: "Ancre-2" 1114 1515 basechar 0
AnchorPoint: "Ancre-1" 513 10 basechar 0
AnchorPoint: "Ancre-0" 471 1414 basechar 0
LayerCount: 2
Fore
SplineSet
931 679 m 1,0,1
 1103 615 1103 615 1103 434 c 0,2,3
 1103 323 1103 323 1058.5 239.5 c 128,-1,4
 1014 156 1014 156 968 118 c 0,5,6
 824 0 824 0 593 0 c 2,7,-1
 131 0 l 1,8,-1
 295 1292 l 1,9,-1
 298 1314 l 1,10,-1
 727 1314 l 2,11,12
 1071 1314 1071 1314 1128 1103 c 0,13,14
 1139 1064 1139 1064 1139 1026 c 0,15,16
 1139 1022 1139 1022 1139 1019 c 0,17,18
 1139 924 1139 924 1114 870 c 0,19,20
 1054 737 1054 737 931 679 c 1,0,1
884 425 m 0,21,22
 884 573 884 573 672 573 c 2,23,-1
 429 573 l 1,24,-1
 375 194 l 1,25,-1
 610 194 l 2,26,27
 850 194 850 194 882 394 c 0,28,29
 884 411 884 411 884 425 c 0,21,22
507 1121 m 1,30,-1
 453 751 l 1,31,-1
 641 751 l 2,32,33
 827 751 827 751 890 862 c 0,34,35
 917 912 917 912 917 979.5 c 128,-1,36
 917 1047 917 1047 883 1079 c 0,37,38
 835 1121 835 1121 713 1121 c 2,39,-1
 507 1121 l 1,30,-1
EndSplineSet
Validated: 1
Position2: "sous-table 'cpsp' Chasses pour composition en capitales lookups0" dx=40 dy=0 dh=80 dv=0
Substitution2: "sous-table 'sups' Exposant lookups25" B.superior
Substitution2: "sous-table 'c2sc' Capitales vers petites capitales lookups24" b.smcp
EndChar

StartChar: C
Encoding: 37 67 7
Width: 1113
GlyphClass: 2
Flags: W
AnchorPoint: "Ancre-5" 1092 1414 basechar 0
AnchorPoint: "Ancre-3" 1092 -510 basechar 0
AnchorPoint: "Ancre-2" 1092 1515 basechar 0
AnchorPoint: "Ancre-1" 648 -3 basechar 0
AnchorPoint: "Ancre-0" 592 1414 basechar 0
LayerCount: 2
Fore
SplineSet
659 191 m 0,0,1
 833 191 833 191 946 304 c 1,2,-1
 947 304 l 1,3,4
 972 324 972 324 988 324 c 0,5,6
 1020 324 1020 324 1037 302 c 2,7,-1
 1107 208 l 1,8,-1
 1094 193 l 1,9,10
 923 -14 923 -14 627 -14 c 0,11,12
 359 -14 359 -14 228 176 c 0,13,14
 133 315 133 315 133 528 c 0,15,16
 133 748 133 748 216 929 c 0,17,18
 272 1052 272 1052 357 1141 c 1,19,20
 549 1329 549 1329 823 1329 c 0,21,22
 1066 1329 1066 1329 1199 1152 c 1,23,-1
 1211 1137 l 1,24,-1
 1133 1038 l 2,25,26
 1110 1007 1110 1007 1079 1007 c 0,27,28
 1048 1006 1048 1006 1028 1028 c 0,29,30
 978 1081 978 1081 924 1101.5 c 128,-1,31
 870 1122 870 1122 795 1122 c 0,32,33
 637 1122 637 1122 518 1001 c 0,34,35
 358 835 358 835 358 551 c 0,36,37
 358 304 358 304 523 222 c 0,38,39
 584 192 584 192 659 191 c 0,0,1
EndSplineSet
Validated: 1
Position2: "sous-table 'cpsp' Chasses pour composition en capitales lookups0" dx=40 dy=0 dh=80 dv=0
Substitution2: "sous-table 'sups' Exposant lookups25" C.superior
Substitution2: "sous-table 'c2sc' Capitales vers petites capitales lookups24" c.smcp
EndChar

StartChar: Ccedilla
Encoding: 136 199 8
Width: 1113
GlyphClass: 2
Flags: W
AnchorPoint: "Ancre-0" 592 1414 basechar 0
AnchorPoint: "Ancre-1" 648 -300 basechar 0
AnchorPoint: "Ancre-2" 1092 1515 basechar 0
AnchorPoint: "Ancre-3" 1092 -510 basechar 0
AnchorPoint: "Ancre-5" 1092 1414 basechar 0
LayerCount: 2
Fore
SplineSet
677 -30 m 1,0,1
 823 -68 823 -68 823 -169 c 0,2,3
 823 -254 823 -254 736 -304 c 0,4,5
 664 -344 664 -344 563 -344 c 0,6,7
 478 -344 478 -344 410 -311 c 1,8,-1
 388 -301 l 1,9,-1
 423 -225 l 2,10,11
 438 -193 438 -193 472 -193 c 0,12,13
 485 -194 485 -194 495 -198 c 0,14,15
 534 -215 534 -215 564 -215 c 0,16,17
 621 -215 621 -215 628 -179 c 1,18,-1
 628 -174 l 2,19,20
 628 -148 628 -148 503 -132 c 1,21,-1
 468 -127 l 1,22,-1
 525 -5 l 1,23,24
 312 29 312 29 213 201 c 0,25,26
 133 338 133 338 133 530 c 0,27,28
 133 748 133 748 216 929 c 0,29,30
 272 1052 272 1052 357 1141 c 1,31,32
 549 1329 549 1329 823 1329 c 0,33,34
 1066 1329 1066 1329 1199 1152 c 1,35,-1
 1211 1137 l 1,36,-1
 1133 1038 l 2,37,38
 1110 1007 1110 1007 1079 1007 c 0,39,40
 1048 1006 1048 1006 1028 1028 c 0,41,42
 978 1081 978 1081 924 1101.5 c 128,-1,43
 870 1122 870 1122 795 1122 c 0,44,45
 636 1122 636 1122 518 1000 c 0,46,47
 358 832 358 832 358 545 c 0,48,49
 358 294 358 294 523 212 c 0,50,51
 584 182 584 182 646 182 c 0,52,53
 708 182 708 182 746 188 c 0,54,55
 824 201 824 201 868 231 c 0,56,57
 927 271 927 271 947 291 c 1,58,59
 972 310 972 310 996.5 310 c 128,-1,60
 1021 310 1021 310 1037 289 c 2,61,-1
 1107 199 l 1,62,63
 1018 96 1018 96 916.5 46.5 c 128,-1,64
 815 -3 815 -3 685 -12 c 1,65,-1
 677 -30 l 1,0,1
EndSplineSet
Validated: 1
Substitution2: "sous-table 'c2sc' Capitales vers petites capitales lookups24" ccedilla.smcp
LCarets2: 1 0
Position2: "sous-table 'cpsp' Chasses pour composition en capitales lookups0" dx=40 dy=0 dh=80 dv=0
Ligature2: "sous-table 'ccmp' Composition et d+AOkA-composition de glyphe (CJK) lookups10" C uni0327
EndChar

StartChar: D
Encoding: 38 68 9
Width: 1267
GlyphClass: 2
Flags: W
AnchorPoint: "Ancre-5" 1260 1414 basechar 0
AnchorPoint: "Ancre-3" 1260 -510 basechar 0
AnchorPoint: "Ancre-2" 1260 1515 basechar 0
AnchorPoint: "Ancre-1" 578 10 basechar 0
AnchorPoint: "Ancre-0" 519 1414 basechar 0
LayerCount: 2
Fore
SplineSet
767 1314 m 2,0,1
 1052 1314 1052 1314 1189 1131 c 0,2,3
 1254 1044 1254 1044 1275 947.5 c 128,-1,4
 1296 851 1296 851 1296 783 c 128,-1,5
 1296 715 1296 715 1283.5 611.5 c 128,-1,6
 1271 508 1271 508 1214 388 c 128,-1,7
 1157 268 1157 268 1070 181 c 1,8,9
 877 0 877 0 594 0 c 2,10,-1
 126 0 l 1,11,-1
 291 1292 l 1,12,-1
 294 1314 l 1,13,-1
 767 1314 l 2,0,1
912 317 m 0,14,15
 1073 475 1073 475 1073 763 c 0,16,17
 1073 1009 1073 1009 901 1087 c 0,18,19
 835 1117 835 1117 748 1117 c 2,20,-1
 500 1117 l 1,21,-1
 372 197 l 1,22,-1
 613 197 l 2,23,24
 790 197 790 197 912 317 c 0,14,15
EndSplineSet
Validated: 1
Position2: "sous-table 'cpsp' Chasses pour composition en capitales lookups0" dx=40 dy=0 dh=80 dv=0
Substitution2: "sous-table 'c2sc' Capitales vers petites capitales lookups24" d.smcp
Substitution2: "sous-table 'sups' Exposant lookups25" D.superior
EndChar

StartChar: E
Encoding: 39 69 11
Width: 1025
GlyphClass: 2
Flags: W
AnchorPoint: "Ancre-5" 1000 1414 basechar 0
AnchorPoint: "Ancre-3" 1000 -510 basechar 0
AnchorPoint: "Ancre-2" 1000 1515 basechar 0
AnchorPoint: "Ancre-1" 546 10 basechar 0
AnchorPoint: "Ancre-0" 509 1414 basechar 0
LayerCount: 2
Fore
SplineSet
1115 1314 m 1,0,-1
 1089 1116 l 1,1,-1
 509 1116 l 1,2,-1
 457 760 l 1,3,-1
 936 760 l 1,4,-1
 916 589 l 1,5,-1
 913 567 l 1,6,-1
 431 567 l 1,7,-1
 377 198 l 1,8,-1
 972 198 l 1,9,-1
 946 -0 l 1,10,-1
 132 0 l 1,11,-1
 296 1292 l 1,12,-1
 299 1314 l 1,13,-1
 1115 1314 l 1,0,-1
EndSplineSet
Validated: 1
Position2: "sous-table 'cpsp' Chasses pour composition en capitales lookups0" dx=40 dy=0 dh=80 dv=0
Substitution2: "sous-table 'sups' Exposant lookups25" E.superior
Substitution2: "sous-table 'c2sc' Capitales vers petites capitales lookups24" e.smcp
EndChar

StartChar: Eogonek
Encoding: 217 280 12
Width: 1025
GlyphClass: 2
Flags: W
AnchorPoint: "Ancre-5" 1000 1414 basechar 0
AnchorPoint: "Ancre-3" 1000 -510 basechar 0
AnchorPoint: "Ancre-2" 1000 1515 basechar 0
AnchorPoint: "Ancre-1" 546 10 basechar 0
AnchorPoint: "Ancre-0" 509 1414 basechar 0
LayerCount: 2
Fore
SplineSet
916 -169 m 1,0,-1
 928 -162 l 1,1,-1
 929 -162 l 1,2,3
 940 -155 940 -155 952.5 -155 c 128,-1,4
 965 -155 965 -155 977 -163.5 c 128,-1,5
 989 -172 989 -172 992 -186 c 1,6,-1
 1015 -265 l 1,7,8
 924 -330 924 -330 825 -330 c 128,-1,9
 726 -330 726 -330 673 -289.5 c 128,-1,10
 620 -249 620 -249 620 -193 c 0,11,12
 620 -83 620 -83 725 0 c 1,13,-1
 132 0 l 1,14,-1
 296 1292 l 1,15,-1
 299 1314 l 1,16,-1
 1115 1314 l 1,17,-1
 1089 1116 l 1,18,-1
 509 1116 l 1,19,-1
 457 760 l 1,20,-1
 936 760 l 1,21,-1
 916 589 l 1,22,-1
 913 567 l 1,23,-1
 431 567 l 1,24,-1
 377 198 l 1,25,-1
 972 198 l 1,26,-1
 952 42 l 1,27,-1
 949 22 l 1,28,-1
 948 13 l 1,29,-1
 831 -98 l 1,30,31
 821 -118 821 -118 821 -134 c 0,32,33
 821 -153 821 -153 835 -166 c 1,34,-1
 836 -166 l 1,35,-1
 836 -167 l 1,36,37
 848 -178 848 -178 867.5 -178 c 128,-1,38
 887 -178 887 -178 897 -175 c 1,39,-1
 899 -175 l 1,40,41
 909 -173 909 -173 915 -169 c 1,42,-1
 916 -169 l 1,0,-1
EndSplineSet
Validated: 1
LCarets2: 1 0
Substitution2: "sous-table 'c2sc' Capitales vers petites capitales lookups24" eogonek.smcp
Position2: "sous-table 'cpsp' Chasses pour composition en capitales lookups0" dx=40 dy=0 dh=80 dv=0
Ligature2: "sous-table 'ccmp' Composition et d+AOkA-composition de glyphe (CJK) lookups10" E uni0328
EndChar

StartChar: F
Encoding: 40 70 13
Width: 971
GlyphClass: 2
Flags: W
AnchorPoint: "Ancre-5" 941 1414 basechar 0
AnchorPoint: "Ancre-3" 941 -510 basechar 0
AnchorPoint: "Ancre-2" 941 1515 basechar 0
AnchorPoint: "Ancre-1" 548 10 basechar 0
AnchorPoint: "Ancre-0" 509 1414 basechar 0
LayerCount: 2
Fore
SplineSet
1085 1314 m 1,0,-1
 1064 1138 l 1,1,-1
 1061 1116 l 1,2,-1
 503 1116 l 1,3,-1
 448 736 l 1,4,-1
 933 736 l 1,5,-1
 912 560 l 1,6,-1
 909 538 l 1,7,-1
 421 538 l 1,8,-1
 346 -0 l 1,9,-1
 126 0 l 1,10,-1
 290 1292 l 1,11,-1
 293 1314 l 1,12,-1
 1085 1314 l 1,0,-1
EndSplineSet
Validated: 1
Position2: "sous-table 'cpsp' Chasses pour composition en capitales lookups0" dx=40 dy=0 dh=80 dv=0
Substitution2: "sous-table 'c2sc' Capitales vers petites capitales lookups24" f.smcp
Substitution2: "sous-table 'sups' Exposant lookups25" F.superior
EndChar

StartChar: G
Encoding: 41 71 14
Width: 1297
GlyphClass: 2
Flags: W
AnchorPoint: "Ancre-5" 1292 1414 basechar 0
AnchorPoint: "Ancre-3" 1292 -510 basechar 0
AnchorPoint: "Ancre-2" 1292 1515 basechar 0
AnchorPoint: "Ancre-1" 736 -3 basechar 0
AnchorPoint: "Ancre-0" 610 1414 basechar 0
LayerCount: 2
Fore
SplineSet
830 525 m 1,0,-1
 830 532 l 1,1,-1
 831 533 l 1,2,-1
 845 636 l 1,3,-1
 847 658 l 1,4,-1
 1281 658 l 1,5,-1
 1216 144 l 1,6,-1
 1214 134 l 1,7,8
 1017 -14 1017 -14 740 -14 c 0,9,10
 423 -14 423 -14 265 174 c 0,11,12
 143 323 143 323 143 547 c 0,13,14
 143 755 143 755 229 931 c 0,15,16
 350 1182 350 1182 612 1280 c 0,17,18
 744 1329 744 1329 898 1329 c 0,19,20
 1183 1329 1183 1329 1327 1154 c 1,21,-1
 1339 1139 l 1,22,-1
 1271 1041 l 1,23,24
 1251 1014 1251 1014 1225 1007 c 1,25,-1
 1224 1007 l 1,26,27
 1222 1005 1222 1005 1204 1005 c 0,28,29
 1179 1005 1179 1005 1139 1037 c 0,30,31
 1032 1122 1032 1122 870 1122 c 0,32,33
 671 1122 671 1122 538 997 c 0,34,35
 367 837 367 837 367 558 c 0,36,37
 367 295 367 295 573 215 c 0,38,39
 650 183 650 183 742 183 c 0,40,41
 886 183 886 183 1018 243 c 1,42,-1
 1052 470 l 1,43,-1
 893 470 l 2,44,45
 863 470 863 470 847 486.5 c 128,-1,46
 831 503 831 503 830 525 c 1,0,-1
EndSplineSet
Validated: 1
Position2: "sous-table 'cpsp' Chasses pour composition en capitales lookups0" dx=40 dy=0 dh=80 dv=0
Substitution2: "sous-table 'sups' Exposant lookups25" G.superior
Substitution2: "sous-table 'c2sc' Capitales vers petites capitales lookups24" g.smcp
EndChar

StartChar: H
Encoding: 42 72 15
Width: 1281
GlyphClass: 2
Flags: W
AnchorPoint: "Ancre-5" 1276 1414 basechar 0
AnchorPoint: "Ancre-3" 1276 -510 basechar 0
AnchorPoint: "Ancre-2" 1276 1515 basechar 0
AnchorPoint: "Ancre-1" 638 10 basechar 0
AnchorPoint: "Ancre-0" 571 1414 basechar 0
LayerCount: 2
Fore
SplineSet
1154 0 m 1,0,-1
 922 0 l 1,1,-1
 1002 571 l 1,2,-1
 425 571 l 1,3,-1
 348 -0 l 1,4,-1
 127 0 l 1,5,-1
 292 1292 l 1,6,-1
 295 1314 l 1,7,-1
 526 1314 l 1,8,-1
 449 754 l 1,9,-1
 1026 754 l 1,10,-1
 1101 1314 l 1,11,-1
 1322 1314 l 1,12,-1
 1157 22 l 1,13,-1
 1154 0 l 1,0,-1
EndSplineSet
Validated: 1
Position2: "sous-table 'cpsp' Chasses pour composition en capitales lookups0" dx=40 dy=0 dh=80 dv=0
Substitution2: "sous-table 'sups' Exposant lookups25" H.superior
Substitution2: "sous-table 'c2sc' Capitales vers petites capitales lookups24" h.smcp
EndChar

StartChar: Hbar
Encoding: 231 294 16
Width: 1348
GlyphClass: 2
Flags: W
AnchorPoint: "Ancre-0" 571 1414 basechar 0
AnchorPoint: "Ancre-1" 672 10 basechar 0
AnchorPoint: "Ancre-2" 1345 1515 basechar 0
AnchorPoint: "Ancre-3" 1345 -510 basechar 0
AnchorPoint: "Ancre-5" 1345 1414 basechar 0
LayerCount: 2
Fore
SplineSet
1355 1314 m 1,0,-1
 1324 1069 l 1,1,-1
 1455 1069 l 1,2,-1
 1434 916 l 1,3,-1
 1304 916 l 1,4,-1
 1189 22 l 1,5,-1
 1186 -0 l 1,6,-1
 951 0 l 1,7,-1
 1029 596 l 1,8,-1
 459 596 l 1,9,-1
 381 0 l 1,10,-1
 161 0 l 1,11,-1
 278 916 l 1,12,-1
 148 916 l 1,13,-1
 164 1047 l 1,14,-1
 167 1069 l 1,15,-1
 297 1069 l 1,16,-1
 325 1292 l 1,17,-1
 328 1314 l 1,18,-1
 560 1314 l 1,19,-1
 526 1060 l 1,20,-1
 1096 1060 l 1,21,-1
 1130 1314 l 1,22,-1
 1355 1314 l 1,0,-1
505 926 m 1,23,-1
 483 754 l 1,24,-1
 1053 754 l 1,25,-1
 1076 926 l 1,26,-1
 505 926 l 1,23,-1
EndSplineSet
Validated: 1
Substitution2: "sous-table 'c2sc' Capitales vers petites capitales lookups24" hbar.smcp
Position2: "sous-table 'cpsp' Chasses pour composition en capitales lookups0" dx=40 dy=0 dh=80 dv=0
EndChar

StartChar: I
Encoding: 43 73 17
Width: 523
GlyphClass: 2
Flags: W
AnchorPoint: "Ancre-5" 516 1414 basechar 0
AnchorPoint: "Ancre-3" 516 -510 basechar 0
AnchorPoint: "Ancre-2" 516 1515 basechar 0
AnchorPoint: "Ancre-1" 258 10 basechar 0
AnchorPoint: "Ancre-0" 231 1414 basechar 0
LayerCount: 2
Fore
SplineSet
371 0 m 1,0,-1
 152 0 l 1,1,-1
 316 1292 l 1,2,-1
 319 1314 l 1,3,-1
 540 1314 l 1,4,-1
 374 22 l 1,5,-1
 371 0 l 1,0,-1
EndSplineSet
Validated: 1
Position2: "sous-table 'cpsp' Chasses pour composition en capitales lookups0" dx=40 dy=0 dh=80 dv=0
Substitution2: "sous-table 'sups' Exposant lookups25" I.superior
Substitution2: "sous-table 'c2sc' Capitales vers petites capitales lookups24" i.smcp
EndChar

StartChar: Iogonek
Encoding: 239 302 18
Width: 523
GlyphClass: 2
Flags: W
AnchorPoint: "Ancre-5" 516 1414 basechar 0
AnchorPoint: "Ancre-3" 516 -510 basechar 0
AnchorPoint: "Ancre-2" 516 1515 basechar 0
AnchorPoint: "Ancre-1" 258 -300 basechar 0
AnchorPoint: "Ancre-0" 231 1414 basechar 0
LayerCount: 2
Fore
SplineSet
407 -265 m 1,0,1
 316 -330 316 -330 224 -330 c 0,2,3
 92 -330 92 -330 50 -246 c 0,4,5
 38 -222 38 -222 37 -193 c 0,6,7
 37 -72 37 -72 151 15 c 1,8,-1
 313 1292 l 1,9,-1
 316 1314 l 1,10,-1
 536 1314 l 1,11,-1
 371 22 l 1,12,-1
 368 0 l 1,13,-1
 322 0 l 1,14,15
 254 -39 254 -39 229 -94 c 0,16,17
 219 -112 219 -112 219 -133 c 128,-1,18
 219 -154 219 -154 229.5 -166 c 128,-1,19
 240 -178 240 -178 259 -178 c 0,20,21
 299 -178 299 -178 315.5 -166.5 c 128,-1,22
 332 -155 332 -155 344.5 -155 c 128,-1,23
 357 -155 357 -155 369 -163.5 c 128,-1,24
 381 -172 381 -172 384 -186 c 1,25,-1
 407 -265 l 1,0,1
EndSplineSet
Validated: 1
Substitution2: "sous-table 'c2sc' Capitales vers petites capitales lookups24" iogonek.smcp
LCarets2: 1 0
Position2: "sous-table 'cpsp' Chasses pour composition en capitales lookups0" dx=40 dy=0 dh=80 dv=0
Ligature2: "sous-table 'ccmp' Composition et d+AOkA-composition de glyphe (CJK) lookups10" I uni0328
EndChar

StartChar: J
Encoding: 44 74 19
Width: 704
GlyphClass: 2
Flags: W
AnchorPoint: "Ancre-5" 653 1414 basechar 0
AnchorPoint: "Ancre-3" 653 -510 basechar 0
AnchorPoint: "Ancre-2" 653 1515 basechar 0
AnchorPoint: "Ancre-1" 191 -3 basechar 0
AnchorPoint: "Ancre-0" 395 1414 basechar 0
LayerCount: 2
Fore
SplineSet
768 1314 m 1,0,-1
 659 460 l 2,1,2
 630 235 630 235 529 116 c 1,3,4
 467 54 467 54 379 20 c 128,-1,5
 291 -14 291 -14 228 -14 c 0,6,7
 129 -14 129 -14 52 11 c 1,8,-1
 32 18 l 1,9,-1
 36 39 l 2,10,11
 41 68 41 68 47 95 c 128,-1,12
 53 122 53 122 59 146 c 0,13,14
 73 202 73 202 124 203 c 0,15,16
 141 203 141 203 159.5 195.5 c 128,-1,17
 178 188 178 188 204 188 c 0,18,19
 275 188 275 188 334.5 251.5 c 128,-1,20
 394 315 394 315 418 466 c 2,21,-1
 546 1292 l 1,22,-1
 548 1314 l 1,23,-1
 768 1314 l 1,0,-1
EndSplineSet
Validated: 1
Position2: "sous-table 'cpsp' Chasses pour composition en capitales lookups0" dx=40 dy=0 dh=80 dv=0
Substitution2: "sous-table 'sups' Exposant lookups25" J.superior
Substitution2: "sous-table 'c2sc' Capitales vers petites capitales lookups24" j.smcp
EndChar

StartChar: K
Encoding: 45 75 20
Width: 1086
GlyphClass: 2
Flags: W
AnchorPoint: "Ancre-5" 1064 1414 basechar 0
AnchorPoint: "Ancre-3" 1064 -510 basechar 0
AnchorPoint: "Ancre-2" 1064 1515 basechar 0
AnchorPoint: "Ancre-1" 530 89 basechar 0
AnchorPoint: "Ancre-0" 457 1414 basechar 0
LayerCount: 2
Fore
SplineSet
931 1265 m 1,0,1
 980 1314 980 1314 1040 1314 c 2,2,-1
 1237 1314 l 1,3,-1
 744 732 l 1,4,5
 721 707 721 707 698 689 c 1,6,7
 726 669 726 669 746 637 c 1,8,-1
 747 637 l 1,9,-1
 747 636 l 1,10,-1
 1074 35 l 1,11,-1
 1091 0 l 1,12,-1
 895 0 l 2,13,14
 852 0 852 0 832.5 14 c 128,-1,15
 813 28 813 28 798 48 c 1,16,-1
 797 49 l 1,17,-1
 797 50 l 1,18,-1
 515 548 l 2,19,20
 506 564 506 564 494.5 569.5 c 128,-1,21
 483 575 483 575 454 575 c 2,22,-1
 410 575 l 1,23,-1
 332 -0 l 1,24,-1
 113 0 l 1,25,-1
 277 1292 l 1,26,-1
 280 1314 l 1,27,-1
 512 1314 l 1,28,-1
 436 765 l 1,29,-1
 457 765 l 2,30,31
 500 765 500 765 522 792 c 1,32,-1
 931 1264 l 1,33,-1
 931 1265 l 1,0,1
EndSplineSet
Validated: 1
Position2: "sous-table 'cpsp' Chasses pour composition en capitales lookups0" dx=40 dy=0 dh=80 dv=0
Substitution2: "sous-table 'sups' Exposant lookups25" K.superior
Substitution2: "sous-table 'c2sc' Capitales vers petites capitales lookups24" k.smcp
EndChar

StartChar: L
Encoding: 46 76 21
Width: 897
GlyphClass: 2
Flags: W
AnchorPoint: "Ancre-5" 861 1414 basechar 0
AnchorPoint: "Ancre-3" 861 -510 basechar 0
AnchorPoint: "Ancre-2" 861 1515 basechar 0
AnchorPoint: "Ancre-1" 470 10 basechar 0
AnchorPoint: "Ancre-0" 201 1414 basechar 0
LayerCount: 2
Fore
SplineSet
544 1314 m 1,0,-1
 370 203 l 1,1,-1
 892 203 l 1,2,-1
 869 22 l 1,3,-1
 866 -0 l 1,4,-1
 126 0 l 1,5,-1
 290 1292 l 1,6,-1
 293 1314 l 1,7,-1
 544 1314 l 1,0,-1
EndSplineSet
Validated: 1
Position2: "sous-table 'cpsp' Chasses pour composition en capitales lookups0" dx=40 dy=0 dh=80 dv=0
Substitution2: "sous-table 'sups' Exposant lookups25" L.superior
Substitution2: "sous-table 'c2sc' Capitales vers petites capitales lookups24" l.smcp
EndChar

StartChar: Lslash
Encoding: 258 321 22
Width: 980
GlyphClass: 2
Flags: W
AnchorPoint: "Ancre-0" 238 1414 basechar 0
AnchorPoint: "Ancre-1" 488 10 basechar 0
AnchorPoint: "Ancre-2" 879 1515 basechar 0
AnchorPoint: "Ancre-3" 879 -510 basechar 0
AnchorPoint: "Ancre-5" 879 1414 basechar 0
LayerCount: 2
Fore
SplineSet
605 1314 m 1,0,-1
 530 798 l 1,1,-1
 797 934 l 1,2,-1
 841 958 l 1,3,-1
 820 793 l 1,4,5
 814 754 814 754 779 735 c 1,6,-1
 499 592 l 1,7,-1
 442 203 l 1,8,-1
 947 203 l 1,9,-1
 926 22 l 1,10,-1
 923 -0 l 1,11,-1
 182 0 l 1,12,-1
 241 468 l 1,13,-1
 81 384 l 1,14,-1
 103 552 l 2,15,16
 108 587 108 587 141 604 c 1,17,-1
 268 674 l 1,18,-1
 352 1314 l 1,19,-1
 605 1314 l 1,0,-1
EndSplineSet
Validated: 1
Substitution2: "sous-table 'c2sc' Capitales vers petites capitales lookups24" lslash.smcp
Position2: "sous-table 'cpsp' Chasses pour composition en capitales lookups0" dx=40 dy=0 dh=80 dv=0
EndChar

StartChar: M
Encoding: 47 77 24
Width: 1721
GlyphClass: 2
Flags: W
AnchorPoint: "Ancre-5" 1751 1414 basechar 0
AnchorPoint: "Ancre-3" 1751 -510 basechar 0
AnchorPoint: "Ancre-2" 1751 1515 basechar 0
AnchorPoint: "Ancre-1" 875 10 basechar 0
AnchorPoint: "Ancre-0" 835 1414 basechar 0
LayerCount: 2
Fore
SplineSet
470 1314 m 2,0,1
 508 1314 508 1314 514 1308 c 1,2,-1
 515 1308 l 1,3,4
 537 1299 537 1299 552 1268 c 1,5,-1
 907 464 l 2,6,7
 914 447 914 447 920 427 c 1,8,9
 932 449 932 449 945 468 c 2,10,-1
 1500 1273 l 2,11,12
 1519 1301 1519 1301 1538.5 1307.5 c 128,-1,13
 1558 1314 1558 1314 1584 1314 c 2,14,-1
 1738 1314 l 1,15,-1
 1573 22 l 1,16,-1
 1570 0 l 1,17,-1
 1364 0 l 1,18,-1
 1489 966 l 1,19,-1
 994 240 l 2,20,21
 959 188 959 188 901 188 c 2,22,-1
 876 188 l 2,23,24
 819 188 819 188 793 244 c 1,25,-1
 474 969 l 1,26,-1
 354 22 l 1,27,-1
 351 0 l 1,28,-1
 152 0 l 1,29,-1
 316 1292 l 1,30,-1
 319 1314 l 1,31,-1
 470 1314 l 2,0,1
EndSplineSet
Validated: 1
Position2: "sous-table 'cpsp' Chasses pour composition en capitales lookups0" dx=40 dy=0 dh=80 dv=0
Substitution2: "sous-table 'sups' Exposant lookups25" M.superior
Substitution2: "sous-table 'c2sc' Capitales vers petites capitales lookups24" m.smcp
EndChar

StartChar: N
Encoding: 48 78 25
Width: 1323
GlyphClass: 2
Flags: W
AnchorPoint: "Ancre-5" 1322 1414 basechar 0
AnchorPoint: "Ancre-3" 1322 -510 basechar 0
AnchorPoint: "Ancre-2" 1322 1515 basechar 0
AnchorPoint: "Ancre-1" 661 10 basechar 0
AnchorPoint: "Ancre-0" 619 1414 basechar 0
LayerCount: 2
Fore
SplineSet
302 1314 m 1,0,-1
 415 1314 l 2,1,2
 447 1314 447 1314 464 1305.5 c 128,-1,3
 481 1297 481 1297 496 1270 c 2,4,-1
 1036 362 l 1,5,-1
 1036 369 l 1,6,-1
 1154 1292 l 1,7,-1
 1157 1314 l 1,8,-1
 1356 1314 l 1,9,-1
 1192 22 l 1,10,-1
 1189 0 l 1,11,-1
 1079 0 l 2,12,13
 1021 0 1021 0 996 45 c 1,14,-1
 456 953 l 1,15,16
 456 951 456 951 455 950 c 2,17,-1
 336 22 l 1,18,-1
 333 0 l 1,19,-1
 135 0 l 1,20,-1
 299 1292 l 1,21,-1
 302 1314 l 1,0,-1
EndSplineSet
Validated: 1
Position2: "sous-table 'cpsp' Chasses pour composition en capitales lookups0" dx=40 dy=0 dh=80 dv=0
Substitution2: "sous-table 'sups' Exposant lookups25" N.superior
Substitution2: "sous-table 'c2sc' Capitales vers petites capitales lookups24" n.smcp
EndChar

StartChar: Eng
Encoding: 267 330 26
Width: 1291
GlyphClass: 2
Flags: W
AnchorPoint: "Ancre-0" 619 1414 basechar 0
AnchorPoint: "Ancre-1" 626 10 basechar 0
AnchorPoint: "Ancre-2" 1287 1515 basechar 0
AnchorPoint: "Ancre-3" 1287 -510 basechar 0
AnchorPoint: "Ancre-5" 1287 1414 basechar 0
LayerCount: 2
Fore
SplineSet
1330 1314 m 1,0,-1
 1166 25 l 1,1,2
 1136 -229 1136 -229 959 -302 c 0,3,4
 896 -328 896 -328 832 -328 c 0,5,6
 734 -328 734 -328 658 -292 c 2,7,-1
 637 -282 l 1,8,-1
 673 -189 l 2,9,10
 692 -138 692 -138 740 -138 c 0,11,12
 756 -138 756 -138 773.5 -145 c 128,-1,13
 791 -152 791 -152 831.5 -152 c 128,-1,14
 872 -152 872 -152 908 -112 c 128,-1,15
 944 -72 944 -72 956 18 c 1,16,-1
 962 57 l 1,17,-1
 450 950 l 1,18,-1
 331 22 l 1,19,-1
 328 0 l 1,20,-1
 129 0 l 1,21,-1
 294 1292 l 1,22,-1
 297 1314 l 1,23,-1
 410 1314 l 2,24,25
 439 1314 439 1314 456.5 1305.5 c 128,-1,26
 474 1297 474 1297 491 1271 c 1,27,-1
 491 1270 l 1,28,-1
 1009 366 l 1,29,-1
 1009 369 l 1,30,-1
 1128 1292 l 1,31,-1
 1131 1314 l 1,32,-1
 1330 1314 l 1,0,-1
EndSplineSet
Validated: 1
Substitution2: "sous-table 'c2sc' Capitales vers petites capitales lookups24" eng.smcp
Substitution2: "sous-table 'ss03' Style 3 lookups33" Eng.ss03
Substitution2: "sous-table 'ss02' Style 2 lookups31" Eng.ss02
Substitution2: "sous-table 'ss01' Style 1 lookups29" Eng.ss01
Position2: "sous-table 'cpsp' Chasses pour composition en capitales lookups0" dx=40 dy=0 dh=80 dv=0
EndChar

StartChar: O
Encoding: 49 79 27
Width: 1358
GlyphClass: 2
Flags: W
AnchorPoint: "Ancre-5" 1356 1414 basechar 0
AnchorPoint: "Ancre-3" 1356 -510 basechar 0
AnchorPoint: "Ancre-2" 1356 1515 basechar 0
AnchorPoint: "Ancre-1" 678 0 basechar 0
AnchorPoint: "Ancre-0" 643 1414 basechar 0
LayerCount: 2
Fore
SplineSet
1365 923 m 0,0,1
 1381 852 1381 852 1381 784 c 0,2,3
 1381 563 1381 563 1297 386 c 0,4,5
 1180 136 1180 136 937 36 c 0,6,7
 814 -14 814 -14 672 -14 c 0,8,9
 390 -14 390 -14 248 177 c 0,10,11
 139 323 139 323 139 544 c 0,12,13
 139 752 139 752 222 928 c 0,14,15
 342 1183 342 1183 586 1279 c 0,16,17
 710 1329 710 1329 850 1329 c 0,18,19
 1135 1329 1135 1329 1273 1137 c 0,20,21
 1339 1048 1339 1048 1365 923 c 0,0,1
1150 660 m 0,22,23
 1157 715 1157 715 1157 763 c 2,24,-1
 1157 775 l 2,25,26
 1157 1011 1157 1011 984 1091 c 0,27,28
 916 1122 916 1122 828 1122 c 0,29,30
 648 1122 648 1122 526 999 c 0,31,32
 400 875 400 875 370 654 c 0,33,34
 363 600 363 600 363 552 c 0,35,36
 363 304 363 304 537 224 c 0,37,38
 604 193 604 193 694 193 c 0,39,40
 876 193 876 193 998 317 c 128,-1,41
 1120 441 1120 441 1150 660 c 0,22,23
EndSplineSet
Validated: 1
Position2: "sous-table 'cpsp' Chasses pour composition en capitales lookups0" dx=40 dy=0 dh=80 dv=0
Substitution2: "sous-table 'sups' Exposant lookups25" O.superior
Substitution2: "sous-table 'c2sc' Capitales vers petites capitales lookups24" o.smcp
EndChar

StartChar: Oslash
Encoding: 153 216 28
Width: 1360
GlyphClass: 2
Flags: W
AnchorPoint: "Ancre-5" 1359 1414 basechar 0
AnchorPoint: "Ancre-3" 1359 -510 basechar 0
AnchorPoint: "Ancre-2" 1359 1515 basechar 0
AnchorPoint: "Ancre-1" 681 0 basechar 0
AnchorPoint: "Ancre-0" 613 1414 basechar 0
LayerCount: 2
Fore
SplineSet
1299 1138 m 1,0,1
 1406 989 1406 989 1409 772 c 0,2,3
 1409 563 1409 563 1325 386 c 0,4,5
 1207 138 1207 138 961 36 c 0,6,7
 839 -14 839 -14 687 -14 c 128,-1,8
 535 -14 535 -14 408 61 c 1,9,-1
 329 -39 l 2,10,11
 281 -100 281 -100 206 -100 c 2,12,-1
 89 -100 l 1,13,-1
 289 157 l 1,14,15
 164 308 164 308 164 541 c 0,16,17
 164 747 164 747 249 927 c 0,18,19
 368 1180 368 1180 614 1279 c 0,20,21
 736 1329 736 1329 895.5 1329 c 128,-1,22
 1055 1329 1055 1329 1187 1240 c 1,23,-1
 1248 1317 l 2,24,25
 1284 1363 1284 1363 1306 1368.5 c 128,-1,26
 1328 1374 1328 1374 1345 1374 c 2,27,-1
 1484 1374 l 1,28,-1
 1299 1138 l 1,0,1
1047 1066 m 1,29,30
 968 1122 968 1122 867 1122 c 128,-1,31
 766 1122 766 1122 689.5 1089 c 128,-1,32
 613 1056 613 1056 554 993 c 0,33,34
 397 825 397 825 391 520 c 1,35,-1
 391 508 l 2,36,37
 391 395 391 395 437 303 c 1,38,-1
 1047 1066 l 1,29,30
1174 685 m 0,39,40
 1181 741 1181 741 1181 792 c 2,41,-1
 1181 805 l 2,42,43
 1181 902 1181 902 1147 985 c 1,44,-1
 548 235 l 1,45,46
 620 193 620 193 714 193 c 0,47,48
 898 193 898 193 1021 323.5 c 128,-1,49
 1144 454 1144 454 1174 685 c 0,39,40
EndSplineSet
Validated: 1
Substitution2: "sous-table 'c2sc' Capitales vers petites capitales lookups24" oslash.smcp
Position2: "sous-table 'cpsp' Chasses pour composition en capitales lookups0" dx=40 dy=0 dh=80 dv=0
EndChar

StartChar: OE
Encoding: 275 338 29
Width: 1875
GlyphClass: 2
Flags: W
AnchorPoint: "Ancre-0" 1281 1414 basechar 0
AnchorPoint: "Ancre-1" 1069 89 basechar 0
AnchorPoint: "Ancre-2" 1775 1515 basechar 0
AnchorPoint: "Ancre-3" 1775 -510 basechar 0
AnchorPoint: "Ancre-5" 1775 1414 basechar 0
LayerCount: 2
Fore
SplineSet
739 1329 m 2,0,1
 975 1329 975 1329 1110 1141 c 1,2,-1
 1129 1292 l 1,3,-1
 1132 1314 l 1,4,-1
 1905 1314 l 1,5,-1
 1885 1144 l 1,6,-1
 1882 1122 l 1,7,-1
 1322 1122 l 1,8,-1
 1273 756 l 1,9,-1
 1726 756 l 1,10,-1
 1706 590 l 1,11,-1
 1703 568 l 1,12,-1
 1249 568 l 1,13,-1
 1198 185 l 1,14,-1
 1763 185 l 1,15,-1
 1737 -0 l 1,16,-1
 957 0 l 1,17,-1
 976 146 l 1,18,19
 809 -13 809 -13 576 -13 c 128,-1,20
 343 -13 343 -13 215 146.5 c 128,-1,21
 87 306 87 306 87 559 c 0,22,23
 88 891 88 891 267 1109 c 1,24,25
 454 1329 454 1329 737 1329 c 2,26,-1
 739 1329 l 2,0,1
909 333 m 0,27,28
 966 408 966 408 997.5 514.5 c 128,-1,29
 1029 621 1029 621 1029 731 c 0,30,31
 1029 934 1029 934 951.5 1035.5 c 128,-1,32
 874 1137 874 1137 741 1137 c 0,33,34
 554 1136 554 1136 435.5 979.5 c 128,-1,35
 317 823 317 823 317 566 c 0,36,37
 317 383 317 383 394 281 c 128,-1,38
 471 179 471 179 607 179 c 0,39,40
 793 180 793 180 909 333 c 0,27,28
EndSplineSet
Validated: 1
Substitution2: "sous-table 'c2sc' Capitales vers petites capitales lookups24" oe.smcp
Position2: "sous-table 'cpsp' Chasses pour composition en capitales lookups0" dx=40 dy=0 dh=80 dv=0
EndChar

StartChar: P
Encoding: 50 80 30
Width: 1079
GlyphClass: 2
Flags: W
AnchorPoint: "Ancre-5" 1058 1414 basechar 0
AnchorPoint: "Ancre-3" 1058 -510 basechar 0
AnchorPoint: "Ancre-2" 1058 1515 basechar 0
AnchorPoint: "Ancre-1" 516 10 basechar 0
AnchorPoint: "Ancre-0" 483 1414 basechar 0
LayerCount: 2
Fore
SplineSet
594 465 m 2,0,-1
 417 465 l 1,1,-1
 353 0 l 1,2,-1
 134 0 l 1,3,-1
 298 1292 l 1,4,-1
 301 1314 l 1,5,-1
 706 1314 l 2,6,7
 1070 1314 1070 1314 1130 1062 c 0,8,9
 1140 1018 1140 1018 1140 992 c 2,10,-1
 1140 961 l 2,11,12
 1140 829 1140 829 1092.5 735 c 128,-1,13
 1045 641 1045 641 979 584 c 0,14,15
 841 465 841 465 594 465 c 2,0,-1
510 1121 m 1,16,-1
 444 659 l 1,17,-1
 613 659 l 2,18,19
 809 659 809 659 887 799 c 0,20,21
 919 863 919 863 919 941 c 128,-1,22
 919 1019 919 1019 871.5 1070 c 128,-1,23
 824 1121 824 1121 690 1121 c 2,24,-1
 510 1121 l 1,16,-1
EndSplineSet
Validated: 1
Position2: "sous-table 'cpsp' Chasses pour composition en capitales lookups0" dx=40 dy=0 dh=80 dv=0
Substitution2: "sous-table 'sups' Exposant lookups25" P.superior
Substitution2: "sous-table 'c2sc' Capitales vers petites capitales lookups24" p.smcp
EndChar

StartChar: Thorn
Encoding: 159 222 31
Width: 1079
GlyphClass: 2
Flags: W
LayerCount: 2
Fore
SplineSet
677 1082 m 2,0,1
 927 1082 927 1082 1033 966 c 0,2,3
 1085 910 1085 910 1099 850 c 128,-1,4
 1113 790 1113 790 1113 763 c 2,5,-1
 1113 722 l 1,6,7
 1113 720 1113 720 1113 717 c 0,8,9
 1112 692 1112 692 1104 632 c 0,10,11
 1094 564 1094 564 1056 490 c 0,12,13
 927 241 927 241 564 241 c 2,14,-1
 386 241 l 1,15,-1
 354 -0 l 1,16,-1
 135 0 l 1,17,-1
 299 1292 l 1,18,-1
 302 1314 l 1,19,-1
 538 1314 l 1,20,-1
 505 1082 l 1,21,-1
 677 1082 l 2,0,1
478 905 m 1,22,-1
 412 418 l 1,23,-1
 583 418 l 2,24,25
 783 418 783 418 861 565 c 0,26,27
 893 633 893 633 893 714 c 128,-1,28
 893 795 893 795 851 844 c 0,29,30
 795 905 795 905 657 905 c 2,31,-1
 478 905 l 1,22,-1
EndSplineSet
Validated: 1
Substitution2: "sous-table 'c2sc' Capitales vers petites capitales lookups24" thorn.smcp
Position2: "sous-table 'cpsp' Chasses pour composition en capitales lookups0" dx=40 dy=0 dh=80 dv=0
EndChar

StartChar: Q
Encoding: 51 81 32
Width: 1380
GlyphClass: 2
Flags: W
AnchorPoint: "Ancre-5" 1378 1414 basechar 0
AnchorPoint: "Ancre-3" 1378 -510 basechar 0
AnchorPoint: "Ancre-2" 1378 1515 basechar 0
AnchorPoint: "Ancre-1" 690 -3 basechar 0
AnchorPoint: "Ancre-0" 617 1414 basechar 0
LayerCount: 2
Fore
SplineSet
378 1140 m 0,0,1
 575 1329 575 1329 860 1329 c 0,2,3
 1000 1329 1000 1329 1108 1278 c 128,-1,4
 1216 1227 1216 1227 1282.5 1137 c 128,-1,5
 1349 1047 1349 1047 1370 947 c 0,6,7
 1391 848 1391 848 1391 780 c 0,8,9
 1391 534 1391 534 1287 341 c 0,10,11
 1219 215 1219 215 1115 127 c 1,12,-1
 1400 -271 l 1,13,-1
 1212 -271 l 2,14,15
 1137 -271 1137 -271 1094 -217 c 1,16,-1
 916 26 l 1,17,18
 805 -14 805 -14 673 -14 c 0,19,20
 542 -14 542 -14 434 36 c 0,21,22
 219 136 219 136 165 391 c 0,23,24
 149 464 149 464 149 531.5 c 128,-1,25
 149 599 149 599 161.5 702 c 128,-1,26
 174 805 174 805 232 928 c 128,-1,27
 290 1051 290 1051 378 1140 c 0,0,1
1005 314 m 0,28,29
 1167 479 1167 479 1167 775 c 0,30,31
 1167 911 1167 911 1102 1002 c 0,32,33
 1015 1122 1015 1122 838 1122 c 0,34,35
 658 1122 658 1122 535 999 c 0,36,37
 410 876 410 876 380 654 c 0,38,39
 373 600 373 600 373 552 c 0,40,41
 373 304 373 304 547 224 c 0,42,43
 612 193 612 193 702 193 c 0,44,45
 884 193 884 193 1005 314 c 0,28,29
EndSplineSet
Validated: 1
Position2: "sous-table 'cpsp' Chasses pour composition en capitales lookups0" dx=40 dy=0 dh=80 dv=0
Substitution2: "sous-table 'sups' Exposant lookups25" Q.superior
Substitution2: "sous-table 'c2sc' Capitales vers petites capitales lookups24" q.smcp
EndChar

StartChar: R
Encoding: 52 82 33
Width: 1130
GlyphClass: 2
Flags: W
AnchorPoint: "Ancre-5" 1112 1414 basechar 0
AnchorPoint: "Ancre-3" 1112 -510 basechar 0
AnchorPoint: "Ancre-2" 1112 1515 basechar 0
AnchorPoint: "Ancre-1" 516 10 basechar 0
AnchorPoint: "Ancre-0" 445 1414 basechar 0
LayerCount: 2
Fore
SplineSet
511 1121 m 1,0,-1
 450 704 l 1,1,-1
 595 704 l 2,2,3
 797 704 797 704 874 835 c 0,4,5
 905 893 905 893 905 968.5 c 128,-1,6
 905 1044 905 1044 852 1083 c 0,7,8
 795 1121 795 1121 669 1121 c 2,9,-1
 511 1121 l 1,0,-1
527 521 m 2,10,-1
 425 521 l 1,11,-1
 353 0 l 1,12,-1
 134 0 l 1,13,-1
 298 1292 l 1,14,-1
 301 1314 l 1,15,-1
 689 1314 l 2,16,17
 1054 1314 1054 1314 1110 1090 c 0,18,19
 1122 1047 1122 1047 1122 1007 c 128,-1,20
 1122 967 1122 967 1116 916 c 128,-1,21
 1110 865 1110 865 1082 804 c 0,22,23
 999 626 999 626 809 569 c 1,24,25
 823 555 823 555 835 537 c 1,26,-1
 835 536 l 1,27,-1
 1122 0 l 1,28,-1
 931 0 l 2,29,30
 872 0 872 0 842 48 c 1,31,-1
 584 495 l 2,32,33
 575 510 575 510 565 515.5 c 128,-1,34
 555 521 555 521 527 521 c 2,10,-1
EndSplineSet
Validated: 1
Position2: "sous-table 'cpsp' Chasses pour composition en capitales lookups0" dx=40 dy=0 dh=80 dv=0
Substitution2: "sous-table 'sups' Exposant lookups25" R.superior
Substitution2: "sous-table 'c2sc' Capitales vers petites capitales lookups24" r.smcp
EndChar

StartChar: S
Encoding: 53 83 34
Width: 972
GlyphClass: 2
Flags: W
AnchorPoint: "Ancre-5" 941 1414 basechar 0
AnchorPoint: "Ancre-3" 941 -510 basechar 0
AnchorPoint: "Ancre-2" 941 1515 basechar 0
AnchorPoint: "Ancre-1" 450 0 basechar 0
AnchorPoint: "Ancre-0" 480 1414 basechar 0
LayerCount: 2
Fore
SplineSet
1039 1169 m 1,0,-1
 978 1069 l 2,1,2
 954 1029 954 1029 922 1029 c 0,3,4
 890 1030 890 1030 871 1048 c 0,5,6
 784 1128 784 1128 678 1128 c 0,7,8
 525 1128 525 1128 470 1024 c 0,9,10
 445 981 445 981 445 942 c 0,11,12
 445 873 445 873 511 833 c 0,13,14
 548 810 548 810 600 792 c 0,15,16
 747 742 747 742 804 714 c 0,17,18
 966 632 966 632 966 462 c 0,19,20
 966 349 966 349 921 257.5 c 128,-1,21
 876 166 876 166 817 109 c 0,22,23
 679 -14 679 -14 462 -14 c 0,24,25
 200 -14 200 -14 69 183 c 1,26,-1
 139 284 l 1,27,28
 164 318 164 318 197.5 318 c 128,-1,29
 231 318 231 318 253 294 c 0,30,31
 354 187 354 187 487 187 c 0,32,33
 592 187 592 187 663 243 c 0,34,35
 731 296 731 296 745 392 c 0,36,37
 747 406 747 406 747 428 c 0,38,39
 747 515 747 515 596 561 c 0,40,41
 446 609 446 609 385 637 c 0,42,43
 220 713 220 713 220 894 c 0,44,45
 220 1094 220 1094 361 1214 c 0,46,47
 501 1329 501 1329 695 1329 c 0,48,49
 917 1329 917 1329 1029 1182 c 2,50,-1
 1039 1169 l 1,0,-1
EndSplineSet
Validated: 1
Position2: "sous-table 'cpsp' Chasses pour composition en capitales lookups0" dx=40 dy=0 dh=80 dv=0
Substitution2: "sous-table 'sups' Exposant lookups25" S.superior
Substitution2: "sous-table 'c2sc' Capitales vers petites capitales lookups24" s.smcp
EndChar

StartChar: Scedilla
Encoding: 287 350 35
Width: 972
GlyphClass: 2
Flags: W
AnchorPoint: "Ancre-5" 941 1414 basechar 0
AnchorPoint: "Ancre-3" 941 -510 basechar 0
AnchorPoint: "Ancre-2" 941 1515 basechar 0
AnchorPoint: "Ancre-1" 450 -300 basechar 0
AnchorPoint: "Ancre-0" 480 1414 basechar 0
LayerCount: 2
Fore
SplineSet
463 -57 m 1,0,1
 611 -94 611 -94 611 -196 c 0,2,3
 611 -280 611 -280 522 -331 c 0,4,5
 450 -371 450 -371 345 -371 c 0,6,7
 263 -371 263 -371 203 -338 c 2,8,-1
 183 -327 l 1,9,-1
 213 -253 l 1,10,-1
 214 -252 l 1,11,-1
 214 -251 l 1,12,13
 229 -220 229 -220 250.5 -220 c 128,-1,14
 272 -220 272 -220 280 -224 c 0,15,16
 290 -228 290 -228 298 -232 c 0,17,18
 321 -242 321 -242 347 -242 c 0,19,20
 406 -242 406 -242 411 -207 c 1,21,-1
 411 -205 l 1,22,23
 412 -202 412 -202 412 -198 c 0,24,25
 412 -176 412 -176 287 -159 c 1,26,-1
 255 -154 l 1,27,-1
 322 1 l 1,28,29
 164 41 164 41 69 183 c 1,30,-1
 139 284 l 1,31,32
 164 318 164 318 197.5 318 c 128,-1,33
 231 318 231 318 253 294 c 0,34,35
 354 187 354 187 487 187 c 0,36,37
 592 187 592 187 663 243 c 0,38,39
 728 295 728 295 745 392 c 0,40,41
 747 406 747 406 747 428 c 0,42,43
 747 515 747 515 596 561 c 0,44,45
 446 609 446 609 385 637 c 0,46,47
 220 713 220 713 220 894 c 0,48,49
 220 1094 220 1094 361 1214 c 0,50,51
 501 1329 501 1329 695 1329 c 0,52,53
 918 1329 918 1329 1028 1182 c 1,54,-1
 1039 1169 l 1,55,-1
 978 1069 l 2,56,57
 954 1029 954 1029 922 1029 c 0,58,59
 890 1030 890 1030 871 1048 c 0,60,61
 784 1128 784 1128 678 1128 c 0,62,63
 525 1128 525 1128 470 1024 c 0,64,65
 445 981 445 981 445 942 c 0,66,67
 445 872 445 872 511 833 c 0,68,69
 548 810 548 810 600 792 c 0,70,71
 747 742 747 742 804 714 c 0,72,73
 962 634 962 634 966 462 c 0,74,75
 966 349 966 349 921 257.5 c 128,-1,76
 876 166 876 166 817 109 c 0,77,78
 686 -8 686 -8 481 -14 c 1,79,-1
 463 -57 l 1,0,1
EndSplineSet
Validated: 1
Substitution2: "sous-table 'c2sc' Capitales vers petites capitales lookups24" scedilla.smcp
LCarets2: 1 0
Position2: "sous-table 'cpsp' Chasses pour composition en capitales lookups0" dx=40 dy=0 dh=80 dv=0
Ligature2: "sous-table 'ccmp' Composition et d+AOkA-composition de glyphe (CJK) lookups10" S uni0327
Substitution2: "sous-table 'salt' Alternatives stylistiques dans Latin lookup 8" uni0218
EndChar

StartChar: T
Encoding: 54 84 36
Width: 1027
GlyphClass: 2
Flags: W
AnchorPoint: "Ancre-5" 998 1414 basechar 0
AnchorPoint: "Ancre-3" 998 -510 basechar 0
AnchorPoint: "Ancre-2" 998 1515 basechar 0
AnchorPoint: "Ancre-1" 499 0 basechar 0
AnchorPoint: "Ancre-0" 454 1414 basechar 0
LayerCount: 2
Fore
SplineSet
1173 1314 m 1,0,-1
 1151 1134 l 1,1,-1
 1148 1112 l 1,2,-1
 778 1112 l 1,3,-1
 619 0 l 1,4,-1
 379 0 l 1,5,-1
 534 1112 l 1,6,-1
 165 1112 l 1,7,-1
 186 1292 l 1,8,-1
 189 1314 l 1,9,-1
 1173 1314 l 1,0,-1
EndSplineSet
Validated: 1
Position2: "sous-table 'cpsp' Chasses pour composition en capitales lookups0" dx=40 dy=0 dh=80 dv=0
Substitution2: "sous-table 'sups' Exposant lookups25" T.superior
Substitution2: "sous-table 'c2sc' Capitales vers petites capitales lookups24" t.smcp
EndChar

StartChar: Tbar
Encoding: 295 358 37
Width: 1098
GlyphClass: 2
Flags: W
AnchorPoint: "Ancre-0" 454 1414 basechar 0
AnchorPoint: "Ancre-1" 499 0 basechar 0
AnchorPoint: "Ancre-2" 998 1515 basechar 0
AnchorPoint: "Ancre-3" 998 -510 basechar 0
AnchorPoint: "Ancre-5" 998 1414 basechar 0
LayerCount: 2
Fore
SplineSet
1173 1314 m 1,0,-1
 1151 1134 l 1,1,-1
 1148 1112 l 1,2,-1
 778 1112 l 1,3,-1
 733 806 l 1,4,-1
 1039 806 l 1,5,-1
 1023 671 l 1,6,-1
 1020 649 l 1,7,-1
 711 649 l 1,8,-1
 619 0 l 1,9,-1
 379 0 l 1,10,-1
 467 649 l 1,11,-1
 245 649 l 1,12,-1
 261 784 l 1,13,-1
 264 806 l 1,14,-1
 489 806 l 1,15,-1
 534 1112 l 1,16,-1
 165 1112 l 1,17,-1
 186 1292 l 1,18,-1
 189 1314 l 1,19,-1
 1173 1314 l 1,0,-1
EndSplineSet
Validated: 1
Substitution2: "sous-table 'c2sc' Capitales vers petites capitales lookups24" tbar.smcp
Position2: "sous-table 'cpsp' Chasses pour composition en capitales lookups0" dx=40 dy=0 dh=80 dv=0
EndChar

StartChar: U
Encoding: 55 85 38
Width: 1316
GlyphClass: 2
Flags: W
AnchorPoint: "Ancre-5" 1314 1414 basechar 0
AnchorPoint: "Ancre-3" 1314 -510 basechar 0
AnchorPoint: "Ancre-2" 1314 1515 basechar 0
AnchorPoint: "Ancre-1" 657 0 basechar 0
AnchorPoint: "Ancre-0" 587 1414 basechar 0
LayerCount: 2
Fore
SplineSet
406 460 m 0,0,1
 406 280 406 280 542 218 c 0,2,3
 596 194 596 194 669 194 c 0,4,5
 814 194 814 194 910 286 c 0,6,7
 1007 376 1007 376 1027 529 c 2,8,-1
 1134 1314 l 1,9,-1
 1353 1314 l 1,10,-1
 1252 518 l 2,11,12
 1223 283 1223 283 1067 139 c 0,13,14
 896 -15 896 -15 647 -15 c 0,15,16
 401 -15 401 -15 279 141 c 0,17,18
 185 261 185 261 185 437 c 0,19,20
 185 479 185 479 191 524 c 2,21,-1
 289 1292 l 1,22,-1
 292 1314 l 1,23,-1
 518 1314 l 1,24,-1
 410 524 l 2,25,26
 406 491 406 491 406 460 c 0,0,1
EndSplineSet
Validated: 1
Position2: "sous-table 'cpsp' Chasses pour composition en capitales lookups0" dx=40 dy=0 dh=80 dv=0
Substitution2: "sous-table 'sups' Exposant lookups25" U.superior
Substitution2: "sous-table 'c2sc' Capitales vers petites capitales lookups24" u.smcp
EndChar

StartChar: Uogonek
Encoding: 307 370 39
Width: 1316
GlyphClass: 2
Flags: W
AnchorPoint: "Ancre-5" 1314 1414 basechar 0
AnchorPoint: "Ancre-3" 1314 -510 basechar 0
AnchorPoint: "Ancre-2" 1314 1515 basechar 0
AnchorPoint: "Ancre-1" 657 -300 basechar 0
AnchorPoint: "Ancre-0" 587 1414 basechar 0
LayerCount: 2
Fore
SplineSet
827 -276 m 1,0,1
 729 -341 729 -341 630 -341 c 128,-1,2
 531 -341 531 -341 479.5 -300.5 c 128,-1,3
 428 -260 428 -260 428 -204 c 0,4,5
 428 -91 428 -91 536 -6 c 1,6,7
 369 24 369 24 278 141 c 0,8,9
 185 261 185 261 185 437 c 0,10,11
 185 479 185 479 191 524 c 2,12,-1
 289 1292 l 1,13,-1
 292 1314 l 1,14,-1
 518 1314 l 1,15,-1
 410 489 l 2,16,17
 406 455 406 455 406 418 c 0,18,19
 406 233 406 233 542 169 c 0,20,21
 596 144 596 144 669 144 c 0,22,23
 815 144 815 144 910 241 c 0,24,25
 1007 336 1007 336 1027 494 c 2,26,-1
 1134 1314 l 1,27,-1
 1353 1314 l 1,28,-1
 1252 518 l 2,29,30
 1223 285 1223 285 1067 139 c 0,31,32
 987 67 987 67 880 27 c 1,33,-1
 878 26 l 1,34,-1
 877 26 l 1,35,-1
 739 -9 l 1,36,37
 627 -67 627 -67 624 -148 c 0,38,39
 624 -167 624 -167 636 -178 c 128,-1,40
 648 -189 648 -189 668 -189 c 0,41,42
 706 -189 706 -189 726 -177.5 c 128,-1,43
 746 -166 746 -166 760 -166 c 0,44,45
 795 -166 795 -166 803 -197 c 2,46,-1
 827 -276 l 1,0,1
EndSplineSet
Validated: 1
Substitution2: "sous-table 'c2sc' Capitales vers petites capitales lookups24" uogonek.smcp
LCarets2: 1 0
Position2: "sous-table 'cpsp' Chasses pour composition en capitales lookups0" dx=40 dy=0 dh=80 dv=0
Ligature2: "sous-table 'ccmp' Composition et d+AOkA-composition de glyphe (CJK) lookups10" U uni0328
EndChar

StartChar: V
Encoding: 56 86 40
Width: 1180
GlyphClass: 2
Flags: W
AnchorPoint: "Ancre-5" 1162 1414 basechar 0
AnchorPoint: "Ancre-3" 1162 -510 basechar 0
AnchorPoint: "Ancre-2" 1162 1515 basechar 0
AnchorPoint: "Ancre-1" 581 10 basechar 0
AnchorPoint: "Ancre-0" 536 1414 basechar 0
LayerCount: 2
Fore
SplineSet
167 1314 m 1,0,-1
 335 1314 l 2,1,2
 397 1314 397 1314 411 1252 c 2,3,-1
 614 331 l 2,4,5
 619 310 619 310 624 286 c 1,6,7
 636 313 636 313 649 337 c 1,8,-1
 1095 1256 l 2,9,10
 1124 1314 1124 1314 1181 1314 c 2,11,-1
 1357 1314 l 1,12,-1
 690 14 l 1,13,-1
 682 -0 l 1,14,-1
 480 0 l 1,15,-1
 167 1314 l 1,0,-1
EndSplineSet
Validated: 1
Position2: "sous-table 'cpsp' Chasses pour composition en capitales lookups0" dx=40 dy=0 dh=80 dv=0
Substitution2: "sous-table 'sups' Exposant lookups25" V.superior
Substitution2: "sous-table 'c2sc' Capitales vers petites capitales lookups24" v.smcp
EndChar

StartChar: W
Encoding: 57 87 41
Width: 1843
GlyphClass: 2
Flags: W
AnchorPoint: "Ancre-5" 1822 1414 basechar 0
AnchorPoint: "Ancre-3" 1822 -510 basechar 0
AnchorPoint: "Ancre-2" 1822 1515 basechar 0
AnchorPoint: "Ancre-1" 911 10 basechar 0
AnchorPoint: "Ancre-0" 827 1414 basechar 0
LayerCount: 2
Fore
SplineSet
172 1314 m 1,0,-1
 344 1314 l 2,1,2
 374 1314 374 1314 395 1296.5 c 128,-1,3
 416 1279 416 1279 420 1250 c 2,4,-1
 556 345 l 1,5,6
 557 348 557 348 559 351 c 2,7,-1
 975 1256 l 2,8,9
 985 1279 985 1279 1010.5 1296.5 c 128,-1,10
 1036 1314 1036 1314 1068 1314 c 2,11,-1
 1117 1314 l 2,12,13
 1151 1314 1151 1314 1172.5 1296.5 c 128,-1,14
 1194 1279 1194 1279 1200 1252 c 2,15,-1
 1376 346 l 1,16,17
 1377 348 1377 348 1377 349 c 2,18,-1
 1753 1255 l 2,19,20
 1764 1279 1764 1279 1787.5 1296.5 c 128,-1,21
 1811 1314 1811 1314 1840 1314 c 2,22,-1
 2010 1314 l 1,23,-1
 1440 16 l 1,24,-1
 1434 0 l 1,25,-1
 1227 0 l 1,26,-1
 1045 990 l 1,27,-1
 594 0 l 1,28,-1
 390 0 l 1,29,-1
 177 1286 l 1,30,-1
 172 1314 l 1,0,-1
EndSplineSet
Validated: 1
Position2: "sous-table 'cpsp' Chasses pour composition en capitales lookups0" dx=40 dy=0 dh=80 dv=0
Substitution2: "sous-table 'sups' Exposant lookups25" W.superior
Substitution2: "sous-table 'c2sc' Capitales vers petites capitales lookups24" w.smcp
EndChar

StartChar: X
Encoding: 58 88 42
Width: 1088
GlyphClass: 2
Flags: W
AnchorPoint: "Ancre-5" 1063 1414 basechar 0
AnchorPoint: "Ancre-3" 1063 -510 basechar 0
AnchorPoint: "Ancre-2" 1063 1515 basechar 0
AnchorPoint: "Ancre-1" 532 10 basechar 0
AnchorPoint: "Ancre-0" 499 1414 basechar 0
LayerCount: 2
Fore
SplineSet
10 0 m 1,0,-1
 495 676 l 1,1,-1
 210 1280 l 1,2,-1
 195 1314 l 1,3,-1
 412 1314 l 2,4,5
 455 1314 455 1314 477 1276 c 1,6,-1
 478 1275 l 1,7,-1
 478 1273 l 1,8,-1
 679 807 l 1,9,-1
 999 1275 l 1,10,11
 1028 1314 1028 1314 1063 1314 c 2,12,-1
 1272 1314 l 1,13,-1
 807 680 l 1,14,-1
 1098 33 l 1,15,-1
 1112 0 l 1,16,-1
 899 0 l 2,17,18
 851 0 851 0 829 48 c 1,19,-1
 828 49 l 1,20,-1
 828 50 l 1,21,-1
 623 538 l 1,22,-1
 286 45 l 1,23,24
 252 0 252 0 215 0 c 2,25,-1
 10 0 l 1,0,-1
EndSplineSet
Validated: 1
Position2: "sous-table 'cpsp' Chasses pour composition en capitales lookups0" dx=40 dy=0 dh=80 dv=0
Substitution2: "sous-table 'sups' Exposant lookups25" X.superior
Substitution2: "sous-table 'c2sc' Capitales vers petites capitales lookups24" x.smcp
EndChar

StartChar: Y
Encoding: 59 89 43
Width: 1028
GlyphClass: 2
Flags: W
AnchorPoint: "Ancre-5" 998 1414 basechar 0
AnchorPoint: "Ancre-3" 998 -510 basechar 0
AnchorPoint: "Ancre-2" 998 1515 basechar 0
AnchorPoint: "Ancre-1" 499 0 basechar 0
AnchorPoint: "Ancre-0" 446 1414 basechar 0
LayerCount: 2
Fore
SplineSet
1219 1314 m 1,0,-1
 698 522 l 1,1,-1
 626 0 l 1,2,-1
 386 0 l 1,3,-1
 459 525 l 1,4,-1
 161 1314 l 1,5,-1
 345 1314 l 2,6,7
 401 1314 401 1314 423 1256 c 1,8,-1
 424 1255 l 1,9,-1
 424 1254 l 1,10,-1
 585 748 l 1,11,12
 596 721 596 721 605 696 c 1,13,14
 621 723 621 723 642 752 c 1,15,-1
 937 1259 l 1,16,-1
 938 1260 l 1,17,18
 974 1314 974 1314 1024 1314 c 2,19,-1
 1219 1314 l 1,0,-1
EndSplineSet
Validated: 1
Position2: "sous-table 'cpsp' Chasses pour composition en capitales lookups0" dx=40 dy=0 dh=80 dv=0
Substitution2: "sous-table 'sups' Exposant lookups25" Y.superior
Substitution2: "sous-table 'c2sc' Capitales vers petites capitales lookups24" y.smcp
EndChar

StartChar: Z
Encoding: 60 90 44
Width: 989
GlyphClass: 2
Flags: W
AnchorPoint: "Ancre-5" 959 1414 basechar 0
AnchorPoint: "Ancre-3" 959 -510 basechar 0
AnchorPoint: "Ancre-2" 959 1515 basechar 0
AnchorPoint: "Ancre-1" 495 10 basechar 0
AnchorPoint: "Ancre-0" 497 1414 basechar 0
LayerCount: 2
Fore
SplineSet
1114 1314 m 1,0,-1
 1101 1223 l 2,1,2
 1096 1187 1096 1187 1072 1155 c 2,3,-1
 354 198 l 1,4,-1
 958 198 l 1,5,-1
 936 22 l 1,6,-1
 934 0 l 1,7,-1
 51 0 l 1,8,-1
 64 95 l 2,9,10
 70 128 70 128 91 156 c 2,11,-1
 808 1116 l 1,12,-1
 226 1116 l 1,13,-1
 248 1292 l 1,14,-1
 250 1314 l 1,15,-1
 1114 1314 l 1,0,-1
EndSplineSet
Validated: 1
Position2: "sous-table 'cpsp' Chasses pour composition en capitales lookups0" dx=40 dy=0 dh=80 dv=0
Substitution2: "sous-table 'sups' Exposant lookups25" Z.superior
Substitution2: "sous-table 'c2sc' Capitales vers petites capitales lookups24" z.smcp
EndChar

StartChar: a
Encoding: 67 97 45
Width: 1153
GlyphClass: 2
Flags: W
AnchorPoint: "Ancre-5" 961 1073 basechar 0
AnchorPoint: "Ancre-4" 840 522 basechar 0
AnchorPoint: "Ancre-3" 961 -510 basechar 0
AnchorPoint: "Ancre-2" 961 1466 basechar 0
AnchorPoint: "Ancre-1" 369 0 basechar 0
AnchorPoint: "Ancre-0" 519 1122 basechar 0
LayerCount: 2
Fore
SplineSet
742 76 m 2,0,-1
 742 87 l 1,1,-1
 752 197 l 1,2,3
 580 -14 580 -14 359 -14 c 0,4,5
 211 -14 211 -14 129.5 80 c 128,-1,6
 48 174 48 174 48 343.5 c 128,-1,7
 48 513 48 513 141 663 c 0,8,9
 283 892 283 892 577 965 c 0,10,11
 672 989 672 989 807 990 c 1,12,-1
 809 991 l 1,13,-1
 816 991 l 2,14,15
 939 991 939 991 1065 939 c 1,16,-1
 948 22 l 1,17,-1
 945 0 l 1,18,-1
 831 0 l 2,19,20
 792 0 792 0 767 20.5 c 128,-1,21
 742 41 742 41 742 76 c 2,0,-1
787 530 m 1,22,-1
 827 810 l 1,23,24
 791 814 791 814 723.5 814 c 128,-1,25
 656 814 656 814 568.5 778 c 128,-1,26
 481 742 481 742 415 682 c 0,27,28
 274 552 274 552 274 377 c 0,29,30
 274 274 274 274 312 228 c 128,-1,31
 350 182 350 182 431 182 c 0,32,33
 583 182 583 182 715 389 c 0,34,35
 755 453 755 453 787 530 c 1,22,-1
EndSplineSet
Validated: 1
Substitution2: "sous-table 'sups' Exposant lookups25" a.superior
Substitution2: "sous-table 'ordn' Ordinaux dans Latin lookup 39" a.superior
Substitution2: "sous-table 'smcp' Bas-de-casse vers petites capitales dans Latin lookup 0" a.smcp
EndChar

StartChar: aogonek
Encoding: 198 261 46
Width: 1153
GlyphClass: 2
Flags: W
AnchorPoint: "Ancre-5" 981 1122 basechar 0
AnchorPoint: "Ancre-4" 852 550 basechar 0
AnchorPoint: "Ancre-3" 981 -510 basechar 0
AnchorPoint: "Ancre-2" 981 1515 basechar 0
AnchorPoint: "Ancre-1" 378 0 basechar 0
AnchorPoint: "Ancre-0" 519 1122 basechar 0
LayerCount: 2
Fore
SplineSet
1003 -265 m 1,0,1
 912 -330 912 -330 815.5 -330 c 128,-1,2
 719 -330 719 -330 666.5 -290 c 128,-1,3
 614 -250 614 -250 613 -182 c 0,4,5
 613 -65 613 -65 758 27 c 1,6,7
 741 46 741 46 741 63.5 c 128,-1,8
 741 81 741 81 742 89 c 2,9,-1
 752 197 l 1,10,11
 580 -14 580 -14 359 -14 c 0,12,13
 211 -14 211 -14 129.5 80 c 128,-1,14
 48 174 48 174 48 343.5 c 128,-1,15
 48 513 48 513 141 663 c 0,16,17
 341 987 341 987 807 990 c 1,18,-1
 809 991 l 1,19,-1
 816 991 l 2,20,21
 939 991 939 991 1065 939 c 1,22,-1
 948 22 l 1,23,-1
 945 0 l 1,24,-1
 919 0 l 1,25,26
 852 -39 852 -39 823 -95 c 0,27,28
 811 -117 811 -117 811 -135 c 128,-1,29
 811 -153 811 -153 824.5 -165.5 c 128,-1,30
 838 -178 838 -178 856 -178 c 0,31,32
 895 -178 895 -178 911.5 -166.5 c 128,-1,33
 928 -155 928 -155 940.5 -155 c 128,-1,34
 953 -155 953 -155 965 -163.5 c 128,-1,35
 977 -172 977 -172 980 -186 c 1,36,-1
 1003 -265 l 1,0,1
787 530 m 1,37,-1
 827 810 l 1,38,39
 791 814 791 814 723.5 814 c 128,-1,40
 656 814 656 814 568.5 778 c 128,-1,41
 481 742 481 742 415 682 c 0,42,43
 274 552 274 552 274 377 c 0,44,45
 274 274 274 274 312 228 c 128,-1,46
 350 182 350 182 431 182 c 0,47,48
 583 182 583 182 715 389 c 0,49,50
 755 453 755 453 787 530 c 1,37,-1
EndSplineSet
Validated: 1
Substitution2: "sous-table 'smcp' Bas-de-casse vers petites capitales dans Latin lookup 0" aogonek.smcp
LCarets2: 1 0
Ligature2: "sous-table 'ccmp' Composition et d+AOkA-composition de glyphe (CJK) lookups10" a uni0328
EndChar

StartChar: ae
Encoding: 167 230 47
Width: 1645
GlyphClass: 2
Flags: W
AnchorPoint: "Ancre-5" 1583 1122 basechar 0
AnchorPoint: "Ancre-3" 1583 -510 basechar 0
AnchorPoint: "Ancre-2" 1583 1515 basechar 0
AnchorPoint: "Ancre-0" 863 1122 basechar 0
LayerCount: 2
Fore
SplineSet
149 829 m 1,0,1
 355 994 355 994 580 994 c 128,-1,2
 805 994 805 994 875 839 c 1,3,4
 1019 992 1019 992 1251 992 c 0,5,6
 1392 992 1392 992 1485.5 921 c 128,-1,7
 1579 850 1579 850 1579 743 c 0,8,9
 1579 539 1579 539 1221 470 c 0,10,11
 1097 447 1097 447 912 443 c 1,12,-1
 912 440 l 2,13,14
 912 174 912 174 1159 174 c 0,15,16
 1281 174 1281 174 1373 234 c 1,17,-1
 1418 264 l 2,18,19
 1472 301 1472 301 1502 301 c 128,-1,20
 1532 301 1532 301 1553 275 c 2,21,-1
 1613 204 l 1,22,-1
 1596 188 l 1,23,24
 1433 32 1433 32 1257 -2 c 0,25,26
 1194 -14 1194 -14 1094.5 -14 c 128,-1,27
 995 -14 995 -14 906.5 41 c 128,-1,28
 818 96 818 96 772 184 c 1,29,30
 674 46 674 46 486 2 c 0,31,32
 422 -13 422 -13 356 -14 c 1,33,-1
 355 -15 l 1,34,-1
 344 -15 l 1,35,36
 207 -14 207 -14 120.5 47 c 128,-1,37
 34 108 34 108 34 230 c 0,38,39
 34 474 34 474 407 555 c 0,40,41
 532 582 532 582 711 588 c 1,42,-1
 715 622 l 2,43,44
 719 649 719 649 719 672 c 0,45,46
 719 747 719 747 682.5 781.5 c 128,-1,47
 646 816 646 816 565 816 c 2,48,-1
 561 816 l 2,49,50
 464 816 464 816 376 770 c 0,51,52
 341 751 341 751 311.5 734.5 c 128,-1,53
 282 718 282 718 253 718 c 0,54,55
 203 718 203 718 182 762 c 2,56,-1
 149 829 l 1,0,1
248 265 m 0,57,58
 248 153 248 153 377.5 153 c 128,-1,59
 507 153 507 153 587.5 220.5 c 128,-1,60
 668 288 668 288 685 416 c 1,61,-1
 690 460 l 1,62,63
 248 441 248 441 248 265 c 0,57,58
1357 672 m 0,64,65
 1375 696 1375 696 1375 730 c 128,-1,66
 1375 764 1375 764 1339 790.5 c 128,-1,67
 1303 817 1303 817 1237 817 c 0,68,69
 1107 817 1107 817 1032 745.5 c 128,-1,70
 957 674 957 674 930 563 c 1,71,72
 1293 585 1293 585 1357 672 c 0,64,65
EndSplineSet
Validated: 1
Substitution2: "sous-table 'smcp' Bas-de-casse vers petites capitales dans Latin lookup 0" ae.smcp
EndChar

StartChar: b
Encoding: 68 98 48
Width: 1153
GlyphClass: 2
Flags: W
AnchorPoint: "Ancre-5" 1053 1492 basechar 0
AnchorPoint: "Ancre-3" 1053 -510 basechar 0
AnchorPoint: "Ancre-2" 1053 1515 basechar 0
AnchorPoint: "Ancre-1" 534 0 basechar 0
AnchorPoint: "Ancre-0" 534 1492 basechar 0
LayerCount: 2
Fore
SplineSet
713 14 m 0,0,1
 637 -14 637 -14 555 -14 c 0,2,3
 389 -14 389 -14 290 84 c 1,4,5
 274 16 274 16 236 4 c 0,6,7
 221 0 221 0 202 0 c 2,8,-1
 81 0 l 1,9,-1
 256 1400 l 1,10,-1
 259 1422 l 1,11,-1
 498 1422 l 1,12,-1
 413 799 l 1,13,14
 583 992 583 992 794 992 c 0,15,16
 941 992 941 992 1020 896.5 c 128,-1,17
 1099 801 1099 801 1099 627 c 0,18,19
 1099 385 1099 385 955 191 c 0,20,21
 860 66 860 66 713 14 c 0,0,1
364 461 m 1,22,-1
 332 243 l 1,23,24
 400 172 400 172 538.5 172 c 128,-1,25
 677 172 677 172 776 308 c 128,-1,26
 875 444 875 444 875 604 c 0,27,28
 875 706 875 706 835.5 754 c 128,-1,29
 796 802 796 802 711 802 c 128,-1,30
 626 802 626 802 526 708 c 128,-1,31
 426 614 426 614 364 461 c 1,22,-1
EndSplineSet
Validated: 1
Substitution2: "sous-table 'sups' Exposant lookups25" b.superior
Substitution2: "sous-table 'ordn' Ordinaux dans Latin lookup 39" b.superior
Substitution2: "sous-table 'smcp' Bas-de-casse vers petites capitales dans Latin lookup 0" b.smcp
EndChar

StartChar: c
Encoding: 69 99 49
Width: 952
GlyphClass: 2
Flags: W
AnchorPoint: "Ancre-5" 843 1073 basechar 0
AnchorPoint: "Ancre-3" 843 -510 basechar 0
AnchorPoint: "Ancre-2" 843 1466 basechar 0
AnchorPoint: "Ancre-1" 487 -3 basechar 0
AnchorPoint: "Ancre-0" 341 1122 basechar 0
LayerCount: 2
Fore
SplineSet
914 200 m 1,0,-1
 899 184 l 1,1,2
 751 23 751 23 584 -5 c 0,3,4
 524 -14 524 -14 438 -14 c 0,5,6
 261 -14 261 -14 159.5 98.5 c 128,-1,7
 58 211 58 211 58 394 c 0,8,9
 58 634 58 634 209 811 c 1,10,11
 370 992 370 992 632 992 c 0,12,13
 833 992 833 992 945 847 c 1,14,-1
 957 831 l 1,15,-1
 890 751 l 1,16,17
 868 723 868 723 841 723 c 128,-1,18
 814 723 814 723 793 741 c 0,19,20
 726 801 726 801 644 801 c 0,21,22
 488 801 488 801 386 685 c 128,-1,23
 284 569 284 569 284 402 c 128,-1,24
 284 235 284 235 404 189 c 0,25,26
 444 174 444 174 506 174 c 0,27,28
 638 174 638 174 746 271 c 0,29,30
 776 296 776 296 805.5 296 c 128,-1,31
 835 296 835 296 856 270 c 2,32,-1
 914 200 l 1,0,-1
EndSplineSet
Validated: 1
Substitution2: "sous-table 'smcp' Bas-de-casse vers petites capitales dans Latin lookup 0" c.smcp
Substitution2: "sous-table 'ordn' Ordinaux dans Latin lookup 39" c.superior
Substitution2: "sous-table 'sups' Exposant lookups25" c.superior
EndChar

StartChar: ccedilla
Encoding: 168 231 50
Width: 952
GlyphClass: 2
Flags: W
AnchorPoint: "Ancre-0" 341 1122 basechar 0
AnchorPoint: "Ancre-1" 500 -300 basechar 0
AnchorPoint: "Ancre-2" 866 1515 basechar 0
AnchorPoint: "Ancre-3" 866 -510 basechar 0
AnchorPoint: "Ancre-5" 866 1122 basechar 0
LayerCount: 2
Fore
SplineSet
190 -253 m 1,0,-1
 190 -251 l 1,1,2
 205 -220 205 -220 226.5 -220 c 128,-1,3
 248 -220 248 -220 256 -224 c 0,4,5
 289 -242 289 -242 322 -242 c 0,6,7
 382 -242 382 -242 387 -207 c 1,8,-1
 388 -206 l 1,9,-1
 388 -205 l 1,10,11
 393 -189 393 -189 362.5 -178.5 c 128,-1,12
 332 -168 332 -168 263 -159 c 1,13,-1
 231 -154 l 1,14,-1
 301 8 l 1,15,16
 58 101 58 101 58 394 c 0,17,18
 58 634 58 634 209 811 c 1,19,20
 370 992 370 992 632 992 c 0,21,22
 833 992 833 992 945 847 c 1,23,-1
 957 831 l 1,24,-1
 890 751 l 1,25,26
 868 723 868 723 841 723 c 128,-1,27
 814 723 814 723 793 741 c 0,28,29
 726 801 726 801 644 801 c 0,30,31
 488 801 488 801 386 685 c 128,-1,32
 284 569 284 569 284 402 c 128,-1,33
 284 235 284 235 404 189 c 0,34,35
 444 174 444 174 506 174 c 0,36,37
 638 174 638 174 746 271 c 0,38,39
 776 296 776 296 805.5 296 c 128,-1,40
 835 296 835 296 856 270 c 2,41,-1
 914 200 l 1,42,-1
 899 184 l 1,43,44
 751 23 751 23 584 -5 c 0,45,46
 532 -13 532 -13 460 -14 c 1,47,-1
 441 -57 l 1,48,49
 591 -94 591 -94 591 -196 c 0,50,51
 591 -281 591 -281 501 -331 c 0,52,53
 427 -371 427 -371 320 -371 c 0,54,55
 239 -371 239 -371 179 -338 c 2,56,-1
 159 -327 l 1,57,-1
 190 -253 l 1,0,-1
EndSplineSet
Validated: 1
Substitution2: "sous-table 'smcp' Bas-de-casse vers petites capitales dans Latin lookup 0" ccedilla.smcp
LCarets2: 1 0
Ligature2: "sous-table 'ccmp' Composition et d+AOkA-composition de glyphe (CJK) lookups10" c uni0327
EndChar

StartChar: c_h.dlig
Encoding: 2514 -1 51
Width: 1962
GlyphClass: 3
Flags: W
LayerCount: 2
Fore
SplineSet
910 0 m 1,0,-1
 1086 1356 l 1,1,2
 1046 1370 1046 1370 1002 1370 c 0,3,4
 896 1370 896 1370 837 1307 c 128,-1,5
 778 1244 778 1244 778 1166 c 0,6,7
 778 1009 778 1009 894 911 c 1,8,-1
 917 892 l 1,9,-1
 894 876 l 1,10,-1
 912 855 l 1,11,-1
 842 776 l 1,12,13
 819 748 819 748 790.5 748 c 128,-1,14
 762 748 762 748 740 766 c 0,15,16
 670 826 670 826 595 826 c 0,17,18
 454 826 454 826 360 706 c 0,19,20
 266 585 266 585 265 409 c 0,21,22
 265 236 265 236 377 189 c 0,23,24
 414 174 414 174 470 174 c 0,25,26
 585 174 585 174 692 271 c 0,27,28
 722 296 722 296 753.5 296 c 128,-1,29
 785 296 785 296 807 270 c 2,30,-1
 867 200 l 1,31,-1
 852 184 l 2,32,33
 700 23 700 23 541 -5 c 0,34,35
 487 -14 487 -14 410 -14 c 0,36,37
 240 -14 240 -14 139.5 101 c 128,-1,38
 39 216 39 216 39 403 c 0,39,40
 40 649 40 649 193 833 c 128,-1,41
 346 1017 346 1017 584 1017 c 0,42,43
 625 1017 625 1017 664 1011 c 1,44,45
 640 1075 640 1075 639 1138 c 0,46,47
 639 1300 639 1300 754 1404.5 c 128,-1,48
 869 1509 869 1509 1051 1509 c 2,49,-1
 1057 1509 l 1,50,51
 1179 1508 1179 1508 1321 1431 c 0,52,53
 1339 1421 1339 1421 1356 1421 c 2,54,-1
 1463 1421 l 1,55,-1
 1319 1351 l 1,56,-1
 1253 847 l 1,57,58
 1314 914 1314 914 1401.5 965.5 c 128,-1,59
 1489 1017 1489 1017 1582 1017 c 0,60,61
 1746 1017 1746 1017 1815 911 c 0,62,63
 1865 835 1865 835 1865 713 c 0,64,65
 1865 674 1865 674 1860 630 c 2,66,-1
 1787 22 l 1,67,-1
 1784 -0 l 1,68,-1
 1557 0 l 1,69,-1
 1635 651 l 2,70,71
 1640 687 1640 687 1640 731 c 128,-1,72
 1640 775 1640 775 1620 811.5 c 128,-1,73
 1600 848 1600 848 1524.5 848 c 128,-1,74
 1449 848 1449 848 1357.5 762 c 128,-1,75
 1266 676 1266 676 1211 536 c 1,76,-1
 1147 22 l 1,77,-1
 1144 0 l 1,78,-1
 910 0 l 1,0,-1
EndSplineSet
Validated: 1
Ligature2: "sous-table 'dlig' Ligatures facultatives  dans Latin lookup 36" c h
EndChar

StartChar: c_k.dlig
Encoding: 2515 -1 52
Width: 1840
GlyphClass: 3
Flags: W
LayerCount: 2
Fore
SplineSet
896 881 m 1,0,-1
 918 856 l 1,1,-1
 848 776 l 1,2,3
 825 748 825 748 797 748 c 128,-1,4
 769 748 769 748 747 766 c 0,5,6
 677 826 677 826 601 826 c 0,7,8
 459 826 459 826 365.5 705 c 128,-1,9
 272 584 272 584 272 410.5 c 128,-1,10
 272 237 272 237 383 189 c 0,11,12
 419 174 419 174 476 174 c 0,13,14
 587 174 587 174 699 271 c 0,15,16
 729 296 729 296 760 296 c 128,-1,17
 791 296 791 296 813 270 c 2,18,-1
 873 200 l 1,19,-1
 858 184 l 1,20,21
 705 23 705 23 547 -5 c 0,22,23
 492 -14 492 -14 414 -14 c 0,24,25
 247 -14 247 -14 146.5 101 c 128,-1,26
 46 216 46 216 46 403 c 0,27,28
 46 649 46 649 199 833 c 128,-1,29
 352 1017 352 1017 591 1017 c 0,30,31
 630 1017 630 1017 666 1012 c 1,32,33
 643 1076 643 1076 643 1138 c 0,34,35
 643 1302 643 1302 756 1405.5 c 128,-1,36
 869 1509 869 1509 1051 1509 c 0,37,38
 1152 1508 1152 1508 1246 1461 c 0,39,40
 1279 1445 1279 1445 1302.5 1433 c 128,-1,41
 1326 1421 1326 1421 1343 1421 c 2,42,-1
 1447 1421 l 1,43,-1
 1323 1359 l 1,44,-1
 1224 611 l 1,45,-1
 1226 611 l 2,46,47
 1251 611 1251 611 1270 630 c 2,48,-1
 1603 961 l 2,49,50
 1644 1003 1644 1003 1691 1003 c 2,51,-1
 1905 1003 l 1,52,-1
 1484 578 l 2,53,54
 1464 558 1464 558 1443 543 c 1,55,56
 1460 525 1460 525 1477 500 c 2,57,-1
 1794 -0 l 1,58,-1
 1598 0 l 2,59,60
 1542 0 1542 0 1513 43 c 2,61,-1
 1259 422 l 2,62,63
 1250 435 1250 435 1244 439 c 0,64,65
 1237 442 1237 442 1215 442 c 2,66,-1
 1203 442 l 1,67,-1
 1147 21 l 1,68,-1
 1144 -0 l 1,69,-1
 912 0 l 1,70,-1
 1090 1350 l 1,71,72
 1055 1370 1055 1370 1005 1370 c 0,73,74
 899 1370 899 1370 840.5 1306 c 128,-1,75
 782 1242 782 1242 781 1165 c 0,76,77
 781 1010 781 1010 890 911 c 1,78,-1
 912 892 l 1,79,-1
 896 881 l 1,0,-1
EndSplineSet
Validated: 1
Ligature2: "sous-table 'dlig' Ligatures facultatives  dans Latin lookup 36" c k
EndChar

StartChar: c_t.dlig
Encoding: 2516 -1 53
Width: 1621
GlyphClass: 3
Flags: W
LayerCount: 2
Fore
SplineSet
1259 1254 m 0,0,1
 1259 1385 1259 1385 1093 1385 c 0,2,3
 979 1384 979 1384 887 1316 c 0,4,5
 763 1225 763 1225 763 1093 c 0,6,7
 763 1028 763 1028 802 970 c 1,8,9
 872 936 872 936 942 855 c 1,10,-1
 871 776 l 1,11,12
 848 748 848 748 820 748 c 128,-1,13
 792 748 792 748 769 766 c 0,14,15
 699 826 699 826 622 826 c 0,16,17
 478 826 478 826 384 705 c 128,-1,18
 290 584 290 584 290 410.5 c 128,-1,19
 290 237 290 237 402 189 c 0,20,21
 440 174 440 174 496 174 c 0,22,23
 609 174 609 174 721 271 c 0,24,25
 751 296 751 296 782.5 296 c 128,-1,26
 814 296 814 296 836 270 c 2,27,-1
 897 200 l 1,28,-1
 881 184 l 1,29,30
 726 23 726 23 567 -5 c 0,31,32
 512 -14 512 -14 433.5 -14 c 128,-1,33
 355 -14 355 -14 283 17 c 128,-1,34
 211 48 211 48 162 104 c 0,35,36
 64 216 64 216 64 403 c 0,37,38
 64 649 64 649 217 833 c 128,-1,39
 370 1017 370 1017 612 1017 c 2,40,-1
 631 1017 l 1,41,42
 622 1053 622 1053 622 1103 c 128,-1,43
 622 1153 622 1153 649 1220 c 0,44,45
 698 1345 698 1345 820.5 1426.5 c 128,-1,46
 943 1508 943 1508 1114 1508 c 128,-1,47
 1285 1508 1285 1508 1358.5 1422 c 128,-1,48
 1432 1336 1432 1336 1432 1229 c 0,49,50
 1432 1206 1432 1206 1429 1183 c 2,51,-1
 1400 968 l 1,52,-1
 1659 968 l 1,53,-1
 1641 817 l 1,54,-1
 1638 795 l 1,55,-1
 1378 795 l 1,56,-1
 1307 263 l 2,57,58
 1305 250 1305 250 1305 229 c 128,-1,59
 1305 208 1305 208 1320 190 c 0,60,61
 1336 172 1336 172 1362 172 c 0,62,63
 1414 172 1414 172 1454 208 c 0,64,65
 1471 220 1471 220 1494 220.5 c 128,-1,66
 1517 221 1517 221 1532 190 c 2,67,-1
 1579 92 l 1,68,-1
 1564 79 l 2,69,70
 1456 -15 1456 -15 1329 -15 c 128,-1,71
 1202 -15 1202 -15 1137 40 c 128,-1,72
 1072 95 1072 95 1072 198 c 0,73,74
 1072 224 1072 224 1076 254 c 2,75,-1
 1148 795 l 1,76,-1
 1064 795 l 2,77,78
 1007 795 1007 795 1007 848 c 2,79,-1
 1007 857 l 1,80,-1
 1015 922 l 1,81,-1
 1018 940 l 1,82,-1
 1178 959 l 1,83,-1
 1240 1153 l 2,84,85
 1259 1210 1259 1210 1259 1254 c 0,0,1
EndSplineSet
Validated: 1
Ligature2: "sous-table 'dlig' Ligatures facultatives  dans Latin lookup 36" c t
EndChar

StartChar: ccedilla_t.dlig
Encoding: 2517 -1 54
Width: 1621
GlyphClass: 3
Flags: W
LayerCount: 2
Fore
SplineSet
286 390 m 0,0,1
 286 149 286 149 491 149 c 0,2,3
 587 149 587 149 664 205 c 0,4,5
 695 227 695 227 721 249 c 128,-1,6
 747 271 747 271 778.5 271 c 128,-1,7
 810 271 810 271 832 245 c 2,8,-1
 893 175 l 1,9,-1
 878 159 l 1,10,11
 789 70 789 70 711 29 c 128,-1,12
 633 -12 633 -12 544 -24 c 1,13,-1
 536 -43 l 1,14,15
 669 -82 669 -82 669 -174 c 0,16,17
 669 -250 669 -250 599 -295 c 128,-1,18
 529 -340 529 -340 434 -340 c 2,19,-1
 433 -340 l 2,20,21
 340 -340 340 -340 274 -305 c 1,22,-1
 254 -294 l 1,23,-1
 286 -221 l 2,24,25
 300 -190 300 -190 324 -190 c 128,-1,26
 348 -190 348 -190 362 -198 c 0,27,28
 400 -218 400 -218 422 -218 c 0,29,30
 444 -218 444 -218 459 -204 c 0,31,32
 476 -190 476 -190 476 -173 c 0,33,34
 476 -141 476 -141 360 -129 c 1,35,-1
 327 -124 l 1,36,-1
 375 -13 l 1,37,38
 231 9 231 9 149 110 c 0,39,40
 60 221 60 221 60 400 c 0,41,42
 60 647 60 647 213 832 c 128,-1,43
 366 1017 366 1017 608 1017 c 0,44,45
 638 1017 638 1017 670 1013 c 1,46,47
 651 1067 651 1067 651 1125 c 0,48,49
 651 1285 651 1285 769 1396.5 c 128,-1,50
 887 1508 887 1508 1076 1508 c 128,-1,51
 1265 1508 1265 1508 1338.5 1421.5 c 128,-1,52
 1412 1335 1412 1335 1412 1229 c 0,53,54
 1412 1206 1412 1206 1409 1183 c 2,55,-1
 1382 983 l 1,56,-1
 1645 983 l 1,57,-1
 1627 832 l 1,58,-1
 1624 810 l 1,59,-1
 1359 810 l 1,60,-1
 1287 242 l 2,61,62
 1285 228 1285 228 1285 206.5 c 128,-1,63
 1285 185 1285 185 1300 166.5 c 128,-1,64
 1315 148 1315 148 1341.5 148 c 128,-1,65
 1368 148 1368 148 1384 154 c 0,66,67
 1417 167 1417 167 1434 181 c 128,-1,68
 1451 195 1451 195 1473.5 195 c 128,-1,69
 1496 195 1496 195 1511 165 c 2,70,-1
 1562 67 l 1,71,-1
 1547 54 l 2,72,73
 1439 -40 1439 -40 1310 -40 c 0,74,75
 1051 -40 1051 -40 1051 183 c 0,76,77
 1051 208 1051 208 1054 237 c 2,78,-1
 1128 810 l 1,79,-1
 1045 810 l 2,80,81
 986 810 986 810 986 865 c 2,82,-1
 986 873 l 1,83,-1
 995 937 l 1,84,-1
 997 956 l 1,85,-1
 1167 976 l 1,86,87
 1225 1116 1225 1116 1232 1160.5 c 128,-1,88
 1239 1205 1239 1205 1239 1229 c 2,89,-1
 1239 1238 l 2,90,91
 1239 1386 1239 1386 1095 1386 c 0,92,93
 946 1386 946 1386 868 1311.5 c 128,-1,94
 790 1237 790 1237 790 1133 c 0,95,96
 790 1078 790 1078 818 1017.5 c 128,-1,97
 846 957 846 957 900 912 c 1,98,-1
 923 892 l 1,99,-1
 912 884 l 1,100,-1
 939 856 l 1,101,-1
 867 775 l 2,102,103
 843 748 843 748 815.5 748 c 128,-1,104
 788 748 788 748 766 766 c 0,105,106
 696 826 696 826 618 826 c 0,107,108
 474 826 474 826 380 700 c 128,-1,109
 286 574 286 574 286 390 c 0,0,1
EndSplineSet
Validated: 1
Ligature2: "sous-table 'dlig' Ligatures facultatives  dans Latin lookup 36" ccedilla t
EndChar

StartChar: d
Encoding: 70 100 55
Width: 1153
GlyphClass: 2
Flags: W
AnchorPoint: "Ancre-5" 1056 1492 basechar 0
AnchorPoint: "Ancre-3" 1056 -510 basechar 0
AnchorPoint: "Ancre-2" 1056 1515 basechar 0
AnchorPoint: "Ancre-1" 337 0 basechar 0
AnchorPoint: "Ancre-0" 675 1492 basechar 0
LayerCount: 2
Fore
SplineSet
738 76 m 2,0,-1
 738 87 l 1,1,-1
 748 198 l 1,2,3
 632 57 632 57 487 8 c 0,4,5
 423 -14 423 -14 357 -14 c 0,6,7
 211 -14 211 -14 131.5 81.5 c 128,-1,8
 52 177 52 177 52 352 c 0,9,10
 52 596 52 596 197 787 c 0,11,12
 292 912 292 912 437 964 c 0,13,14
 512 992 512 992 593 992 c 0,15,16
 739 992 739 992 838 913 c 1,17,-1
 905 1422 l 1,18,-1
 1127 1422 l 1,19,-1
 949 22 l 1,20,-1
 946 0 l 1,21,-1
 827 0 l 2,22,23
 788 0 788 0 763 20.5 c 128,-1,24
 738 41 738 41 738 76 c 2,0,-1
782 518 m 1,25,-1
 813 736 l 1,26,27
 746 807 746 807 622 807 c 2,28,-1
 618 807 l 2,29,30
 521 807 521 807 440 742 c 0,31,32
 323 650 323 650 287 476 c 0,33,34
 276 423 276 423 276 348 c 128,-1,35
 276 273 276 273 315.5 224.5 c 128,-1,36
 355 176 355 176 438.5 176 c 128,-1,37
 522 176 522 176 620.5 271 c 128,-1,38
 719 366 719 366 782 518 c 1,25,-1
EndSplineSet
Validated: 1
Substitution2: "sous-table 'smcp' Bas-de-casse vers petites capitales dans Latin lookup 0" d.smcp
Substitution2: "sous-table 'ordn' Ordinaux dans Latin lookup 39" d.superior
Substitution2: "sous-table 'sups' Exposant lookups25" d.superior
EndChar

StartChar: dcroat
Encoding: 210 273 57
Width: 1228
GlyphClass: 2
Flags: W
AnchorPoint: "Ancre-0" 527 1492 basechar 0
AnchorPoint: "Ancre-1" 369 0 basechar 0
AnchorPoint: "Ancre-2" 1217 1515 basechar 0
AnchorPoint: "Ancre-3" 1217 -510 basechar 0
AnchorPoint: "Ancre-5" 1217 1492 basechar 0
LayerCount: 2
Fore
SplineSet
819 215 m 1,0,1
 629 -14 629 -14 391 -14 c 0,2,3
 229 -14 229 -14 142.5 82.5 c 128,-1,4
 56 179 56 179 56 358 c 0,5,6
 56 599 56 599 212 781 c 1,7,8
 382 972 382 972 631 972 c 0,9,10
 793 972 793 972 901 888 c 1,11,-1
 923 1053 l 1,12,-1
 761 1053 l 2,13,14
 723 1053 723 1053 698 1071.5 c 128,-1,15
 673 1090 673 1090 673 1111.5 c 128,-1,16
 673 1133 673 1133 674 1144 c 2,17,-1
 682 1190 l 1,18,-1
 685 1211 l 1,19,-1
 943 1211 l 1,20,-1
 971 1422 l 1,21,-1
 1200 1422 l 1,22,-1
 1174 1211 l 1,23,-1
 1319 1211 l 1,24,-1
 1305 1053 l 1,25,-1
 1154 1053 l 1,26,-1
 1015 0 l 1,27,-1
 894 0 l 2,28,29
 854 0 854 0 830 20.5 c 128,-1,30
 806 41 806 41 806 77 c 2,31,-1
 806 87 l 1,32,-1
 819 215 l 1,0,1
850 523 m 1,33,-1
 878 715 l 1,34,35
 799 786 799 786 646.5 786 c 128,-1,36
 494 786 494 786 387 660.5 c 128,-1,37
 280 535 280 535 279 376 c 0,38,39
 279 275 279 275 324.5 225.5 c 128,-1,40
 370 176 370 176 466.5 176 c 128,-1,41
 563 176 563 176 672.5 272 c 128,-1,42
 782 368 782 368 850 523 c 1,33,-1
EndSplineSet
Validated: 1
Substitution2: "sous-table 'smcp' Bas-de-casse vers petites capitales dans Latin lookup 0" dcroat.smcp
EndChar

StartChar: eth
Encoding: 177 240 58
Width: 1176
GlyphClass: 2
Flags: W
LayerCount: 2
Fore
SplineSet
855 1157 m 1,0,1
 1097 937 1097 937 1097 581 c 0,2,3
 1097 152 1097 152 811 29 c 0,4,5
 708 -13 708 -13 586 -13 c 0,6,7
 464 -12 464 -12 371 20 c 0,8,9
 186 85 186 85 111 260 c 0,10,11
 75 346 75 346 75 445 c 0,12,13
 75 641 75 641 198 768 c 0,14,15
 328 902 328 902 554 902 c 0,16,17
 741 902 741 902 866 802 c 1,18,19
 819 955 819 955 671 1047 c 1,20,-1
 468 912 l 1,21,-1
 415 990 l 2,22,23
 401 1011 401 1011 401 1030 c 0,24,25
 401 1061 401 1061 438 1086 c 1,26,-1
 505 1127 l 1,27,28
 443 1149 443 1149 343 1173 c 0,29,30
 308 1181 308 1181 293 1204.5 c 128,-1,31
 278 1228 278 1228 278 1248 c 128,-1,32
 278 1268 278 1268 285 1288 c 2,33,-1
 313 1369 l 1,34,-1
 335 1366 l 1,35,36
 549 1335 549 1335 710 1251 c 1,37,-1
 871 1358 l 1,38,-1
 893 1374 l 1,39,-1
 942 1295 l 2,40,41
 959 1269 959 1269 952 1243 c 128,-1,42
 945 1217 945 1217 921 1201 c 2,43,-1
 855 1157 l 1,0,1
587 173 m 128,-1,45
 715 173 715 173 796 267 c 0,46,47
 876 363 876 363 882 563 c 1,48,49
 832 695 832 695 700 743 c 0,50,51
 653 759 653 759 585.5 759 c 128,-1,52
 518 759 518 759 464 737 c 0,53,54
 300 670 300 670 300 474 c 0,55,56
 300 330 300 330 379.5 251.5 c 128,-1,44
 459 173 459 173 587 173 c 128,-1,45
EndSplineSet
Validated: 1
Substitution2: "sous-table 'smcp' Bas-de-casse vers petites capitales dans Latin lookup 0" eth.smcp
EndChar

StartChar: e
Encoding: 71 101 59
Width: 1078
GlyphClass: 2
Flags: W
AnchorPoint: "Ancre-5" 998 1073 basechar 0
AnchorPoint: "Ancre-4" 843 698 basechar 0
AnchorPoint: "Ancre-3" 998 -510 basechar 0
AnchorPoint: "Ancre-2" 998 1466 basechar 0
AnchorPoint: "Ancre-1" 506 0 basechar 0
AnchorPoint: "Ancre-0" 437 1122 basechar 0
LayerCount: 2
Fore
SplineSet
280 415 m 1,0,-1
 280 406 l 2,1,2
 280 286 280 286 342.5 230 c 128,-1,3
 405 174 405 174 550 174 c 128,-1,4
 695 174 695 174 836 276 c 0,5,6
 869 301 869 301 900.5 301 c 128,-1,7
 932 301 932 301 955 275 c 1,8,-1
 1014 204 l 1,9,-1
 997 188 l 2,10,11
 883 81 883 81 803 45 c 0,12,13
 658 -14 658 -14 527 -14 c 0,14,15
 287 -14 287 -14 173 98.5 c 128,-1,16
 59 211 59 211 59 398 c 0,17,18
 59 631 59 631 217 810 c 1,19,20
 385 991 385 991 670 991 c 2,21,-1
 673 991 l 2,22,23
 844 991 844 991 933 918.5 c 128,-1,24
 1022 846 1022 846 1022 766.5 c 128,-1,25
 1022 687 1022 687 990 632 c 0,26,27
 940 545 940 545 775 492 c 1,28,29
 592 440 592 440 280 415 c 1,0,-1
809 698 m 0,30,31
 815 715 815 715 815 731 c 0,32,33
 814 784 814 784 739 807 c 0,34,35
 707 816 707 816 650 816 c 0,36,37
 523 816 523 816 433.5 737 c 128,-1,38
 344 658 344 658 306 548 c 1,39,40
 542 573 542 573 668 613 c 128,-1,41
 794 653 794 653 809 698 c 0,30,31
EndSplineSet
Validated: 1
Substitution2: "sous-table 'smcp' Bas-de-casse vers petites capitales dans Latin lookup 0" e.smcp
Substitution2: "sous-table 'ordn' Ordinaux dans Latin lookup 39" e.superior
Substitution2: "sous-table 'sups' Exposant lookups25" e.superior
EndChar

StartChar: eogonek
Encoding: 218 281 60
Width: 1078
GlyphClass: 2
Flags: W
AnchorPoint: "Ancre-5" 1019 1122 basechar 0
AnchorPoint: "Ancre-4" 824 700 basechar 0
AnchorPoint: "Ancre-3" 1019 -510 basechar 0
AnchorPoint: "Ancre-2" 1019 1515 basechar 0
AnchorPoint: "Ancre-1" 485 -320 basechar 0
AnchorPoint: "Ancre-0" 437 1122 basechar 0
LayerCount: 2
Fore
SplineSet
792 -265 m 1,0,1
 701 -330 701 -330 594 -330 c 128,-1,2
 487 -330 487 -330 433.5 -290 c 128,-1,3
 380 -250 380 -250 380 -169.5 c 128,-1,4
 380 -89 380 -89 469 -13 c 1,5,6
 277 -4 277 -4 168 103 c 128,-1,7
 59 210 59 210 59 398 c 0,8,9
 59 631 59 631 217 810 c 1,10,11
 385 991 385 991 670 991 c 2,12,-1
 673 991 l 2,13,14
 844 991 844 991 933 918.5 c 128,-1,15
 1022 846 1022 846 1022 766.5 c 128,-1,16
 1022 687 1022 687 990 632 c 0,17,18
 940 545 940 545 775 492 c 1,19,20
 592 440 592 440 280 415 c 1,21,-1
 280 406 l 2,22,23
 280 286 280 286 342.5 230 c 128,-1,24
 405 174 405 174 550 174 c 128,-1,25
 695 174 695 174 836 276 c 0,26,27
 869 301 869 301 900.5 301 c 128,-1,28
 932 301 932 301 955 275 c 1,29,-1
 1014 204 l 1,30,-1
 997 188 l 2,31,32
 867 66 867 66 739 20 c 1,33,-1
 706 3 l 1,34,35
 624 -37 624 -37 594 -94 c 0,36,37
 583 -112 583 -112 583.5 -133.5 c 128,-1,38
 584 -155 584 -155 596.5 -166.5 c 128,-1,39
 609 -178 609 -178 630 -178 c 0,40,41
 670 -178 670 -178 690 -166.5 c 128,-1,42
 710 -155 710 -155 724 -155 c 0,43,44
 760 -155 760 -155 768 -186 c 2,45,-1
 792 -265 l 1,0,1
809 698 m 0,46,47
 815 715 815 715 815 731 c 0,48,49
 814 784 814 784 739 807 c 0,50,51
 707 816 707 816 650 816 c 0,52,53
 523 816 523 816 433.5 737 c 128,-1,54
 344 658 344 658 306 548 c 1,55,56
 542 573 542 573 668 613 c 128,-1,57
 794 653 794 653 809 698 c 0,46,47
EndSplineSet
Validated: 1
Substitution2: "sous-table 'smcp' Bas-de-casse vers petites capitales dans Latin lookup 0" eogonek.smcp
LCarets2: 1 0
Ligature2: "sous-table 'ccmp' Composition et d+AOkA-composition de glyphe (CJK) lookups10" e uni0328
EndChar

StartChar: f
Encoding: 72 102 61
Width: 725
GlyphClass: 2
Flags: W
AnchorPoint: "Ancre-1" 344 -123 basechar 0
AnchorPoint: "Ancre-3" 786 -510 basechar 0
AnchorPoint: "Ancre-0" 337 1538 basechar 0
AnchorPoint: "Ancre-2" 786 1515 basechar 0
AnchorPoint: "Ancre-5" 786 1538 basechar 0
LayerCount: 2
Fore
SplineSet
58 861 m 2,0,-1
 58 870 l 1,1,-1
 65 938 l 1,2,-1
 67 960 l 1,3,-1
 219 960 l 1,4,-1
 228 1031 l 1,5,6
 249 1205 249 1205 373 1305 c 1,7,8
 509 1404 509 1404 686 1404 c 0,9,10
 751 1404 751 1404 810 1384 c 2,11,-1
 830 1377 l 1,12,-1
 811 1265 l 2,13,14
 808 1249 808 1249 795.5 1238 c 128,-1,15
 783 1227 783 1227 770 1226 c 128,-1,16
 757 1225 757 1225 685.5 1225 c 128,-1,17
 614 1225 614 1225 556 1177 c 1,18,19
 491 1129 491 1129 475 1020 c 1,20,-1
 465 960 l 1,21,-1
 752 960 l 1,22,-1
 733 805 l 1,23,-1
 730 783 l 1,24,-1
 445 783 l 1,25,-1
 331 44 l 1,26,-1
 330 42 l 1,27,-1
 330 41 l 1,28,-1
 276 -147 l 1,29,30
 255 -240 255 -240 165 -240 c 2,31,-1
 67 -240 l 1,32,-1
 198 792 l 1,33,-1
 118 802 l 2,34,35
 92 805 92 805 75 820.5 c 128,-1,36
 58 836 58 836 58 861 c 2,0,-1
EndSplineSet
Validated: 1
Substitution2: "sous-table 'smcp' Bas-de-casse vers petites capitales dans Latin lookup 0" f.smcp
Substitution2: "sous-table 'ordn' Ordinaux dans Latin lookup 39" f.superior
Substitution2: "sous-table 'sups' Exposant lookups25" f.superior
EndChar

StartChar: f_b.liga
Encoding: 2518 -1 62
Width: 1768
GlyphClass: 3
Flags: W
LayerCount: 2
Fore
SplineSet
103 885 m 2,0,-1
 103 894 l 1,1,-1
 111 961 l 1,2,-1
 114 983 l 1,3,-1
 262 983 l 1,4,-1
 269 1038 l 2,5,6
 306 1326 306 1326 579 1411 c 0,7,8
 675 1441 675 1441 758 1441 c 128,-1,9
 841 1441 841 1441 874.5 1438 c 128,-1,10
 908 1435 908 1435 941 1432.5 c 128,-1,11
 974 1430 974 1430 1008.5 1426.5 c 128,-1,12
 1043 1423 1043 1423 1082 1422 c 1,13,-1
 1140 1422 l 1,14,-1
 1140 1421 l 1,15,-1
 1222 1421 l 1,16,-1
 1135 1365 l 1,17,-1
 1063 824 l 1,18,19
 1224 1017 1224 1017 1423 1017 c 0,20,21
 1567 1017 1567 1017 1646.5 919.5 c 128,-1,22
 1726 822 1726 822 1726 642 c 0,23,24
 1726 394 1726 394 1581 195 c 0,25,26
 1488 66 1488 66 1348 13 c 0,27,28
 1276 -14 1276 -14 1198 -14 c 0,29,30
 1041 -14 1041 -14 943 84 c 1,31,32
 932 36 932 36 912.5 18 c 128,-1,33
 893 0 893 0 851 0 c 2,34,-1
 724 0 l 1,35,-1
 890 1266 l 1,36,37
 826 1279 826 1279 774 1279 c 0,38,39
 655 1279 655 1279 580 1211.5 c 128,-1,40
 505 1144 505 1144 490 1031 c 1,41,-1
 483 983 l 1,42,-1
 764 983 l 1,43,-1
 741 810 l 1,44,-1
 467 810 l 1,45,-1
 362 21 l 1,46,-1
 360 -0 l 1,47,-1
 139 0 l 1,48,-1
 241 816 l 1,49,-1
 166 825 l 1,50,51
 103 834 103 834 103 885 c 2,0,-1
1017 473 m 1,52,-1
 986 245 l 1,53,54
 1051 172 1051 172 1182 172 c 128,-1,55
 1313 172 1313 172 1407.5 313 c 128,-1,56
 1502 454 1502 454 1502 625 c 0,57,58
 1502 827 1502 827 1346 827 c 0,59,60
 1265 827 1265 827 1171 729 c 128,-1,61
 1077 631 1077 631 1017 473 c 1,52,-1
EndSplineSet
Validated: 1
Ligature2: "sous-table 'liga' Ligatures standard dans Latin lookup 37" f b
EndChar

StartChar: f_f_b.liga
Encoding: 2519 -1 63
Width: 2338
GlyphClass: 3
Flags: W
LayerCount: 2
Fore
SplineSet
103 885 m 2,0,-1
 103 894 l 1,1,-1
 111 961 l 1,2,-1
 114 983 l 1,3,-1
 262 983 l 1,4,-1
 269 1039 l 2,5,6
 290 1204 290 1204 396 1297.5 c 128,-1,7
 502 1391 502 1391 667 1391 c 0,8,9
 732 1391 732 1391 793 1371 c 1,10,-1
 814 1365 l 1,11,-1
 795 1264 l 2,12,13
 787 1224 787 1224 744 1222 c 0,14,15
 720 1220 720 1220 679 1220 c 0,16,17
 594 1220 594 1220 546.5 1174 c 128,-1,18
 499 1128 499 1128 486 1028 c 1,19,-1
 479 983 l 1,20,-1
 857 983 l 1,21,-1
 864 1038 l 1,22,23
 904 1326 904 1326 1173 1411 c 0,24,25
 1266 1441 1266 1441 1347.5 1441 c 128,-1,26
 1429 1441 1429 1441 1462 1438 c 128,-1,27
 1495 1435 1495 1435 1527.5 1432.5 c 128,-1,28
 1560 1430 1560 1430 1593 1426.5 c 128,-1,29
 1626 1423 1626 1423 1664 1422 c 1,30,-1
 1718 1422 l 1,31,-1
 1718 1421 l 1,32,-1
 1802 1421 l 1,33,-1
 1714 1364 l 1,34,-1
 1643 824 l 1,35,36
 1801 1017 1801 1017 1997 1017 c 0,37,38
 2140 1017 2140 1017 2219.5 919.5 c 128,-1,39
 2299 822 2299 822 2299 642 c 0,40,41
 2299 394 2299 394 2154 195 c 0,42,43
 2060 66 2060 66 1923 13 c 0,44,45
 1852 -14 1852 -14 1775 -14 c 0,46,47
 1620 -14 1620 -14 1524 84 c 1,48,49
 1513 37 1513 37 1499 23 c 0,50,51
 1476 0 1476 0 1434 0 c 2,52,-1
 1309 0 l 1,53,-1
 1472 1267 l 1,54,55
 1413 1279 1413 1279 1362 1279 c 0,56,57
 1247 1279 1247 1279 1174 1212.5 c 128,-1,58
 1101 1146 1101 1146 1084 1031 c 1,59,-1
 1078 983 l 1,60,-1
 1352 983 l 1,61,-1
 1333 832 l 1,62,-1
 1330 810 l 1,63,-1
 1062 810 l 1,64,-1
 959 21 l 1,65,-1
 956 0 l 1,66,-1
 729 0 l 1,67,-1
 835 835 l 1,68,-1
 465 835 l 1,69,-1
 361 22 l 1,70,-1
 358 -0 l 1,71,-1
 138 0 l 1,72,-1
 240 816 l 1,73,-1
 166 825 l 1,74,75
 103 834 103 834 103 885 c 2,0,-1
2075 625 m 0,76,77
 2075 827 2075 827 1921 827 c 0,78,79
 1840 827 1840 827 1747.5 729 c 128,-1,80
 1655 631 1655 631 1597 473 c 1,81,-1
 1567 245 l 1,82,83
 1631 172 1631 172 1759.5 172 c 128,-1,84
 1888 172 1888 172 1981 313 c 128,-1,85
 2074 454 2074 454 2075 625 c 0,76,77
EndSplineSet
Validated: 1
Ligature2: "sous-table 'liga' Ligatures standard dans Latin lookup 37" f f b
EndChar

StartChar: uniFB00
Encoding: 2490 64256 64
Width: 1295
GlyphClass: 3
Flags: W
LayerCount: 2
Fore
SplineSet
103 863 m 2,0,-1
 103 871 l 1,1,-1
 111 937 l 1,2,-1
 114 958 l 1,3,-1
 260 958 l 1,4,-1
 267 1017 l 2,5,6
 288 1191 288 1191 397 1289.5 c 128,-1,7
 506 1388 506 1388 676 1388 c 0,8,9
 741 1388 741 1388 804 1368 c 2,10,-1
 825 1361 l 1,11,-1
 805 1255 l 2,12,13
 797 1212 797 1212 753 1210 c 0,14,15
 729 1208 729 1208 685 1208 c 0,16,17
 598 1208 598 1208 550 1159.5 c 128,-1,18
 502 1111 502 1111 488 1006 c 1,19,-1
 481 958 l 1,20,-1
 868 958 l 1,21,-1
 879 1042 l 2,22,23
 901 1215 901 1215 1012 1314.5 c 128,-1,24
 1123 1414 1123 1414 1285 1414 c 0,25,26
 1346 1414 1346 1414 1425 1385 c 1,27,-1
 1407 1280 l 1,28,29
 1401 1236 1401 1236 1359 1234 c 1,30,-1
 1358 1234 l 1,31,32
 1335 1233 1335 1233 1295 1233 c 0,33,34
 1135 1233 1135 1233 1106 1030 c 2,35,-1
 1096 958 l 1,36,-1
 1364 958 l 1,37,-1
 1347 807 l 1,38,-1
 1344 785 l 1,39,-1
 1080 785 l 1,40,-1
 973 22 l 1,41,-1
 971 0 l 1,42,-1
 736 0 l 1,43,-1
 846 835 l 1,44,-1
 466 835 l 1,45,-1
 359 22 l 1,46,-1
 357 -0 l 1,47,-1
 136 0 l 1,48,-1
 238 796 l 1,49,-1
 165 804 l 1,50,51
 103 813 103 813 103 863 c 2,0,-1
EndSplineSet
Validated: 1
Ligature2: "sous-table 'liga' Ligatures standard dans Latin lookup 37" f f
EndChar

StartChar: f_h.liga
Encoding: 2520 -1 65
Width: 1767
GlyphClass: 3
Flags: W
LayerCount: 2
Fore
SplineSet
103 885 m 2,0,-1
 103 894 l 1,1,-1
 111 961 l 1,2,-1
 114 983 l 1,3,-1
 261 983 l 1,4,-1
 268 1038 l 1,5,6
 306 1326 306 1326 580 1411 c 0,7,8
 676 1441 676 1441 758.5 1441 c 128,-1,9
 841 1441 841 1441 874.5 1438 c 128,-1,10
 908 1435 908 1435 941.5 1432.5 c 128,-1,11
 975 1430 975 1430 1008.5 1426.5 c 128,-1,12
 1042 1423 1042 1423 1081 1422 c 1,13,-1
 1130 1422 l 1,14,-1
 1130 1421 l 1,15,-1
 1225 1421 l 1,16,-1
 1124 1359 l 1,17,-1
 1058 846 l 1,18,19
 1120 913 1120 913 1208 965 c 128,-1,20
 1296 1017 1296 1017 1389 1017 c 0,21,22
 1553 1017 1553 1017 1623 911 c 0,23,24
 1673 835 1673 835 1673 714 c 0,25,26
 1673 675 1673 675 1668 630 c 2,27,-1
 1595 22 l 1,28,-1
 1592 -0 l 1,29,-1
 1364 0 l 1,30,-1
 1443 632 l 2,31,32
 1448 667 1448 667 1448 709.5 c 128,-1,33
 1448 752 1448 752 1428 787.5 c 128,-1,34
 1408 823 1408 823 1331.5 823 c 128,-1,35
 1255 823 1255 823 1163 739.5 c 128,-1,36
 1071 656 1071 656 1015 520 c 1,37,-1
 951 22 l 1,38,-1
 948 -0 l 1,39,-1
 712 0 l 1,40,-1
 878 1269 l 1,41,42
 828 1279 828 1279 777 1279 c 0,43,44
 655 1279 655 1279 579 1211.5 c 128,-1,45
 503 1144 503 1144 489 1031 c 2,46,-1
 483 983 l 1,47,-1
 763 983 l 1,48,-1
 744 832 l 1,49,-1
 741 810 l 1,50,-1
 467 810 l 1,51,-1
 361 22 l 1,52,-1
 359 -0 l 1,53,-1
 138 0 l 1,54,-1
 240 816 l 1,55,-1
 166 825 l 1,56,57
 103 834 103 834 103 885 c 2,0,-1
EndSplineSet
Validated: 1
Ligature2: "sous-table 'liga' Ligatures standard dans Latin lookup 37" f h
EndChar

StartChar: f_f_h.liga
Encoding: 2521 -1 66
Width: 2337
GlyphClass: 3
Flags: W
LayerCount: 2
Fore
SplineSet
103 885 m 2,0,-1
 103 894 l 1,1,-1
 111 961 l 1,2,-1
 114 983 l 1,3,-1
 262 983 l 1,4,-1
 269 1039 l 2,5,6
 290 1204 290 1204 396 1297.5 c 128,-1,7
 502 1391 502 1391 668 1391 c 0,8,9
 733 1391 733 1391 794 1371 c 1,10,-1
 814 1365 l 1,11,-1
 795 1264 l 2,12,13
 787 1224 787 1224 744 1222 c 0,14,15
 720 1220 720 1220 679 1220 c 0,16,17
 594 1220 594 1220 546.5 1174 c 128,-1,18
 499 1128 499 1128 486 1028 c 1,19,-1
 479 983 l 1,20,-1
 856 983 l 1,21,-1
 864 1038 l 1,22,23
 903 1326 903 1326 1173 1411 c 0,24,25
 1267 1441 1267 1441 1348.5 1441 c 128,-1,26
 1430 1441 1430 1441 1463 1438 c 128,-1,27
 1496 1435 1496 1435 1528.5 1432.5 c 128,-1,28
 1561 1430 1561 1430 1594 1426.5 c 128,-1,29
 1627 1423 1627 1423 1664 1422 c 1,30,-1
 1721 1422 l 1,31,-1
 1721 1421 l 1,32,-1
 1802 1421 l 1,33,-1
 1717 1366 l 1,34,-1
 1650 846 l 1,35,36
 1710 913 1710 913 1797 965 c 128,-1,37
 1884 1017 1884 1017 1976 1017 c 0,38,39
 2140 1017 2140 1017 2209 911 c 0,40,41
 2259 835 2259 835 2259 714 c 0,42,43
 2259 675 2259 675 2254 630 c 2,44,-1
 2181 22 l 1,45,-1
 2178 -0 l 1,46,-1
 1951 0 l 1,47,-1
 2029 632 l 2,48,49
 2034 667 2034 667 2034 709.5 c 128,-1,50
 2034 752 2034 752 2014 787.5 c 128,-1,51
 1994 823 1994 823 1919 823 c 128,-1,52
 1844 823 1844 823 1753.5 739.5 c 128,-1,53
 1663 656 1663 656 1608 520 c 1,54,-1
 1545 22 l 1,55,-1
 1542 0 l 1,56,-1
 1310 0 l 1,57,-1
 1472 1267 l 1,58,59
 1412 1279 1412 1279 1361 1279 c 0,60,61
 1246 1279 1246 1279 1173 1212 c 128,-1,62
 1100 1145 1100 1145 1084 1031 c 2,63,-1
 1077 983 l 1,64,-1
 1351 983 l 1,65,-1
 1333 832 l 1,66,-1
 1331 810 l 1,67,-1
 1062 810 l 1,68,-1
 955 0 l 1,69,-1
 728 0 l 1,70,-1
 834 835 l 1,71,-1
 465 835 l 1,72,-1
 361 22 l 1,73,-1
 358 -0 l 1,74,-1
 137 0 l 1,75,-1
 240 816 l 1,76,-1
 166 825 l 1,77,78
 103 834 103 834 103 885 c 2,0,-1
EndSplineSet
Validated: 1
Ligature2: "sous-table 'liga' Ligatures standard dans Latin lookup 37" f f h
EndChar

StartChar: uniFB01
Encoding: 2491 64257 67
Width: 1184
GlyphClass: 3
Flags: W
LayerCount: 2
Fore
SplineSet
871 1240 m 2,0,-1
 858 1240 l 1,1,2
 841 1241 841 1241 820 1241 c 0,3,4
 643 1241 643 1241 557.5 1178 c 128,-1,5
 472 1115 472 1115 452 981 c 2,6,-1
 449 960 l 1,7,-1
 1068 960 l 1,8,-1
 947 22 l 1,9,-1
 944 -0 l 1,10,-1
 712 0 l 1,11,-1
 824 832 l 1,12,-1
 433 832 l 1,13,-1
 327 53 l 1,14,-1
 327 50 l 1,15,-1
 275 -148 l 1,16,17
 254 -241 254 -241 164 -241 c 2,18,-1
 67 -241 l 1,19,-1
 198 791 l 1,20,-1
 120 800 l 1,21,22
 57 809 57 809 57 859 c 2,23,-1
 57 867 l 1,24,-1
 64 938 l 1,25,-1
 66 960 l 1,26,-1
 220 960 l 1,27,-1
 224 990 l 1,28,29
 242 1139 242 1139 322 1239 c 1,30,31
 408 1339 408 1339 558 1385 c 0,32,33
 658 1416 658 1416 774 1416 c 0,34,35
 886 1416 886 1416 962 1388 c 1,36,-1
 943 1279 l 1,37,38
 935 1240 935 1240 871 1240 c 2,0,-1
EndSplineSet
Validated: 1
Ligature2: "sous-table 'liga' Ligatures standard dans Latin lookup 37" f i
EndChar

StartChar: f_igrave.liga
Encoding: 2522 -1 68
Width: 1184
GlyphClass: 3
Flags: W
LayerCount: 2
Fore
SplineSet
103 885 m 2,0,-1
 103 894 l 1,1,-1
 112 962 l 1,2,-1
 115 983 l 1,3,-1
 266 983 l 1,4,-1
 270 1014 l 2,5,6
 288 1157 288 1157 370 1252 c 1,7,8
 458 1347 458 1347 587.5 1383.5 c 128,-1,9
 717 1420 717 1420 818.5 1420 c 128,-1,10
 920 1420 920 1420 956 1399.5 c 128,-1,11
 992 1379 992 1379 1009 1345 c 2,12,-1
 1138 1091 l 1,13,-1
 1001 1091 l 2,14,15
 954 1091 954 1091 926 1125 c 1,16,-1
 815 1252 l 1,17,18
 670 1245 670 1245 592.5 1186 c 128,-1,19
 515 1127 515 1127 498 1004 c 2,20,-1
 495 983 l 1,21,-1
 1113 983 l 1,22,-1
 992 22 l 1,23,-1
 989 0 l 1,24,-1
 756 0 l 1,25,-1
 869 835 l 1,26,-1
 478 835 l 1,27,-1
 365 -0 l 1,28,-1
 143 0 l 1,29,-1
 245 816 l 1,30,-1
 166 825 l 1,31,32
 103 834 103 834 103 885 c 2,0,-1
EndSplineSet
Validated: 1
LCarets2: 1 0
Ligature2: "sous-table 'liga' Ligatures standard dans Latin lookup 37" f igrave
EndChar

StartChar: f_icircumflex.liga
Encoding: 2523 -1 69
Width: 1184
GlyphClass: 3
Flags: W
LayerCount: 2
Fore
SplineSet
103 885 m 2,0,-1
 103 894 l 1,1,-1
 112 962 l 1,2,-1
 115 983 l 1,3,-1
 266 983 l 1,4,-1
 279 1084 l 2,5,6
 300 1243 300 1243 392 1327 c 0,7,8
 488 1411 488 1411 638 1411 c 0,9,10
 690 1411 690 1411 725 1401 c 2,11,-1
 746 1395 l 1,12,-1
 733 1281 l 2,13,14
 727 1236 727 1236 639 1236 c 0,15,16
 528 1236 528 1236 505 1076 c 1,17,-1
 491 983 l 1,18,-1
 1113 983 l 1,19,-1
 984 -0 l 1,20,-1
 746 0 l 1,21,-1
 856 835 l 1,22,-1
 475 835 l 1,23,-1
 364 -0 l 1,24,-1
 143 0 l 1,25,-1
 245 816 l 1,26,-1
 166 825 l 1,27,28
 103 834 103 834 103 885 c 2,0,-1
1322 1103 m 1,29,-1
 1164 1103 l 2,30,31
 1130 1103 1130 1103 1110 1126 c 2,32,-1
 1013 1242 l 1,33,-1
 881 1124 l 1,34,-1
 880 1123 l 1,35,-1
 879 1123 l 1,36,37
 853 1103 853 1103 820 1103 c 2,38,-1
 633 1103 l 1,39,-1
 930 1407 l 1,40,-1
 1122 1407 l 1,41,-1
 1322 1103 l 1,29,-1
EndSplineSet
Validated: 1
Ligature2: "sous-table 'liga' Ligatures standard dans Latin lookup 37" f icircumflex
EndChar

StartChar: f_itilde.liga
Encoding: 2524 -1 70
Width: 1203
GlyphClass: 3
Flags: W
LayerCount: 2
Fore
SplineSet
459 885 m 2,0,-1
 459 894 l 1,1,-1
 468 962 l 1,2,-1
 471 983 l 1,3,-1
 622 983 l 1,4,-1
 635 1084 l 2,5,6
 656 1243 656 1243 749 1327 c 0,7,8
 848 1411 848 1411 1003 1411 c 0,9,10
 1057 1411 1057 1411 1093 1401 c 2,11,-1
 1115 1395 l 1,12,-1
 1112 1393 l 1,13,-1
 1101 1330 l 1,14,15
 1110 1326 1110 1326 1126 1326 c 0,16,17
 1163 1326 1163 1326 1175 1389 c 1,18,-1
 1178 1410 l 1,19,-1
 1335 1410 l 1,20,-1
 1332 1382 l 2,21,22
 1321 1279 1321 1279 1261.5 1210 c 128,-1,23
 1202 1141 1202 1141 1125.5 1141 c 128,-1,24
 1049 1141 1049 1141 1001 1176 c 0,25,26
 925 1231 925 1231 914 1235 c 1,27,28
 877 1189 877 1189 865 1091 c 2,29,-1
 851 983 l 1,30,-1
 1469 983 l 1,31,-1
 1349 22 l 1,32,-1
 1346 -0 l 1,33,-1
 1114 0 l 1,34,-1
 1227 835 l 1,35,-1
 835 835 l 1,36,-1
 721 0 l 1,37,-1
 499 0 l 1,38,-1
 601 816 l 1,39,-1
 522 825 l 1,40,41
 459 834 459 834 459 885 c 2,0,-1
EndSplineSet
Validated: 1
LCarets2: 1 0
Ligature2: "sous-table 'liga' Ligatures standard dans Latin lookup 37" f itilde
EndChar

StartChar: f_idieresis.liga
Encoding: 2525 -1 71
Width: 1203
GlyphClass: 3
Flags: W
LayerCount: 2
Fore
SplineSet
155 885 m 2,0,-1
 155 894 l 1,1,-1
 164 962 l 1,2,-1
 167 983 l 1,3,-1
 318 983 l 1,4,-1
 331 1084 l 2,5,6
 352 1243 352 1243 444 1327 c 0,7,8
 541 1411 541 1411 692 1411 c 0,9,10
 745 1411 745 1411 780 1401 c 2,11,-1
 801 1395 l 1,12,-1
 799 1376 l 1,13,-1
 795 1345 l 1,14,15
 822 1355 822 1355 866 1355 c 128,-1,16
 910 1355 910 1355 947.5 1321 c 128,-1,17
 985 1287 985 1287 985 1236 c 128,-1,18
 985 1185 985 1185 938 1146 c 128,-1,19
 891 1107 891 1107 834 1107 c 2,20,-1
 831 1107 l 2,21,22
 772 1107 772 1107 734 1139.5 c 128,-1,23
 696 1172 696 1172 696 1214 c 0,24,25
 696 1230 696 1230 699 1245 c 1,26,27
 640 1244 640 1244 605 1207.5 c 128,-1,28
 570 1171 570 1171 558 1079 c 1,29,-1
 544 983 l 1,30,-1
 1165 983 l 1,31,-1
 1043 22 l 1,32,-1
 1040 -0 l 1,33,-1
 801 0 l 1,34,-1
 911 835 l 1,35,-1
 528 835 l 1,36,-1
 416 -0 l 1,37,-1
 195 0 l 1,38,-1
 297 816 l 1,39,-1
 218 825 l 1,40,41
 155 834 155 834 155 885 c 2,0,-1
1168 1114 m 128,-1,43
 1113 1114 1113 1114 1077 1149 c 128,-1,44
 1041 1184 1041 1184 1041 1239 c 128,-1,45
 1041 1294 1041 1294 1086.5 1336 c 128,-1,46
 1132 1378 1132 1378 1186.5 1378 c 128,-1,47
 1241 1378 1241 1378 1276 1342 c 128,-1,48
 1311 1306 1311 1306 1311 1251.5 c 128,-1,49
 1311 1197 1311 1197 1267 1155.5 c 128,-1,42
 1223 1114 1223 1114 1168 1114 c 128,-1,43
EndSplineSet
Validated: 1
LCarets2: 1 0
Ligature2: "sous-table 'liga' Ligatures standard dans Latin lookup 37" f idieresis
EndChar

StartChar: f_imacron.liga
Encoding: 2526 -1 72
Width: 1203
GlyphClass: 3
Flags: W
LayerCount: 2
Fore
SplineSet
103 885 m 2,0,-1
 103 894 l 1,1,-1
 112 962 l 1,2,-1
 115 983 l 1,3,-1
 266 983 l 1,4,-1
 279 1084 l 2,5,6
 300 1243 300 1243 392 1327 c 0,7,8
 488 1411 488 1411 638 1411 c 0,9,10
 690 1411 690 1411 725 1401 c 2,11,-1
 746 1395 l 1,12,-1
 744 1374 l 1,13,-1
 738 1324 l 1,14,-1
 1319 1324 l 1,15,-1
 1302 1185 l 1,16,-1
 1299 1163 l 1,17,-1
 711 1163 l 1,18,-1
 714 1191 l 1,19,-1
 723 1259 l 1,20,21
 702 1236 702 1236 643.5 1236 c 128,-1,22
 585 1236 585 1236 551 1198.5 c 128,-1,23
 517 1161 517 1161 505 1076 c 2,24,-1
 491 983 l 1,25,-1
 1113 983 l 1,26,-1
 984 -0 l 1,27,-1
 746 0 l 1,28,-1
 856 835 l 1,29,-1
 475 835 l 1,30,-1
 364 -0 l 1,31,-1
 143 0 l 1,32,-1
 245 816 l 1,33,-1
 166 825 l 1,34,35
 103 834 103 834 103 885 c 2,0,-1
EndSplineSet
Validated: 1
Ligature2: "sous-table 'liga' Ligatures standard dans Latin lookup 37" f imacron
EndChar

StartChar: f_ibreve.liga
Encoding: 2527 -1 73
Width: 1203
GlyphClass: 3
Flags: W
LayerCount: 2
Fore
SplineSet
103 885 m 2,0,-1
 103 894 l 1,1,-1
 112 962 l 1,2,-1
 115 983 l 1,3,-1
 266 983 l 1,4,-1
 279 1084 l 2,5,6
 300 1243 300 1243 392 1327 c 0,7,8
 488 1411 488 1411 638 1411 c 0,9,10
 690 1411 690 1411 725 1401 c 2,11,-1
 746 1395 l 1,12,-1
 733 1281 l 2,13,14
 727 1236 727 1236 639 1236 c 0,15,16
 528 1236 528 1236 504 1076 c 1,17,-1
 491 983 l 1,18,-1
 1113 983 l 1,19,-1
 983 -0 l 1,20,-1
 746 0 l 1,21,-1
 855 835 l 1,22,-1
 475 835 l 1,23,-1
 364 -0 l 1,24,-1
 143 0 l 1,25,-1
 245 816 l 1,26,-1
 166 825 l 1,27,28
 103 834 103 834 103 885 c 2,0,-1
942 1297 m 0,29,30
 968 1259 968 1259 1027 1259 c 128,-1,31
 1086 1259 1086 1259 1116 1288.5 c 128,-1,32
 1146 1318 1146 1318 1154 1385 c 1,33,-1
 1157 1407 l 1,34,-1
 1328 1407 l 1,35,-1
 1324 1379 l 1,36,37
 1298 1185 1298 1185 1148 1121 c 0,38,39
 1093 1098 1093 1098 1013 1098 c 0,40,41
 857 1098 857 1098 797 1181 c 0,42,43
 752 1242 752 1242 751 1329 c 0,44,45
 751 1356 751 1356 756 1386 c 2,46,-1
 759 1407 l 1,47,-1
 941 1407 l 1,48,-1
 937 1379 l 2,49,50
 933 1354 933 1354 933 1336 c 0,51,52
 933 1308 933 1308 942 1297 c 0,29,30
EndSplineSet
Validated: 1
Ligature2: "sous-table 'liga' Ligatures standard dans Latin lookup 37" f ibreve
EndChar

StartChar: f_iogonek.liga
Encoding: 2528 -1 74
Width: 1184
GlyphClass: 3
Flags: W
LayerCount: 2
Fore
SplineSet
1035 -265 m 1,0,1
 944 -330 944 -330 847 -330 c 128,-1,2
 750 -330 750 -330 697 -290.5 c 128,-1,3
 644 -251 644 -251 643 -185 c 0,4,5
 643 -81 643 -81 759 2 c 1,6,-1
 871 813 l 1,7,-1
 479 813 l 1,8,-1
 365 -6 l 1,9,-1
 143 -6 l 1,10,-1
 245 814 l 1,11,-1
 166 824 l 1,12,13
 103 833 103 833 103 885 c 2,14,-1
 103 894 l 1,15,-1
 112 962 l 1,16,-1
 115 983 l 1,17,-1
 266 983 l 1,18,-1
 270 1014 l 2,19,20
 293 1198 293 1198 436 1309 c 0,21,22
 584 1420 584 1420 829 1420 c 0,23,24
 918 1420 918 1420 999 1390 c 1,25,-1
 980 1282 l 1,26,27
 971 1244 971 1244 931 1244 c 2,28,-1
 866 1244 l 2,29,30
 690 1244 690 1244 604 1184 c 0,31,32
 517 1124 517 1124 495 983 c 1,33,-1
 1113 983 l 1,34,-1
 993 18 l 1,35,-1
 990 -4 l 1,36,-1
 950 -4 l 1,37,38
 885 -40 885 -40 854 -96 c 0,39,40
 844 -113 844 -113 844.5 -134.5 c 128,-1,41
 845 -156 845 -156 856.5 -167 c 128,-1,42
 868 -178 868 -178 887 -178 c 0,43,44
 927 -178 927 -178 943.5 -166.5 c 128,-1,45
 960 -155 960 -155 972.5 -155 c 128,-1,46
 985 -155 985 -155 997 -163.5 c 128,-1,47
 1009 -172 1009 -172 1012 -186 c 1,48,-1
 1035 -265 l 1,0,1
EndSplineSet
Validated: 1
Ligature2: "sous-table 'liga' Ligatures standard dans Latin lookup 37" f iogonek
EndChar

StartChar: f_dotlessi.liga
Encoding: 2529 -1 75
Width: 1184
GlyphClass: 3
Flags: W
LayerCount: 2
Fore
SplineSet
103 885 m 2,0,-1
 103 894 l 1,1,-1
 112 962 l 1,2,-1
 115 983 l 1,3,-1
 266 983 l 1,4,-1
 279 1084 l 2,5,6
 300 1243 300 1243 393 1327 c 0,7,8
 492 1411 492 1411 647 1411 c 0,9,10
 701 1411 701 1411 737 1401 c 2,11,-1
 759 1395 l 1,12,-1
 745 1281 l 1,13,14
 738 1236 738 1236 648 1236 c 0,15,16
 533 1236 533 1236 509 1076 c 2,17,-1
 495 983 l 1,18,-1
 1113 983 l 1,19,-1
 993 22 l 1,20,-1
 990 -0 l 1,21,-1
 758 0 l 1,22,-1
 871 835 l 1,23,-1
 479 835 l 1,24,-1
 365 -0 l 1,25,-1
 143 0 l 1,26,-1
 245 816 l 1,27,-1
 166 825 l 1,28,29
 103 834 103 834 103 885 c 2,0,-1
EndSplineSet
Validated: 1
Ligature2: "sous-table 'liga' Ligatures standard dans Latin lookup 37" f dotlessi
EndChar

StartChar: uniFB03
Encoding: 2493 64259 76
Width: 1754
GlyphClass: 3
Flags: W
LayerCount: 2
Fore
SplineSet
103 863 m 2,0,-1
 103 871 l 1,1,-1
 111 937 l 1,2,-1
 114 958 l 1,3,-1
 264 958 l 1,4,-1
 271 1017 l 2,5,6
 292 1193 292 1193 401.5 1290.5 c 128,-1,7
 511 1388 511 1388 679 1388 c 0,8,9
 745 1388 745 1388 807 1368 c 2,10,-1
 828 1361 l 1,11,-1
 810 1255 l 1,12,13
 801 1208 801 1208 735 1208 c 2,14,-1
 679 1208 l 2,15,16
 606 1208 606 1208 554.5 1162.5 c 128,-1,17
 503 1117 503 1117 490 1006 c 2,18,-1
 484 958 l 1,19,-1
 875 958 l 1,20,-1
 879 991 l 1,21,22
 918 1293 918 1293 1200 1389 c 0,23,24
 1292 1420 1292 1420 1394 1420 c 128,-1,25
 1496 1420 1496 1420 1556 1397 c 1,26,-1
 1576 1390 l 1,27,-1
 1554 1282 l 1,28,29
 1545 1244 1545 1244 1507 1244 c 2,30,-1
 1422 1244 l 2,31,32
 1277 1244 1277 1244 1199 1179.5 c 128,-1,33
 1121 1115 1121 1115 1103 980 c 2,34,-1
 1100 958 l 1,35,-1
 1687 958 l 1,36,-1
 1670 807 l 1,37,-1
 1667 785 l 1,38,-1
 1666 785 l 1,39,-1
 1563 -0 l 1,40,-1
 1338 0 l 1,41,-1
 1446 835 l 1,42,-1
 1084 835 l 1,43,-1
 979 22 l 1,44,-1
 976 0 l 1,45,-1
 745 0 l 1,46,-1
 853 835 l 1,47,-1
 469 835 l 1,48,-1
 363 22 l 1,49,-1
 361 -0 l 1,50,-1
 140 0 l 1,51,-1
 242 795 l 1,52,-1
 166 804 l 1,53,54
 103 813 103 813 103 863 c 2,0,-1
EndSplineSet
Validated: 1
Ligature2: "sous-table 'liga' Ligatures standard dans Latin lookup 37" f f i
EndChar

StartChar: f_f_igrave.liga
Encoding: 2530 -1 77
Width: 1754
GlyphClass: 3
Flags: W
LayerCount: 2
Fore
SplineSet
1398 1247 m 1,0,-1
 1377 1247 l 1,1,2
 1250 1246 1250 1246 1187.5 1201.5 c 128,-1,3
 1125 1157 1125 1157 1110 1049 c 1,4,-1
 1100 983 l 1,5,-1
 1688 983 l 1,6,-1
 1567 22 l 1,7,-1
 1564 -0 l 1,8,-1
 1338 0 l 1,9,-1
 1446 835 l 1,10,-1
 1084 835 l 1,11,-1
 980 22 l 1,12,-1
 977 0 l 1,13,-1
 745 0 l 1,14,-1
 853 835 l 1,15,-1
 469 835 l 1,16,-1
 365 22 l 1,17,-1
 362 -0 l 1,18,-1
 141 0 l 1,19,-1
 243 816 l 1,20,-1
 166 825 l 1,21,22
 103 834 103 834 103 885 c 2,23,-1
 103 894 l 1,24,-1
 111 961 l 1,25,-1
 114 983 l 1,26,-1
 265 983 l 1,27,-1
 272 1039 l 2,28,29
 293 1203 293 1203 401 1296 c 0,30,31
 512 1389 512 1389 680 1389 c 0,32,33
 748 1389 748 1389 810 1370 c 1,34,-1
 831 1364 l 1,35,-1
 812 1264 l 2,36,37
 803 1223 803 1223 769 1221.5 c 128,-1,38
 735 1220 735 1220 691 1219 c 0,39,40
 603 1219 603 1219 554.5 1173.5 c 128,-1,41
 506 1128 506 1128 492 1028 c 2,42,-1
 486 983 l 1,43,-1
 875 983 l 1,44,-1
 886 1062 l 1,45,46
 909 1236 909 1236 1039.5 1325 c 128,-1,47
 1170 1414 1170 1414 1399 1414 c 0,48,49
 1478 1414 1478 1414 1522.5 1402 c 128,-1,50
 1567 1390 1567 1390 1583 1356 c 2,51,-1
 1700 1109 l 1,52,-1
 1716 1073 l 1,53,-1
 1580 1073 l 2,54,55
 1531 1073 1531 1073 1505 1109 c 1,56,-1
 1398 1247 l 1,0,-1
EndSplineSet
Validated: 1
Ligature2: "sous-table 'liga' Ligatures standard dans Latin lookup 37" f f igrave
EndChar

StartChar: f_f_icircumflex.liga
Encoding: 2531 -1 78
Width: 1754
GlyphClass: 3
Flags: W
LayerCount: 2
Fore
SplineSet
103 885 m 2,0,-1
 103 894 l 1,1,-1
 111 961 l 1,2,-1
 114 983 l 1,3,-1
 264 983 l 1,4,-1
 271 1039 l 2,5,6
 292 1205 292 1205 401 1296.5 c 128,-1,7
 510 1388 510 1388 677 1388 c 0,8,9
 743 1388 743 1388 804 1368 c 2,10,-1
 825 1361 l 1,11,-1
 807 1255 l 1,12,13
 798 1208 798 1208 732 1208 c 2,14,-1
 677 1208 l 2,15,16
 511 1208 511 1208 489 1026 c 1,17,-1
 483 983 l 1,18,-1
 872 983 l 1,19,-1
 885 1084 l 1,20,21
 907 1243 907 1243 997.5 1327 c 128,-1,22
 1088 1411 1088 1411 1233 1411 c 0,23,24
 1281 1411 1281 1411 1317 1401 c 2,25,-1
 1339 1395 l 1,26,-1
 1323 1282 l 2,27,28
 1317 1236 1317 1236 1235 1236 c 0,29,30
 1131 1236 1131 1236 1108 1076 c 2,31,-1
 1095 983 l 1,32,-1
 1687 983 l 1,33,-1
 1670 832 l 1,34,-1
 1667 810 l 1,35,-1
 1666 810 l 1,36,-1
 1564 22 l 1,37,-1
 1561 -0 l 1,38,-1
 1331 0 l 1,39,-1
 1439 835 l 1,40,-1
 1079 835 l 1,41,-1
 974 22 l 1,42,-1
 972 0 l 1,43,-1
 742 0 l 1,44,-1
 849 835 l 1,45,-1
 468 835 l 1,46,-1
 363 22 l 1,47,-1
 361 -0 l 1,48,-1
 140 0 l 1,49,-1
 242 816 l 1,50,-1
 166 825 l 1,51,52
 103 834 103 834 103 885 c 2,0,-1
1863 1103 m 1,53,-1
 1705 1103 l 2,54,55
 1671 1103 1671 1103 1651 1126 c 2,56,-1
 1556 1242 l 1,57,-1
 1428 1124 l 1,58,-1
 1427 1123 l 1,59,-1
 1426 1123 l 1,60,61
 1401 1103 1401 1103 1369 1103 c 2,62,-1
 1188 1103 l 1,63,-1
 1468 1399 l 1,64,-1
 1475 1407 l 1,65,-1
 1663 1407 l 1,66,-1
 1863 1103 l 1,53,-1
EndSplineSet
Validated: 1
Ligature2: "sous-table 'liga' Ligatures standard dans Latin lookup 37" f f icircumflex
EndChar

StartChar: f_f_itilde.liga
Encoding: 2532 -1 79
Width: 1773
GlyphClass: 3
Flags: W
LayerCount: 2
Fore
SplineSet
129 885 m 2,0,-1
 129 894 l 1,1,-1
 137 961 l 1,2,-1
 140 983 l 1,3,-1
 290 983 l 1,4,-1
 297 1039 l 2,5,6
 318 1205 318 1205 427 1296.5 c 128,-1,7
 536 1388 536 1388 703 1388 c 0,8,9
 769 1388 769 1388 830 1368 c 2,10,-1
 851 1361 l 1,11,-1
 833 1255 l 1,12,13
 824 1208 824 1208 758 1208 c 2,14,-1
 703 1208 l 2,15,16
 539 1208 539 1208 515 1026 c 1,17,-1
 510 983 l 1,18,-1
 898 983 l 1,19,-1
 912 1084 l 2,20,21
 934 1243 934 1243 1024.5 1327 c 128,-1,22
 1115 1411 1115 1411 1259 1411 c 0,23,24
 1307 1411 1307 1411 1344 1401 c 2,25,-1
 1365 1395 l 1,26,-1
 1363 1378 l 1,27,28
 1412 1415 1412 1415 1473 1415 c 128,-1,29
 1534 1415 1534 1415 1579 1382 c 128,-1,30
 1624 1349 1624 1349 1640 1337.5 c 128,-1,31
 1656 1326 1656 1326 1672 1326 c 0,32,33
 1710 1326 1710 1326 1719 1389 c 1,34,-1
 1723 1410 l 1,35,-1
 1875 1410 l 1,36,-1
 1872 1382 l 1,37,38
 1860 1285 1860 1285 1802.5 1221 c 128,-1,39
 1745 1157 1745 1157 1676 1156 c 1,40,-1
 1674 1156 l 2,41,42
 1607 1156 1607 1156 1561 1189 c 128,-1,43
 1515 1222 1515 1222 1498 1233.5 c 128,-1,44
 1481 1245 1481 1245 1464 1245 c 0,45,46
 1426 1245 1426 1245 1416 1182 c 1,47,-1
 1413 1160 l 1,48,-1
 1253 1160 l 1,49,-1
 1256 1188 l 2,50,51
 1259 1213 1259 1213 1265 1236 c 1,52,53
 1263 1236 1263 1236 1261 1236 c 0,54,55
 1157 1236 1157 1236 1134 1076 c 2,56,-1
 1121 983 l 1,57,-1
 1713 983 l 1,58,-1
 1696 832 l 1,59,-1
 1693 810 l 1,60,-1
 1692 810 l 1,61,-1
 1590 22 l 1,62,-1
 1587 -0 l 1,63,-1
 1358 0 l 1,64,-1
 1465 835 l 1,65,-1
 1105 835 l 1,66,-1
 1001 22 l 1,67,-1
 998 0 l 1,68,-1
 768 0 l 1,69,-1
 876 835 l 1,70,-1
 494 835 l 1,71,-1
 389 22 l 1,72,-1
 387 -0 l 1,73,-1
 166 0 l 1,74,-1
 268 816 l 1,75,-1
 192 825 l 1,76,77
 129 834 129 834 129 885 c 2,0,-1
EndSplineSet
Validated: 1
Ligature2: "sous-table 'liga' Ligatures standard dans Latin lookup 37" f f itilde
EndChar

StartChar: f_f_idieresis.liga
Encoding: 2533 -1 80
Width: 1773
GlyphClass: 3
Flags: W
LayerCount: 2
Fore
SplineSet
1752 1379 m 2,0,1
 1806 1379 1806 1379 1840.5 1342 c 128,-1,2
 1875 1305 1875 1305 1875 1250.5 c 128,-1,3
 1875 1196 1875 1196 1830 1153 c 0,4,5
 1784 1111 1784 1111 1731 1111 c 0,6,7
 1678 1112 1678 1112 1646 1148 c 0,8,9
 1613 1185 1613 1185 1612 1239 c 0,10,11
 1612 1292 1612 1292 1654 1336 c 0,12,13
 1695 1379 1695 1379 1749 1379 c 0,14,15
 1750 1379 1750 1379 1751 1379 c 2,16,-1
 1752 1379 l 2,0,1
129 885 m 2,17,-1
 129 894 l 1,18,-1
 137 961 l 1,19,-1
 140 983 l 1,20,-1
 290 983 l 1,21,-1
 297 1039 l 2,22,23
 318 1205 318 1205 427 1296.5 c 128,-1,24
 536 1388 536 1388 703 1388 c 0,25,26
 769 1388 769 1388 830 1368 c 2,27,-1
 851 1361 l 1,28,-1
 833 1255 l 1,29,30
 824 1208 824 1208 758 1208 c 2,31,-1
 703 1208 l 2,32,33
 539 1208 539 1208 515 1026 c 1,34,-1
 510 983 l 1,35,-1
 898 983 l 1,36,-1
 912 1084 l 2,37,38
 934 1243 934 1243 1024.5 1327 c 128,-1,39
 1115 1411 1115 1411 1259 1411 c 0,40,41
 1307 1411 1307 1411 1344 1401 c 2,42,-1
 1365 1395 l 1,43,-1
 1362 1374 l 1,44,-1
 1360 1358 l 1,45,46
 1392 1378 1392 1378 1430 1378 c 2,47,-1
 1431 1378 l 2,48,49
 1488 1378 1488 1378 1523.5 1341 c 128,-1,50
 1559 1304 1559 1304 1559 1249.5 c 128,-1,51
 1559 1195 1559 1195 1512 1152.5 c 128,-1,52
 1465 1110 1465 1110 1410 1110 c 128,-1,53
 1355 1110 1355 1110 1320.5 1146.5 c 128,-1,54
 1286 1183 1286 1183 1286 1224 c 2,55,-1
 1286 1237 l 1,56,57
 1275 1236 1275 1236 1261 1236 c 0,58,59
 1157 1236 1157 1236 1134 1076 c 2,60,-1
 1121 983 l 1,61,-1
 1713 983 l 1,62,-1
 1696 832 l 1,63,-1
 1693 810 l 1,64,-1
 1692 810 l 1,65,-1
 1590 22 l 1,66,-1
 1587 -0 l 1,67,-1
 1358 0 l 1,68,-1
 1465 835 l 1,69,-1
 1105 835 l 1,70,-1
 1001 22 l 1,71,-1
 998 0 l 1,72,-1
 768 0 l 1,73,-1
 876 835 l 1,74,-1
 494 835 l 1,75,-1
 389 22 l 1,76,-1
 387 -0 l 1,77,-1
 166 0 l 1,78,-1
 268 816 l 1,79,-1
 192 825 l 1,80,81
 129 834 129 834 129 885 c 2,17,-1
EndSplineSet
Validated: 1
Ligature2: "sous-table 'liga' Ligatures standard dans Latin lookup 37" f f idieresis
EndChar

StartChar: f_f_imacron.liga
Encoding: 2534 -1 81
Width: 1773
GlyphClass: 3
Flags: W
LayerCount: 2
Fore
SplineSet
129 885 m 2,0,-1
 129 894 l 1,1,-1
 137 961 l 1,2,-1
 140 983 l 1,3,-1
 290 983 l 1,4,-1
 297 1039 l 2,5,6
 318 1205 318 1205 427 1296.5 c 128,-1,7
 536 1388 536 1388 703 1388 c 0,8,9
 769 1388 769 1388 830 1368 c 2,10,-1
 851 1361 l 1,11,-1
 833 1255 l 1,12,13
 824 1208 824 1208 758 1208 c 2,14,-1
 703 1208 l 2,15,16
 539 1208 539 1208 515 1026 c 1,17,-1
 510 983 l 1,18,-1
 898 983 l 1,19,-1
 912 1084 l 2,20,21
 934 1243 934 1243 1025 1327 c 128,-1,22
 1116 1411 1116 1411 1260 1411 c 0,23,24
 1309 1411 1309 1411 1344 1401 c 2,25,-1
 1365 1395 l 1,26,-1
 1363 1374 l 1,27,-1
 1352 1299 l 1,28,-1
 1864 1299 l 1,29,-1
 1847 1160 l 1,30,-1
 1844 1138 l 1,31,-1
 1266 1138 l 1,32,-1
 1279 1236 l 1,33,-1
 1268 1236 l 2,34,35
 1213 1236 1213 1236 1180 1200.5 c 128,-1,36
 1147 1165 1147 1165 1134 1076 c 2,37,-1
 1121 983 l 1,38,-1
 1713 983 l 1,39,-1
 1696 832 l 1,40,-1
 1693 810 l 1,41,-1
 1692 810 l 1,42,-1
 1591 22 l 1,43,-1
 1588 -0 l 1,44,-1
 1358 0 l 1,45,-1
 1466 835 l 1,46,-1
 1105 835 l 1,47,-1
 1001 22 l 1,48,-1
 998 0 l 1,49,-1
 769 0 l 1,50,-1
 876 835 l 1,51,-1
 494 835 l 1,52,-1
 389 22 l 1,53,-1
 387 -0 l 1,54,-1
 166 0 l 1,55,-1
 268 816 l 1,56,-1
 192 825 l 1,57,58
 129 834 129 834 129 885 c 2,0,-1
EndSplineSet
Validated: 1
Ligature2: "sous-table 'liga' Ligatures standard dans Latin lookup 37" f f imacron
EndChar

StartChar: f_f_ibreve.liga
Encoding: 2535 -1 82
Width: 1773
GlyphClass: 3
Flags: W
LayerCount: 2
Fore
SplineSet
129 885 m 2,0,-1
 129 894 l 1,1,-1
 137 961 l 1,2,-1
 140 983 l 1,3,-1
 290 983 l 1,4,-1
 297 1039 l 2,5,6
 318 1205 318 1205 427 1296.5 c 128,-1,7
 536 1388 536 1388 703 1388 c 0,8,9
 769 1388 769 1388 830 1368 c 2,10,-1
 851 1361 l 1,11,-1
 833 1255 l 1,12,13
 824 1208 824 1208 758 1208 c 2,14,-1
 703 1208 l 2,15,16
 539 1208 539 1208 515 1026 c 1,17,-1
 510 983 l 1,18,-1
 898 983 l 1,19,-1
 912 1084 l 2,20,21
 934 1243 934 1243 1025 1327 c 128,-1,22
 1116 1411 1116 1411 1259 1411 c 0,23,24
 1308 1411 1308 1411 1344 1401 c 2,25,-1
 1366 1395 l 1,26,-1
 1364 1382 l 1,27,-1
 1485 1382 l 1,28,-1
 1481 1354 l 2,29,30
 1478 1332 1478 1332 1478 1315 c 0,31,32
 1478 1285 1478 1285 1487 1272 c 0,33,34
 1512 1234 1512 1234 1569.5 1234 c 128,-1,35
 1627 1234 1627 1234 1656.5 1263.5 c 128,-1,36
 1686 1293 1686 1293 1694 1360 c 1,37,-1
 1697 1382 l 1,38,-1
 1868 1382 l 1,39,-1
 1864 1354 l 1,40,41
 1838 1160 1838 1160 1688 1096 c 0,42,43
 1633 1073 1633 1073 1559 1073 c 0,44,45
 1345 1075 1345 1075 1308 1241 c 1,46,47
 1289 1236 1289 1236 1250 1236 c 128,-1,48
 1211 1236 1211 1236 1179 1198.5 c 128,-1,49
 1147 1161 1147 1161 1134 1076 c 1,50,-1
 1121 983 l 1,51,-1
 1713 983 l 1,52,-1
 1696 832 l 1,53,-1
 1693 810 l 1,54,-1
 1692 810 l 1,55,-1
 1591 22 l 1,56,-1
 1588 -0 l 1,57,-1
 1358 0 l 1,58,-1
 1465 835 l 1,59,-1
 1105 835 l 1,60,-1
 1001 22 l 1,61,-1
 998 0 l 1,62,-1
 769 0 l 1,63,-1
 876 835 l 1,64,-1
 494 835 l 1,65,-1
 389 22 l 1,66,-1
 387 -0 l 1,67,-1
 166 0 l 1,68,-1
 268 816 l 1,69,-1
 192 825 l 1,70,71
 129 834 129 834 129 885 c 2,0,-1
EndSplineSet
Validated: 1
Ligature2: "sous-table 'liga' Ligatures standard dans Latin lookup 37" f f ibreve
EndChar

StartChar: f_f_iogonek.liga
Encoding: 2536 -1 83
Width: 1754
GlyphClass: 3
Flags: W
LayerCount: 2
Fore
SplineSet
1588 -265 m 1,0,1
 1497 -330 1497 -330 1402.5 -330 c 128,-1,2
 1308 -330 1308 -330 1258 -290.5 c 128,-1,3
 1208 -251 1208 -251 1207 -185 c 0,4,5
 1207 -70 1207 -70 1341 19 c 1,6,-1
 1342 21 l 1,7,-1
 1446 813 l 1,8,-1
 1084 813 l 1,9,-1
 979 15 l 1,10,-1
 976 -6 l 1,11,-1
 745 -6 l 1,12,-1
 853 813 l 1,13,-1
 469 813 l 1,14,-1
 363 15 l 1,15,-1
 361 -6 l 1,16,-1
 140 -6 l 1,17,-1
 242 815 l 1,18,-1
 166 824 l 1,19,20
 103 833 103 833 103 885 c 2,21,-1
 103 894 l 1,22,-1
 111 961 l 1,23,-1
 114 983 l 1,24,-1
 264 983 l 1,25,-1
 271 1042 l 2,26,27
 292 1218 292 1218 401.5 1315.5 c 128,-1,28
 511 1413 511 1413 679 1413 c 0,29,30
 745 1413 745 1413 807 1393 c 2,31,-1
 828 1386 l 1,32,-1
 810 1280 l 1,33,34
 801 1233 801 1233 735 1233 c 2,35,-1
 679 1233 l 2,36,37
 606 1233 606 1233 554.5 1187.5 c 128,-1,38
 503 1142 503 1142 490 1031 c 2,39,-1
 484 983 l 1,40,-1
 875 983 l 1,41,-1
 879 1014 l 1,42,43
 918 1300 918 1300 1200 1390 c 0,44,45
 1292 1420 1292 1420 1394 1420 c 128,-1,46
 1496 1420 1496 1420 1556 1397 c 1,47,-1
 1576 1390 l 1,48,-1
 1555 1282 l 1,49,50
 1546 1243 1546 1243 1506 1243 c 2,51,-1
 1496 1243 l 1,52,-1
 1495 1244 l 1,53,-1
 1422 1244 l 2,54,55
 1277 1244 1277 1244 1199 1185 c 128,-1,56
 1121 1126 1121 1126 1103 1003 c 2,57,-1
 1100 983 l 1,58,-1
 1687 983 l 1,59,-1
 1670 832 l 1,60,-1
 1667 810 l 1,61,-1
 1666 810 l 1,62,-1
 1566 17 l 1,63,-1
 1563 -4 l 1,64,-1
 1504 -4 l 1,65,66
 1435 -42 1435 -42 1408 -96 c 0,67,68
 1398 -115 1398 -115 1398 -136 c 0,69,70
 1398 -158 1398 -158 1410 -168 c 0,71,72
 1420 -178 1420 -178 1440 -178 c 0,73,74
 1479 -178 1479 -178 1496 -166.5 c 128,-1,75
 1513 -155 1513 -155 1525.5 -155 c 128,-1,76
 1538 -155 1538 -155 1550 -163.5 c 128,-1,77
 1562 -172 1562 -172 1565 -186 c 1,78,-1
 1588 -265 l 1,0,1
EndSplineSet
Validated: 1
Ligature2: "sous-table 'liga' Ligatures standard dans Latin lookup 37" f f iogonek
EndChar

StartChar: f_f_dotlessi.liga
Encoding: 2537 -1 84
Width: 1754
GlyphClass: 3
Flags: W
LayerCount: 2
Fore
SplineSet
103 885 m 2,0,-1
 103 894 l 1,1,-1
 111 961 l 1,2,-1
 114 983 l 1,3,-1
 264 983 l 1,4,-1
 271 1039 l 2,5,6
 292 1205 292 1205 401.5 1296.5 c 128,-1,7
 511 1388 511 1388 679 1388 c 0,8,9
 745 1388 745 1388 807 1368 c 2,10,-1
 828 1361 l 1,11,-1
 810 1255 l 1,12,13
 801 1208 801 1208 735 1208 c 2,14,-1
 679 1208 l 2,15,16
 514 1208 514 1208 490 1026 c 1,17,-1
 484 983 l 1,18,-1
 875 983 l 1,19,-1
 889 1084 l 2,20,21
 911 1243 911 1243 1002.5 1327 c 128,-1,22
 1094 1411 1094 1411 1239 1411 c 0,23,24
 1288 1411 1288 1411 1324 1401 c 2,25,-1
 1345 1395 l 1,26,-1
 1330 1282 l 2,27,28
 1324 1236 1324 1236 1241 1236 c 0,29,30
 1136 1236 1136 1236 1113 1076 c 2,31,-1
 1100 983 l 1,32,-1
 1687 983 l 1,33,-1
 1670 832 l 1,34,-1
 1667 810 l 1,35,-1
 1666 810 l 1,36,-1
 1566 22 l 1,37,-1
 1563 -0 l 1,38,-1
 1338 0 l 1,39,-1
 1446 835 l 1,40,-1
 1084 835 l 1,41,-1
 979 22 l 1,42,-1
 976 0 l 1,43,-1
 745 0 l 1,44,-1
 853 835 l 1,45,-1
 469 835 l 1,46,-1
 363 22 l 1,47,-1
 361 -0 l 1,48,-1
 140 0 l 1,49,-1
 242 816 l 1,50,-1
 166 825 l 1,51,52
 103 834 103 834 103 885 c 2,0,-1
EndSplineSet
Validated: 1
Ligature2: "sous-table 'liga' Ligatures standard dans Latin lookup 37" f f dotlessi
EndChar

StartChar: f_j.liga
Encoding: 2538 -1 85
Width: 1184
GlyphClass: 3
Flags: W
LayerCount: 2
Fore
SplineSet
551 -174 m 1,0,-1
 553 -174 l 1,1,2
 564 -173 564 -173 575 -173 c 2,3,-1
 580 -173 l 1,4,-1
 583 -174 l 1,5,-1
 616 -174 l 2,6,7
 688 -174 688 -174 720.5 -145.5 c 128,-1,8
 753 -117 753 -117 763 -50 c 2,9,-1
 884 810 l 1,10,-1
 482 810 l 1,11,-1
 368 -25 l 1,12,-1
 146 -25 l 1,13,-1
 248 811 l 1,14,-1
 166 821 l 1,15,16
 103 830 103 830 103 883 c 2,17,-1
 103 892 l 1,18,-1
 115 983 l 1,19,-1
 269 983 l 1,20,-1
 273 1014 l 2,21,22
 297 1198 297 1198 442 1309 c 0,23,24
 592 1420 592 1420 837 1420 c 0,25,26
 928 1420 928 1420 1009 1390 c 1,27,-1
 990 1282 l 1,28,-1
 989 1282 l 1,29,-1
 989 1281 l 1,30,31
 979 1243 979 1243 919 1243 c 2,32,-1
 916 1243 l 1,33,-1
 913 1244 l 1,34,35
 893 1244 893 1244 873 1244 c 0,36,37
 696 1244 696 1244 608 1184 c 0,38,39
 520 1124 520 1124 498 983 c 1,40,-1
 1125 983 l 1,41,-1
 994 -58 l 2,42,43
 969 -262 969 -262 789 -328 c 0,44,45
 723 -352 723 -352 649.5 -352 c 128,-1,46
 576 -352 576 -352 511 -332 c 2,47,-1
 488 -325 l 1,48,-1
 513 -212 l 1,49,-1
 513 -211 l 1,50,-1
 514 -210 l 1,51,52
 524 -180 524 -180 551 -174 c 1,0,-1
EndSplineSet
Validated: 1
LCarets2: 1 0
Ligature2: "sous-table 'liga' Ligatures standard dans Latin lookup 37" f j
EndChar

StartChar: f_f_j.liga
Encoding: 2539 -1 86
Width: 1755
GlyphClass: 3
Flags: W
LayerCount: 2
Fore
SplineSet
1150 -174 m 1,0,-1
 1152 -174 l 1,1,2
 1162 -173 1162 -173 1173 -173 c 2,3,-1
 1178 -173 l 1,4,-1
 1181 -174 l 1,5,-1
 1211 -174 l 2,6,7
 1278 -174 1278 -174 1307 -146 c 128,-1,8
 1336 -118 1336 -118 1346 -50 c 1,9,-1
 1460 814 l 1,10,-1
 1093 814 l 1,11,-1
 985 -4 l 1,12,-1
 754 -4 l 1,13,-1
 862 814 l 1,14,-1
 471 814 l 1,15,-1
 363 -4 l 1,16,-1
 142 -4 l 1,17,-1
 244 815 l 1,18,-1
 166 825 l 1,19,20
 103 834 103 834 103 885 c 2,21,-1
 103 894 l 1,22,-1
 111 961 l 1,23,-1
 114 983 l 1,24,-1
 266 983 l 1,25,-1
 273 1042 l 2,26,27
 294 1218 294 1218 404 1315.5 c 128,-1,28
 514 1413 514 1413 683 1413 c 0,29,30
 751 1413 751 1413 813 1393 c 2,31,-1
 834 1386 l 1,32,-1
 816 1280 l 2,33,34
 808 1237 808 1237 763 1235 c 0,35,36
 738 1233 738 1233 675 1233 c 128,-1,37
 612 1233 612 1233 558.5 1187 c 128,-1,38
 505 1141 505 1141 492 1031 c 2,39,-1
 486 983 l 1,40,-1
 884 983 l 1,41,-1
 889 1014 l 1,42,43
 911 1198 911 1198 1051 1309 c 128,-1,44
 1191 1420 1191 1420 1421 1420 c 0,45,46
 1507 1420 1507 1420 1588 1390 c 1,47,-1
 1569 1282 l 1,48,49
 1560 1243 1560 1243 1519 1243 c 2,50,-1
 1513 1243 l 1,51,-1
 1511 1244 l 1,52,-1
 1457 1244 l 2,53,54
 1291 1244 1291 1244 1210.5 1185 c 128,-1,55
 1130 1126 1130 1126 1112 1003 c 2,56,-1
 1109 983 l 1,57,-1
 1701 983 l 1,58,-1
 1684 835 l 1,59,-1
 1681 813 l 1,60,-1
 1679 813 l 1,61,-1
 1571 -58 l 2,62,63
 1546 -262 1546 -262 1373 -328 c 0,64,65
 1312 -352 1312 -352 1240.5 -352 c 128,-1,66
 1169 -352 1169 -352 1112 -331 c 1,67,-1
 1091 -324 l 1,68,-1
 1115 -211 l 1,69,70
 1123 -179 1123 -179 1150 -174 c 1,0,-1
EndSplineSet
Validated: 1
Ligature2: "sous-table 'liga' Ligatures standard dans Latin lookup 37" f f j
EndChar

StartChar: f_k.liga
Encoding: 2540 -1 87
Width: 1645
GlyphClass: 3
Flags: W
LayerCount: 2
Fore
SplineSet
103 885 m 2,0,-1
 103 894 l 1,1,-1
 111 961 l 1,2,-1
 114 983 l 1,3,-1
 255 983 l 1,4,-1
 262 1038 l 1,5,6
 300 1326 300 1326 564 1411 c 0,7,8
 656 1441 656 1441 738 1441 c 128,-1,9
 820 1441 820 1441 852.5 1438 c 128,-1,10
 885 1435 885 1435 917.5 1432.5 c 128,-1,11
 950 1430 950 1430 982.5 1426.5 c 128,-1,12
 1015 1423 1015 1423 1054 1422 c 1,13,-1
 1126 1422 l 1,14,-1
 1126 1421 l 1,15,-1
 1194 1421 l 1,16,-1
 1128 1377 l 1,17,-1
 1122 1374 l 1,18,-1
 1022 611 l 1,19,-1
 1023 611 l 2,20,21
 1048 611 1048 611 1067 630 c 2,22,-1
 1403 961 l 1,23,24
 1444 1003 1444 1003 1492 1003 c 2,25,-1
 1706 1003 l 1,26,-1
 1283 587 l 2,27,28
 1263 567 1263 567 1242 552 c 1,29,30
 1259 534 1259 534 1276 508 c 2,31,-1
 1595 -0 l 1,32,-1
 1398 0 l 2,33,34
 1341 0 1341 0 1313 43 c 2,35,-1
 1056 422 l 2,36,37
 1047 435 1047 435 1041 439 c 0,38,39
 1034 442 1034 442 1012 442 c 2,40,-1
 1000 442 l 1,41,-1
 941 -0 l 1,42,-1
 707 0 l 1,43,-1
 875 1264 l 1,44,45
 811 1279 811 1279 757 1279 c 0,46,47
 642 1279 642 1279 570 1212 c 128,-1,48
 498 1145 498 1145 483 1031 c 1,49,-1
 476 983 l 1,50,-1
 743 983 l 1,51,-1
 724 832 l 1,52,-1
 721 810 l 1,53,-1
 460 810 l 1,54,-1
 352 -0 l 1,55,-1
 132 0 l 1,56,-1
 234 817 l 1,57,-1
 165 825 l 1,58,59
 103 834 103 834 103 885 c 2,0,-1
EndSplineSet
Validated: 1
Ligature2: "sous-table 'liga' Ligatures standard dans Latin lookup 37" f k
EndChar

StartChar: f_f_k.liga
Encoding: 2541 -1 88
Width: 2215
GlyphClass: 3
Flags: W
LayerCount: 2
Fore
SplineSet
103 885 m 2,0,-1
 103 894 l 1,1,-1
 111 961 l 1,2,-1
 114 983 l 1,3,-1
 257 983 l 1,4,-1
 264 1042 l 2,5,6
 285 1218 285 1218 389.5 1315.5 c 128,-1,7
 494 1413 494 1413 656 1413 c 0,8,9
 720 1413 720 1413 778 1392 c 1,10,-1
 799 1385 l 1,11,-1
 779 1279 l 2,12,13
 769 1233 769 1233 708 1233 c 2,14,-1
 656 1233 l 2,15,16
 589 1233 589 1233 541.5 1187.5 c 128,-1,17
 494 1142 494 1142 481 1031 c 2,18,-1
 475 983 l 1,19,-1
 835 983 l 1,20,-1
 843 1038 l 1,21,22
 882 1326 882 1326 1145 1411 c 0,23,24
 1237 1441 1237 1441 1317 1441 c 128,-1,25
 1397 1441 1397 1441 1429.5 1438 c 128,-1,26
 1462 1435 1462 1435 1493.5 1432.5 c 128,-1,27
 1525 1430 1525 1430 1557.5 1426.5 c 128,-1,28
 1590 1423 1590 1423 1627 1422 c 1,29,-1
 1704 1422 l 1,30,-1
 1704 1421 l 1,31,-1
 1769 1421 l 1,32,-1
 1702 1379 l 1,33,-1
 1602 611 l 1,34,35
 1628 611 1628 611 1646 630 c 2,36,-1
 1977 961 l 1,37,38
 2017 1003 2017 1003 2065 1003 c 2,39,-1
 2279 1003 l 1,40,-1
 1859 587 l 2,41,42
 1839 567 1839 567 1819 552 c 1,43,44
 1836 534 1836 534 1852 508 c 2,45,-1
 2168 0 l 1,46,-1
 1972 0 l 2,47,48
 1916 0 1916 0 1888 43 c 2,49,-1
 1636 422 l 2,50,51
 1627 435 1627 435 1621 439 c 0,52,53
 1614 442 1614 442 1592 442 c 2,54,-1
 1581 442 l 1,55,-1
 1522 -0 l 1,56,-1
 1292 0 l 1,57,-1
 1457 1263 l 1,58,59
 1391 1279 1391 1279 1336 1279 c 0,60,61
 1221 1279 1221 1279 1150 1212.5 c 128,-1,62
 1079 1146 1079 1146 1063 1031 c 2,63,-1
 1056 983 l 1,64,-1
 1321 983 l 1,65,-1
 1298 810 l 1,66,-1
 1041 810 l 1,67,-1
 934 0 l 1,68,-1
 707 0 l 1,69,-1
 814 835 l 1,70,-1
 459 835 l 1,71,-1
 356 22 l 1,72,-1
 353 -0 l 1,73,-1
 133 0 l 1,74,-1
 235 817 l 1,75,-1
 165 825 l 1,76,77
 103 834 103 834 103 885 c 2,0,-1
EndSplineSet
Validated: 1
Ligature2: "sous-table 'liga' Ligatures standard dans Latin lookup 37" f f k
EndChar

StartChar: uniFB02
Encoding: 2492 64258 89
Width: 1184
GlyphClass: 3
Flags: W
LayerCount: 2
Fore
SplineSet
59 859 m 2,0,-1
 59 868 l 1,1,-1
 67 939 l 1,2,-1
 70 960 l 1,3,-1
 215 960 l 1,4,-1
 219 990 l 1,5,6
 241 1170 241 1170 364 1289 c 1,7,8
 495 1409 495 1409 706 1409 c 1,9,-1
 984 1396 l 1,10,-1
 1128 1396 l 1,11,-1
 955 22 l 1,12,-1
 952 0 l 1,13,-1
 716 0 l 1,14,-1
 885 1220 l 1,15,16
 739 1232 739 1232 718 1232 c 0,17,18
 603 1232 603 1232 531.5 1168.5 c 128,-1,19
 460 1105 460 1105 446 984 c 1,20,-1
 443 960 l 1,21,-1
 701 960 l 1,22,-1
 681 805 l 1,23,-1
 679 783 l 1,24,-1
 427 783 l 1,25,-1
 321 43 l 1,26,-1
 321 40 l 1,27,-1
 270 -148 l 1,28,29
 249 -241 249 -241 159 -241 c 2,30,-1
 62 -241 l 1,31,-1
 193 791 l 1,32,-1
 121 800 l 1,33,34
 59 809 59 809 59 859 c 2,0,-1
EndSplineSet
Validated: 1
Ligature2: "sous-table 'liga' Ligatures standard dans Latin lookup 37" f l
EndChar

StartChar: uniFB04
Encoding: 2494 64260 90
Width: 1754
GlyphClass: 3
Flags: W
LayerCount: 2
Fore
SplineSet
103 863 m 2,0,-1
 103 871 l 1,1,-1
 111 937 l 1,2,-1
 114 958 l 1,3,-1
 259 958 l 1,4,-1
 266 1017 l 2,5,6
 287 1191 287 1191 394.5 1289.5 c 128,-1,7
 502 1388 502 1388 667 1388 c 0,8,9
 731 1388 731 1388 793 1368 c 2,10,-1
 814 1361 l 1,11,-1
 794 1255 l 2,12,13
 786 1212 786 1212 743 1210 c 0,14,15
 719 1208 719 1208 677 1208 c 0,16,17
 510 1208 510 1208 485 1006 c 1,18,-1
 478 958 l 1,19,-1
 853 958 l 1,20,-1
 857 988 l 2,21,22
 880 1168 880 1168 1004 1288.5 c 128,-1,23
 1128 1409 1128 1409 1327 1409 c 2,24,-1
 1330 1409 l 1,25,-1
 1599 1396 l 1,26,-1
 1741 1396 l 1,27,-1
 1566 22 l 1,28,-1
 1563 -0 l 1,29,-1
 1338 0 l 1,30,-1
 1501 1229 l 1,31,-1
 1341 1236 l 1,32,33
 1232 1236 1232 1236 1165 1169.5 c 128,-1,34
 1098 1103 1098 1103 1082 982 c 1,35,-1
 1078 958 l 1,36,-1
 1351 958 l 1,37,-1
 1333 807 l 1,38,-1
 1330 785 l 1,39,-1
 1062 785 l 1,40,-1
 957 22 l 1,41,-1
 955 0 l 1,42,-1
 724 0 l 1,43,-1
 831 835 l 1,44,-1
 463 835 l 1,45,-1
 358 22 l 1,46,-1
 355 -0 l 1,47,-1
 135 0 l 1,48,-1
 237 795 l 1,49,-1
 164 804 l 1,50,51
 103 813 103 813 103 863 c 2,0,-1
EndSplineSet
Validated: 1
Ligature2: "sous-table 'liga' Ligatures standard dans Latin lookup 37" f f l
EndChar

StartChar: f_t.liga
Encoding: 2542 -1 91
Width: 1352
GlyphClass: 3
Flags: W
LayerCount: 2
Fore
SplineSet
103 885 m 2,0,-1
 103 894 l 1,1,-1
 111 961 l 1,2,-1
 114 983 l 1,3,-1
 259 983 l 1,4,-1
 268 1053 l 2,5,6
 289 1218 289 1218 396 1310 c 0,7,8
 508 1402 508 1402 678 1403 c 0,9,10
 744 1403 744 1403 807 1383 c 2,11,-1
 829 1376 l 1,12,-1
 809 1269 l 1,13,14
 800 1229 800 1229 756 1224 c 1,15,-1
 685 1224 l 2,16,17
 515 1224 515 1224 491 1039 c 1,18,-1
 483 983 l 1,19,-1
 893 983 l 1,20,-1
 971 1269 l 2,21,22
 986 1320 986 1320 1043 1320 c 2,23,-1
 1163 1320 l 1,24,-1
 1120 983 l 1,25,-1
 1385 983 l 1,26,-1
 1368 832 l 1,27,-1
 1365 810 l 1,28,-1
 1097 810 l 1,29,-1
 1022 263 l 2,30,31
 1020 249 1020 249 1020 228.5 c 128,-1,32
 1020 208 1020 208 1036 190.5 c 128,-1,33
 1052 173 1052 173 1080 173 c 0,34,35
 1126 173 1126 173 1159 196.5 c 128,-1,36
 1192 220 1192 220 1215.5 220 c 128,-1,37
 1239 220 1239 220 1254 189 c 2,38,-1
 1293 109 l 1,39,-1
 1302 92 l 1,40,-1
 1287 79 l 2,41,42
 1179 -15 1179 -15 1048 -15 c 128,-1,43
 917 -15 917 -15 850 41.5 c 128,-1,44
 783 98 783 98 783 206 c 0,45,46
 783 232 783 232 787 262 c 2,47,-1
 861 835 l 1,48,-1
 467 835 l 1,49,-1
 359 22 l 1,50,-1
 357 -0 l 1,51,-1
 136 0 l 1,52,-1
 238 816 l 1,53,-1
 165 825 l 1,54,55
 103 834 103 834 103 885 c 2,0,-1
EndSplineSet
Validated: 1
Ligature2: "sous-table 'liga' Ligatures standard dans Latin lookup 37" f t
EndChar

StartChar: f_f_t.liga
Encoding: 2543 -1 92
Width: 1923
GlyphClass: 3
Flags: W
LayerCount: 2
Fore
SplineSet
103 885 m 2,0,-1
 103 894 l 1,1,-1
 111 961 l 1,2,-1
 114 983 l 1,3,-1
 260 983 l 1,4,-1
 267 1039 l 2,5,6
 288 1203 288 1203 394.5 1295.5 c 128,-1,7
 501 1388 501 1388 666 1388 c 0,8,9
 733 1388 733 1388 791 1367 c 2,10,-1
 811 1360 l 1,11,-1
 793 1255 l 2,12,13
 785 1212 785 1212 742 1210 c 0,14,15
 718 1208 718 1208 659 1208 c 128,-1,16
 600 1208 600 1208 549 1167 c 128,-1,17
 498 1126 498 1126 485 1026 c 2,18,-1
 479 983 l 1,19,-1
 851 983 l 1,20,-1
 861 1053 l 1,21,22
 883 1216 883 1216 990 1309 c 0,23,24
 1098 1402 1098 1402 1263 1403 c 0,25,26
 1328 1403 1328 1403 1389 1383 c 2,27,-1
 1410 1376 l 1,28,-1
 1391 1270 l 2,29,30
 1383 1227 1383 1227 1339 1225 c 0,31,32
 1315 1223 1315 1223 1274 1223 c 0,33,34
 1191 1223 1191 1223 1144 1179 c 128,-1,35
 1097 1135 1097 1135 1084 1039 c 1,36,-1
 1075 983 l 1,37,-1
 1474 983 l 1,38,-1
 1549 1244 l 1,39,40
 1562 1295 1562 1295 1618 1295 c 2,41,-1
 1735 1295 l 1,42,-1
 1693 983 l 1,43,-1
 1958 983 l 1,44,-1
 1939 832 l 1,45,-1
 1936 810 l 1,46,-1
 1671 810 l 1,47,-1
 1599 263 l 2,48,49
 1597 249 1597 249 1597 228.5 c 128,-1,50
 1597 208 1597 208 1611.5 190.5 c 128,-1,51
 1626 173 1626 173 1653 173 c 0,52,53
 1695 173 1695 173 1730 196.5 c 128,-1,54
 1765 220 1765 220 1786.5 220 c 128,-1,55
 1808 220 1808 220 1824 191 c 1,56,-1
 1874 92 l 1,57,-1
 1859 79 l 2,58,59
 1751 -15 1751 -15 1623 -15 c 128,-1,60
 1495 -15 1495 -15 1430 41.5 c 128,-1,61
 1365 98 1365 98 1365 206 c 0,62,63
 1365 233 1365 233 1370 262 c 1,64,-1
 1443 835 l 1,65,-1
 1059 835 l 1,66,-1
 955 22 l 1,67,-1
 952 0 l 1,68,-1
 723 0 l 1,69,-1
 829 835 l 1,70,-1
 463 835 l 1,71,-1
 359 22 l 1,72,-1
 356 -0 l 1,73,-1
 136 0 l 1,74,-1
 238 816 l 1,75,-1
 165 825 l 1,76,77
 103 834 103 834 103 885 c 2,0,-1
EndSplineSet
Validated: 1
Ligature2: "sous-table 'liga' Ligatures standard dans Latin lookup 37" f f t
EndChar

StartChar: g
Encoding: 73 103 93
Width: 1153
GlyphClass: 2
Flags: W
AnchorPoint: "Ancre-1" 397 -324 basechar 0
AnchorPoint: "Ancre-0" 396 1122 basechar 0
AnchorPoint: "Ancre-2" 1053 1515 basechar 0
AnchorPoint: "Ancre-3" 1053 -510 basechar 0
AnchorPoint: "Ancre-5" 1053 1492 basechar 0
LayerCount: 2
Fore
SplineSet
624 208 m 1,0,1
 616 236 616 236 616 266.5 c 128,-1,2
 616 297 616 297 629 332 c 1,3,4
 557 308 557 308 469 308 c 0,5,6
 330 308 330 308 234 387 c 1,7,8
 144 467 144 467 144 615.5 c 128,-1,9
 144 764 144 764 263 878 c 1,10,11
 389 992 389 992 605 992 c 0,12,13
 728 992 728 992 822 945 c 1,14,-1
 1132 945 l 1,15,-1
 1122 863 l 2,16,17
 1115 809 1115 809 1062 800 c 2,18,-1
 959 783 l 1,19,20
 971 744 971 744 971 696 c 0,21,22
 970 648 970 648 958 609 c 0,23,24
 935 538 935 538 900.5 493 c 128,-1,25
 866 448 866 448 836 407 c 128,-1,26
 806 366 806 366 806 331 c 128,-1,27
 806 296 806 296 816 278 c 0,28,29
 829 254 829 254 862.5 213 c 128,-1,30
 896 172 896 172 924.5 127.5 c 128,-1,31
 953 83 953 83 953 14 c 0,32,33
 953 -137 953 -137 804 -245 c 1,34,35
 652 -350 652 -350 431 -351 c 1,36,-1
 425 -351 l 2,37,38
 211 -351 211 -351 93 -278.5 c 128,-1,39
 -25 -206 -25 -206 -25 -83 c 128,-1,40
 -25 40 -25 40 86 117 c 0,41,42
 226 213 226 213 503 213 c 0,43,44
 506 213 506 213 536.5 213 c 128,-1,45
 567 213 567 213 624 208 c 1,0,1
602 822 m 0,46,47
 483 822 483 822 423.5 760 c 128,-1,48
 364 698 364 698 364 618.5 c 128,-1,49
 364 539 364 539 406 503 c 128,-1,50
 448 467 448 467 512 467 c 0,51,52
 628 467 628 467 689 532.5 c 128,-1,53
 750 598 750 598 750 675.5 c 128,-1,54
 750 753 750 753 708 787.5 c 128,-1,55
 666 822 666 822 602 822 c 0,46,47
191 -60 m 0,56,57
 191 -116 191 -116 249 -147 c 128,-1,58
 307 -178 307 -178 401 -178 c 0,59,60
 640 -178 640 -178 711 -64 c 0,61,62
 731 -32 731 -32 731 0 c 128,-1,63
 731 32 731 32 718 65 c 1,64,65
 611 80 611 80 555.5 80 c 128,-1,66
 500 80 500 80 437.5 77 c 128,-1,67
 375 74 375 74 308 52 c 0,68,69
 191 13 191 13 191 -60 c 0,56,57
EndSplineSet
Validated: 1
Substitution2: "sous-table 'smcp' Bas-de-casse vers petites capitales dans Latin lookup 0" g.smcp
Substitution2: "sous-table 'sups' Exposant lookups25" g.superior
Substitution2: "sous-table 'salt' Alternatives stylistiques lookups28" g.salt
Substitution2: "sous-table 'ss04' Style 4 lookups34" g.salt
Substitution2: "sous-table 'ordn' Ordinaux dans Latin lookup 39" g.superior
EndChar

StartChar: g.salt
Encoding: 2544 -1 94
Width: 1064
GlyphClass: 2
Flags: W
LayerCount: 2
Fore
SplineSet
596 994 m 0,0,1
 755 994 755 994 834 897 c 1,2,-1
 842 924 l 2,3,4
 857 977 857 977 913 977 c 2,5,-1
 1043 977 l 1,6,-1
 927 60 l 2,7,8
 904 -122 904 -122 770 -236 c 1,9,10
 625 -350 625 -350 401 -350 c 2,11,-1
 400 -350 l 2,12,13
 185 -350 185 -350 70 -219 c 1,14,-1
 57 -204 l 1,15,-1
 118 -123 l 2,16,17
 145 -88 145 -88 178 -88 c 128,-1,18
 211 -88 211 -88 235 -108 c 0,19,20
 314 -176 314 -176 392 -176 c 0,21,22
 533 -176 533 -176 607 -114.5 c 128,-1,23
 681 -53 681 -53 696 48 c 1,24,-1
 701 86 l 1,25,26
 574 -14 574 -14 432 -14 c 0,27,28
 100 -14 100 -14 98 396 c 0,29,30
 98 650 98 650 226 819 c 1,31,32
 364 994 364 994 596 994 c 0,0,1
612 812 m 2,33,34
 487 812 487 812 406.5 704.5 c 128,-1,35
 326 597 326 597 326 398 c 0,36,37
 326 279 326 279 367.5 225.5 c 128,-1,38
 409 172 409 172 492 172 c 0,39,40
 615 172 615 172 730 298 c 1,41,-1
 791 721 l 1,42,43
 736 809 736 809 625 813 c 1,44,-1
 624 812 l 1,45,-1
 612 812 l 2,33,34
EndSplineSet
Validated: 1
Substitution2: "sous-table 'sups' Exposant lookups25" g.superior.salt
Substitution2: "sous-table 'ordn' Ordinaux dans Latin lookup 39" g.superior.salt
EndChar

StartChar: h
Encoding: 74 104 95
Width: 1153
GlyphClass: 2
Flags: W
AnchorPoint: "Ancre-1" 502 10 basechar 0
AnchorPoint: "Ancre-0" 585 1492 basechar 0
AnchorPoint: "Ancre-2" 1053 1515 basechar 0
AnchorPoint: "Ancre-3" 1053 -510 basechar 0
AnchorPoint: "Ancre-5" 1053 1492 basechar 0
LayerCount: 2
Fore
SplineSet
80 0 m 1,0,-1
 254 1400 l 1,1,-1
 257 1422 l 1,2,-1
 500 1422 l 1,3,-1
 420 822 l 1,4,5
 485 889 485 889 579 940.5 c 128,-1,6
 673 992 673 992 768.5 992 c 128,-1,7
 864 992 864 992 918 965 c 0,8,9
 1059 899 1059 899 1059 695 c 0,10,11
 1059 656 1059 656 1053 614 c 2,12,-1
 980 22 l 1,13,-1
 977 -0 l 1,14,-1
 745 0 l 1,15,-1
 828 613 l 2,16,17
 833 646 833 646 833 697 c 128,-1,18
 833 748 833 748 808 773 c 0,19,20
 781 798 781 798 721 798 c 0,21,22
 630 798 630 798 532 717 c 128,-1,23
 434 636 434 636 375 505 c 1,24,-1
 305 -0 l 1,25,-1
 80 0 l 1,0,-1
EndSplineSet
Validated: 1
Substitution2: "sous-table 'smcp' Bas-de-casse vers petites capitales dans Latin lookup 0" h.smcp
Substitution2: "sous-table 'ordn' Ordinaux dans Latin lookup 39" h.superior
Substitution2: "sous-table 'sups' Exposant lookups25" h.superior
EndChar

StartChar: hbar
Encoding: 232 295 97
Width: 1166
GlyphClass: 2
Flags: W
AnchorPoint: "Ancre-0" 579 1492 basechar 0
AnchorPoint: "Ancre-1" 594 10 basechar 0
AnchorPoint: "Ancre-2" 1093 1515 basechar 0
AnchorPoint: "Ancre-3" 1093 -510 basechar 0
AnchorPoint: "Ancre-5" 1093 1492 basechar 0
LayerCount: 2
Fore
SplineSet
79 1214 m 1,0,-1
 233 1214 l 1,1,-1
 257 1400 l 1,2,-1
 259 1422 l 1,3,-1
 504 1422 l 1,4,-1
 476 1214 l 1,5,-1
 753 1214 l 1,6,-1
 737 1121 l 2,7,8
 731 1089 731 1089 705.5 1070.5 c 128,-1,9
 680 1052 680 1052 643 1052 c 2,10,-1
 454 1052 l 1,11,-1
 420 799 l 1,12,13
 486 867 486 867 581 919 c 128,-1,14
 676 971 676 971 775 971 c 2,15,-1
 786 971 l 1,16,-1
 787 970 l 1,17,18
 873 968 873 968 925 945 c 0,19,20
 1067 879 1067 879 1067 674 c 0,21,22
 1067 637 1067 637 1062 594 c 2,23,-1
 990 22 l 1,24,-1
 988 0 l 1,25,-1
 756 0 l 1,26,-1
 838 592 l 1,27,28
 843 623 843 623 843 650 c 0,29,30
 843 703 843 703 824 738 c 0,31,32
 801 775 801 775 727 777 c 1,33,-1
 725 776 l 1,34,-1
 718 776 l 2,35,36
 632 776 632 776 532 693 c 128,-1,37
 432 610 432 610 375 477 c 1,38,-1
 307 0 l 1,39,-1
 80 0 l 1,40,-1
 214 1052 l 1,41,-1
 59 1052 l 1,42,-1
 77 1192 l 1,43,-1
 79 1214 l 1,0,-1
EndSplineSet
Validated: 1
Substitution2: "sous-table 'smcp' Bas-de-casse vers petites capitales dans Latin lookup 0" hbar.smcp
EndChar

StartChar: i
Encoding: 75 105 98
Width: 520
GlyphClass: 2
Flags: W
AnchorPoint: "Ancre-5" 564 1492 basechar 0
AnchorPoint: "Ancre-2" 564 1515 basechar 0
AnchorPoint: "Ancre-3" 564 -510 basechar 0
AnchorPoint: "Ancre-1" 180 10 basechar 0
AnchorPoint: "Ancre-0" 164 1515 basechar 0
LayerCount: 2
Fore
SplineSet
437 978 m 1,0,-1
 316 22 l 1,1,-1
 313 0 l 1,2,-1
 90 0 l 1,3,-1
 211 956 l 1,4,-1
 214 978 l 1,5,-1
 437 978 l 1,0,-1
499 1260.5 m 128,-1,7
 499 1201 499 1201 454.5 1156 c 128,-1,8
 410 1111 410 1111 352.5 1111 c 128,-1,9
 295 1111 295 1111 252 1156 c 128,-1,10
 209 1201 209 1201 209 1260 c 128,-1,11
 209 1319 209 1319 242 1354 c 0,12,13
 296 1409 296 1409 353.5 1409 c 128,-1,14
 411 1409 411 1409 445 1375 c 0,15,6
 499 1320 499 1320 499 1260.5 c 128,-1,7
EndSplineSet
Validated: 1
Substitution2: "sous-table 'smcp' Bas-de-casse vers petites capitales dans Latin lookup 0" i.smcp
Substitution2: "sous-table 'ordn' Ordinaux dans Latin lookup 39" i.superior
Substitution2: "sous-table 'sups' Exposant lookups25" i.superior
Substitution2: "sous-table Substitution simple lookups1" dotlessi
EndChar

StartChar: iogonek
Encoding: 240 303 99
Width: 520
GlyphClass: 2
Flags: W
AnchorPoint: "Ancre-0" 164 1534 basechar 0
AnchorPoint: "Ancre-2" 470 1515 basechar 0
AnchorPoint: "Ancre-3" 470 -510 basechar 0
AnchorPoint: "Ancre-4" 235 550 basechar 0
AnchorPoint: "Ancre-5" 470 1534 basechar 0
LayerCount: 2
Fore
SplineSet
344 -265 m 1,0,1
 253 -330 253 -330 161.5 -330 c 128,-1,2
 70 -330 70 -330 22 -289.5 c 128,-1,3
 -26 -249 -26 -249 -26 -193 c 0,4,5
 -26 -72 -26 -72 89 16 c 1,6,-1
 208 956 l 1,7,-1
 211 978 l 1,8,-1
 434 978 l 1,9,-1
 313 22 l 1,10,-1
 310 0 l 1,11,-1
 259 0 l 1,12,13
 191 -39 191 -39 166 -94 c 0,14,15
 156 -112 156 -112 156 -133.5 c 128,-1,16
 156 -155 156 -155 167 -166.5 c 128,-1,17
 178 -178 178 -178 197 -178 c 0,18,19
 236 -178 236 -178 252.5 -166.5 c 128,-1,20
 269 -155 269 -155 281.5 -155 c 128,-1,21
 294 -155 294 -155 306 -163.5 c 128,-1,22
 318 -172 318 -172 321 -186 c 1,23,-1
 344 -265 l 1,0,1
496 1260.5 m 128,-1,25
 496 1201 496 1201 451 1156 c 128,-1,26
 406 1111 406 1111 349 1111 c 128,-1,27
 292 1111 292 1111 249 1156 c 128,-1,28
 206 1201 206 1201 206 1260 c 128,-1,29
 206 1319 206 1319 239 1354 c 0,30,31
 293 1409 293 1409 350 1409 c 128,-1,32
 407 1409 407 1409 442 1375 c 0,33,24
 496 1320 496 1320 496 1260.5 c 128,-1,25
EndSplineSet
Validated: 1
Substitution2: "sous-table 'smcp' Bas-de-casse vers petites capitales dans Latin lookup 0" iogonek.smcp
LCarets2: 1 0
Ligature2: "sous-table 'ccmp' Composition et d+AOkA-composition de glyphe (CJK) lookups10" i uni0328
Substitution2: "sous-table Substitution simple lookups1" glyph499
EndChar

StartChar: dotlessi
Encoding: 242 305 100
Width: 473
GlyphClass: 2
Flags: W
AnchorPoint: "Ancre-5" 463 1073 basechar 0
AnchorPoint: "Ancre-4" 228 522 basechar 0
AnchorPoint: "Ancre-3" 463 -510 basechar 0
AnchorPoint: "Ancre-2" 463 1466 basechar 0
AnchorPoint: "Ancre-1" 231 9 basechar 0
AnchorPoint: "Ancre-0" 146 1122 basechar 0
LayerCount: 2
Fore
SplineSet
455 979 m 1,0,-1
 337 22 l 1,1,-1
 334 0 l 1,2,-1
 127 0 l 1,3,-1
 244 957 l 1,4,-1
 247 979 l 1,5,-1
 455 979 l 1,0,-1
EndSplineSet
Validated: 1
EndChar

StartChar: ij.salt
Encoding: 2545 -1 101
Width: 1151
GlyphClass: 2
Flags: W
LayerCount: 2
Fore
SplineSet
731 57 m 1,0,1
 537 -40 537 -40 472 -40 c 0,2,3
 277 -40 277 -40 199 69 c 0,4,5
 140 152 140 152 140 281 c 0,6,7
 140 317 140 317 144 357 c 2,8,-1
 219 980 l 1,9,-1
 222 1002 l 1,10,-1
 449 1002 l 1,11,-1
 364 351 l 2,12,13
 360 324 360 324 360 299 c 0,14,15
 360 219 360 219 400 182 c 128,-1,16
 440 145 440 145 523.5 145 c 128,-1,17
 607 145 607 145 656 167.5 c 128,-1,18
 705 190 705 190 757 246 c 1,19,-1
 860 1002 l 1,20,-1
 1085 1002 l 1,21,-1
 962 17 l 1,22,23
 928 -246 928 -246 679 -323 c 0,24,25
 595 -350 595 -350 496 -350 c 128,-1,26
 397 -350 397 -350 343 -329 c 2,27,-1
 322 -321 l 1,28,-1
 352 -209 l 1,29,-1
 352 -208 l 1,30,31
 362 -177 362 -177 389 -172 c 1,32,-1
 390 -172 l 1,33,34
 402 -171 402 -171 416 -171 c 2,35,-1
 420 -171 l 1,36,-1
 424 -172 l 1,37,-1
 462 -172 l 2,38,39
 581 -172 581 -172 646 -132 c 0,40,41
 709 -91 709 -91 724 5 c 1,42,-1
 731 57 l 1,0,1
914 1362 m 0,43,44
 963 1408 963 1408 1011 1408 c 0,45,46
 1116 1408 1116 1408 1150 1324 c 0,47,48
 1160 1300 1160 1300 1161 1269 c 0,49,50
 1161 1205 1161 1205 1110.5 1160 c 128,-1,51
 1060 1115 1060 1115 1000 1115 c 128,-1,52
 940 1115 940 1115 901 1156 c 0,53,54
 859 1195 859 1195 859 1255 c 128,-1,55
 859 1315 859 1315 914 1362 c 0,43,44
263 1155 m 0,56,57
 226 1195 226 1195 226 1255.5 c 128,-1,58
 226 1316 226 1316 274.5 1362 c 128,-1,59
 323 1408 323 1408 371 1408 c 0,60,61
 484 1408 484 1408 524 1325 c 0,62,63
 536 1300 536 1300 536 1269 c 0,64,65
 536 1205 536 1205 481.5 1160 c 128,-1,66
 427 1115 427 1115 364 1115 c 128,-1,67
 301 1115 301 1115 263 1155 c 0,56,57
EndSplineSet
Validated: 1
Ligature2: "sous-table 'dlig' Ligatures facultatives  dans Latin lookup 36" i j
EndChar

StartChar: j
Encoding: 76 106 102
Width: 590
GlyphClass: 2
Flags: W
AnchorPoint: "Ancre-5" 587 1492 basechar 0
AnchorPoint: "Ancre-2" 587 1515 basechar 0
AnchorPoint: "Ancre-3" 587 -510 basechar 0
AnchorPoint: "Ancre-1" 225 -307 basechar 0
AnchorPoint: "Ancre-0" 150 1515 basechar 0
LayerCount: 2
Fore
SplineSet
446 993 m 1,0,-1
 321 -24 l 2,1,2
 294 -246 294 -246 112 -320 c 0,3,4
 50 -346 50 -346 -25.5 -346 c 128,-1,5
 -101 -346 -101 -346 -159 -328 c 1,6,-1
 -133 -192 l 2,7,8
 -129 -172 -129 -172 -115.5 -165.5 c 128,-1,9
 -102 -159 -102 -159 -68 -159 c 0,10,11
 2 -159 2 -159 32 -129.5 c 128,-1,12
 62 -100 62 -100 72 -24 c 2,13,-1
 198 993 l 1,14,-1
 446 993 l 1,0,-1
342 1437 m 2,15,16
 403 1437 403 1437 452 1391 c 128,-1,17
 501 1345 501 1345 501 1280.5 c 128,-1,18
 501 1216 501 1216 451 1168 c 0,19,20
 402 1121 402 1121 341 1121 c 0,21,22
 340 1122 l 0,23,24
 278 1122 278 1122 231.5 1168.5 c 128,-1,25
 185 1215 185 1215 185 1276 c 2,26,-1
 185 1279 l 2,27,28
 185 1342 185 1342 231 1389 c 128,-1,29
 277 1436 277 1436 339 1437 c 1,30,-1
 342 1437 l 2,15,16
EndSplineSet
Validated: 1
Substitution2: "sous-table 'smcp' Bas-de-casse vers petites capitales dans Latin lookup 0" j.smcp
Substitution2: "sous-table 'ordn' Ordinaux dans Latin lookup 39" j.superior
Substitution2: "sous-table 'sups' Exposant lookups25" j.superior
Substitution2: "sous-table Substitution simple lookups2" uni0237
EndChar

StartChar: uni0237
Encoding: 504 567 103
Width: 480
GlyphClass: 2
Flags: W
AnchorPoint: "Ancre-0" 160 1073 basechar 0
AnchorPoint: "Ancre-1" 176 -356 basechar 0
AnchorPoint: "Ancre-2" 484 1466 basechar 0
AnchorPoint: "Ancre-3" 484 -510 basechar 0
AnchorPoint: "Ancre-5" 484 1485 basechar 0
LayerCount: 2
Fore
SplineSet
467 979 m 1,0,-1
 339 -59 l 1,1,2
 315 -262 315 -262 160 -328 c 0,3,4
 106 -351 106 -351 56 -351 c 0,5,6
 -28 -351 -28 -351 -88 -321 c 1,7,-1
 -64 -208 l 2,8,9
 -56 -169 -56 -169 -14 -169 c 0,10,11
 -10 -169 -10 -169 -6 -169 c 1,12,-1
 20 -169 l 2,13,14
 74 -169 74 -169 100 -142.5 c 128,-1,15
 126 -116 126 -116 134 -49 c 2,16,-1
 258 957 l 1,17,-1
 261 979 l 1,18,-1
 467 979 l 1,0,-1
EndSplineSet
Validated: 1
EndChar

StartChar: k
Encoding: 77 107 104
Width: 1031
GlyphClass: 2
Flags: W
AnchorPoint: "Ancre-5" 931 1538 basechar 0
AnchorPoint: "Ancre-2" 931 1515 basechar 0
AnchorPoint: "Ancre-3" 931 -510 basechar 0
AnchorPoint: "Ancre-1" 375 10 basechar 0
AnchorPoint: "Ancre-0" 468 1492 basechar 0
LayerCount: 2
Fore
SplineSet
495 1422 m 1,0,-1
 381 611 l 1,1,-1
 383 611 l 2,2,3
 410 611 410 611 429 629 c 1,4,-1
 784 939 l 1,5,6
 827 978 827 978 876 978 c 2,7,-1
 1090 978 l 1,8,-1
 657 572 l 2,9,10
 635 552 635 552 614 538 c 1,11,12
 632 521 632 521 650 496 c 1,13,-1
 957 36 l 1,14,-1
 979 0 l 1,15,-1
 779 0 l 2,16,17
 719 0 719 0 689 43 c 2,18,-1
 418 422 l 2,19,20
 409 435 409 435 402 439 c 0,21,22
 394 442 394 442 371 442 c 2,23,-1
 359 442 l 1,24,-1
 298 0 l 1,25,-1
 75 0 l 1,26,-1
 252 1400 l 1,27,-1
 255 1422 l 1,28,-1
 495 1422 l 1,0,-1
EndSplineSet
Validated: 1
Substitution2: "sous-table 'smcp' Bas-de-casse vers petites capitales dans Latin lookup 0" k.smcp
Substitution2: "sous-table 'ordn' Ordinaux dans Latin lookup 39" k.superior
Substitution2: "sous-table 'sups' Exposant lookups25" k.superior
EndChar

StartChar: kgreenlandic
Encoding: 249 312 105
Width: 909
GlyphClass: 2
Flags: W
LayerCount: 2
Fore
SplineSet
653 549 m 1,0,-1
 611 516 l 1,1,-1
 642 477 l 1,2,-1
 643 476 l 1,3,-1
 882 34 l 1,4,-1
 899 0 l 1,5,-1
 720 0 l 2,6,7
 662 0 662 0 634 43 c 1,8,-1
 426 399 l 2,9,10
 418 411 418 411 413.5 413 c 128,-1,11
 409 415 409 415 391 415 c 2,12,-1
 372 415 l 1,13,-1
 315 -0 l 1,14,-1
 108 0 l 1,15,-1
 225 932 l 1,16,-1
 228 954 l 1,17,-1
 447 954 l 1,18,-1
 395 584 l 1,19,-1
 402 584 l 2,20,21
 421 584 421 584 438 601 c 2,22,-1
 737 913 l 1,23,-1
 737 914 l 1,24,-1
 738 914 l 1,25,26
 780 954 780 954 820 954 c 2,27,-1
 1010 954 l 1,28,-1
 654 549 l 1,29,-1
 653 549 l 1,0,-1
EndSplineSet
Validated: 1
EndChar

StartChar: lslash
Encoding: 259 322 106
Width: 557
GlyphClass: 2
Flags: W
AnchorPoint: "Ancre-5" 511 1553 basechar 0
AnchorPoint: "Ancre-3" 511 -510 basechar 0
AnchorPoint: "Ancre-2" 511 1515 basechar 0
AnchorPoint: "Ancre-1" 276 10 basechar 0
AnchorPoint: "Ancre-0" 236 1553 basechar 0
LayerCount: 2
Fore
SplineSet
552 1422 m 1,0,-1
 492 929 l 1,1,-1
 613 994 l 1,2,-1
 596 853 l 2,3,4
 590 810 590 810 556 794 c 1,5,-1
 468 747 l 1,6,-1
 374 22 l 1,7,-1
 371 0 l 1,8,-1
 165 0 l 1,9,-1
 247 652 l 1,10,-1
 116 583 l 1,11,-1
 135 729 l 2,12,13
 139 767 139 767 172 785 c 2,14,-1
 271 839 l 1,15,-1
 342 1400 l 1,16,-1
 345 1422 l 1,17,-1
 552 1422 l 1,0,-1
EndSplineSet
Validated: 1
Substitution2: "sous-table 'smcp' Bas-de-casse vers petites capitales dans Latin lookup 0" lslash.smcp
EndChar

StartChar: m
Encoding: 79 109 108
Width: 1720
GlyphClass: 2
Flags: W
AnchorPoint: "Ancre-5" 1620 1492 basechar 0
AnchorPoint: "Ancre-2" 1620 1515 basechar 0
AnchorPoint: "Ancre-3" 1620 -510 basechar 0
AnchorPoint: "Ancre-1" 728 10 basechar 0
AnchorPoint: "Ancre-0" 756 1122 basechar 0
LayerCount: 2
Fore
SplineSet
396 902 m 2,0,-1
 396 893 l 1,1,-1
 389 804 l 1,2,3
 541 992 541 992 742 992 c 0,4,5
 844 992 844 992 905 937 c 128,-1,6
 966 882 966 882 981 779 c 1,7,8
 1136 992 1136 992 1361 992 c 0,9,10
 1488 992 1488 992 1553 918.5 c 128,-1,11
 1618 845 1618 845 1618 707 c 0,12,13
 1618 664 1618 664 1612 615 c 2,14,-1
 1538 22 l 1,15,-1
 1535 -0 l 1,16,-1
 1309 0 l 1,17,-1
 1389 613 l 2,18,19
 1395 656 1395 656 1395 694.5 c 128,-1,20
 1395 733 1395 733 1383 759 c 0,21,22
 1364 797 1364 797 1300 797 c 0,23,24
 1162 796 1162 796 1052 635 c 0,25,26
 1016 582 1016 582 987 511 c 1,27,-1
 924 22 l 1,28,-1
 921 -0 l 1,29,-1
 686 0 l 1,30,-1
 766 613 l 1,31,32
 773 662 773 662 773 696 c 0,33,34
 773 736 773 736 763 758 c 0,35,36
 745 796 745 796 680 797 c 0,37,38
 537 797 537 797 427 620 c 0,39,40
 391 563 391 563 362 490 c 1,41,-1
 298 -0 l 1,42,-1
 77 0 l 1,43,-1
 197 957 l 1,44,-1
 200 979 l 1,45,-1
 308 979 l 2,46,47
 346 979 346 979 371 958.5 c 128,-1,48
 396 938 396 938 396 902 c 2,0,-1
EndSplineSet
Validated: 1
Substitution2: "sous-table 'smcp' Bas-de-casse vers petites capitales dans Latin lookup 0" m.smcp
Substitution2: "sous-table 'ordn' Ordinaux dans Latin lookup 39" m.superior
Substitution2: "sous-table 'sups' Exposant lookups25" m.superior
EndChar

StartChar: n
Encoding: 80 110 109
Width: 1153
GlyphClass: 2
Flags: W
AnchorPoint: "Ancre-1" 467 10 basechar 0
AnchorPoint: "Ancre-0" 471 1122 basechar 0
AnchorPoint: "Ancre-2" 1053 1515 basechar 0
AnchorPoint: "Ancre-3" 1053 -510 basechar 0
AnchorPoint: "Ancre-5" 1053 1492 basechar 0
LayerCount: 2
Fore
SplineSet
387 792 m 1,0,1
 560 992 560 992 802 992 c 0,2,3
 936 992 936 992 1005 890 c 0,4,5
 1057 814 1057 814 1057 695 c 0,6,7
 1057 658 1057 658 1052 615 c 2,8,-1
 979 22 l 1,9,-1
 976 -0 l 1,10,-1
 744 0 l 1,11,-1
 827 613 l 2,12,13
 832 648 832 648 832 695 c 0,14,15
 832 797 832 797 728 797 c 0,16,17
 726 796 l 0,18,19
 620 796 620 796 517.5 709 c 128,-1,20
 415 622 415 622 359 483 c 1,21,-1
 300 22 l 1,22,-1
 298 0 l 1,23,-1
 72 0 l 1,24,-1
 192 957 l 1,25,-1
 195 979 l 1,26,-1
 304 979 l 2,27,28
 344 979 344 979 369.5 958.5 c 128,-1,29
 395 938 395 938 395 902 c 2,30,-1
 395 893 l 1,31,-1
 387 792 l 1,0,1
EndSplineSet
Validated: 1
Substitution2: "sous-table 'smcp' Bas-de-casse vers petites capitales dans Latin lookup 0" n.smcp
Substitution2: "sous-table 'ordn' Ordinaux dans Latin lookup 39" uni207F
Substitution2: "sous-table 'sups' Exposant lookups25" uni207F
EndChar

StartChar: eng
Encoding: 268 331 110
Width: 1046
GlyphClass: 2
Flags: W
AnchorPoint: "Ancre-5" 1055 1073 basechar 0
AnchorPoint: "Ancre-3" 1055 -510 basechar 0
AnchorPoint: "Ancre-2" 1055 1466 basechar 0
AnchorPoint: "Ancre-1" 561 -0 basechar 0
AnchorPoint: "Ancre-0" 438 1122 basechar 0
LayerCount: 2
Fore
SplineSet
798 662 m 2,0,-1
 798 672 l 2,1,2
 798 724 798 724 772 764 c 0,3,4
 746 804 746 804 672 805 c 0,5,6
 538 805 538 805 420 691 c 1,7,-1
 326 -10 l 1,8,-1
 120 -10 l 1,9,-1
 238 957 l 1,10,-1
 241 979 l 1,11,-1
 357 979 l 2,12,13
 386 979 386 979 406 963.5 c 128,-1,14
 426 948 426 948 425 917 c 1,15,-1
 425 876 l 1,16,17
 570 994 570 994 733 994 c 0,18,19
 886 994 886 994 956 885 c 0,20,21
 1004 813 1004 813 1007 688 c 0,22,23
 1007 650 1007 650 1002 610 c 2,24,-1
 928 10 l 1,25,26
 898 -253 898 -253 709 -325 c 0,27,28
 639 -352 639 -352 572 -352 c 0,29,30
 463 -352 463 -352 385 -314 c 2,31,-1
 364 -304 l 1,32,-1
 401 -208 l 1,33,34
 419 -157 419 -157 472 -157 c 0,35,36
 489 -157 489 -157 507.5 -163.5 c 128,-1,37
 526 -170 526 -170 573.5 -170 c 128,-1,38
 621 -170 621 -170 661.5 -130 c 128,-1,39
 702 -90 702 -90 714 1 c 2,40,-1
 795 613 l 2,41,42
 798 639 798 639 798 662 c 2,0,-1
EndSplineSet
Validated: 1
Substitution2: "sous-table 'smcp' Bas-de-casse vers petites capitales dans Latin lookup 0" eng.smcp
EndChar

StartChar: o
Encoding: 81 111 111
Width: 1151
GlyphClass: 2
Flags: W
AnchorPoint: "Ancre-1" 439 10 basechar 0
AnchorPoint: "Ancre-0" 446 1122 basechar 0
AnchorPoint: "Ancre-2" 1053 1515 basechar 0
AnchorPoint: "Ancre-3" 1053 -510 basechar 0
AnchorPoint: "Ancre-5" 1053 1492 basechar 0
LayerCount: 2
Fore
SplineSet
282 407 m 0,0,1
 282 173 282 173 512 173 c 2,2,-1
 514 173 l 2,3,4
 664 173 664 173 761.5 289.5 c 128,-1,5
 859 406 859 406 859 571 c 0,6,7
 859 693 859 693 801 749.5 c 128,-1,8
 743 806 743 806 649 806 c 0,9,10
 477 806 477 806 379.5 689 c 128,-1,11
 282 572 282 572 282 407 c 0,0,1
1085 580 m 2,12,-1
 1085 574 l 2,13,14
 1085 334 1085 334 926 162 c 0,15,16
 851 81 851 81 738.5 33.5 c 128,-1,17
 626 -14 626 -14 509 -14 c 0,18,19
 287 -14 287 -14 171.5 98.5 c 128,-1,20
 56 211 56 211 56 403 c 0,21,22
 56 647 56 647 216 819 c 1,23,24
 385 992 385 992 645 993 c 0,25,26
 851 992 851 992 968 880.5 c 128,-1,27
 1085 769 1085 769 1085 580 c 2,12,-1
EndSplineSet
Validated: 1
Substitution2: "sous-table 'smcp' Bas-de-casse vers petites capitales dans Latin lookup 0" o.smcp
Substitution2: "sous-table 'ordn' Ordinaux dans Latin lookup 39" o.superior
Substitution2: "sous-table 'sups' Exposant lookups25" o.superior
EndChar

StartChar: oslash
Encoding: 185 248 112
Width: 1184
GlyphClass: 2
Flags: W
AnchorPoint: "Ancre-5" 1080 1122 basechar 0
AnchorPoint: "Ancre-4" 918 550 basechar 0
AnchorPoint: "Ancre-3" 1080 -510 basechar 0
AnchorPoint: "Ancre-2" 1080 1515 basechar 0
AnchorPoint: "Ancre-1" 540 0 basechar 0
AnchorPoint: "Ancre-0" 446 1122 basechar 0
LayerCount: 2
Fore
SplineSet
134 695 m 0,0,1
 246 993 246 993 633 993 c 0,2,3
 772 993 772 993 890 932 c 1,4,-1
 945 1002 l 1,5,6
 967 1032 967 1032 988.5 1046 c 128,-1,7
 1010 1060 1010 1060 1049 1060 c 2,8,-1
 1186 1060 l 1,9,-1
 1016 839 l 1,10,11
 1133 705 1133 705 1133 492 c 0,12,13
 1133 263 1133 263 1001 125 c 0,14,15
 864 -14 864 -14 617 -14 c 0,16,17
 471 -14 471 -14 352 41 c 1,18,-1
 311 -11 l 1,19,20
 266 -74 266 -74 181 -74 c 2,21,-1
 66 -74 l 1,22,-1
 223 132 l 1,23,24
 101 267 101 267 99 489 c 0,25,26
 99 603 99 603 134 695 c 0,0,1
617 812 m 0,27,28
 402 812 402 812 340 613 c 0,29,30
 320 547 320 547 320 446.5 c 128,-1,31
 320 346 320 346 357 266 c 1,32,-1
 767 779 l 1,33,34
 704 812 704 812 617 812 c 0,27,28
475 196 m 1,35,36
 534 168 534 168 612 168 c 0,37,38
 832 168 832 168 890 365 c 0,39,40
 910 430 910 430 910 526 c 128,-1,41
 910 622 910 622 878 699 c 1,42,-1
 475 196 l 1,35,36
EndSplineSet
Validated: 1
Substitution2: "sous-table 'smcp' Bas-de-casse vers petites capitales dans Latin lookup 0" oslash.smcp
EndChar

StartChar: oe
Encoding: 276 339 113
Width: 1768
GlyphClass: 2
Flags: W
LayerCount: 2
Fore
SplineSet
46 357 m 0,0,1
 46 652 46 652 213.5 822 c 128,-1,2
 381 992 381 992 628 992 c 128,-1,3
 875 992 875 992 973 818 c 1,4,5
 1125 992 1125 992 1383 992 c 0,6,7
 1535 992 1535 992 1626 925 c 128,-1,8
 1717 858 1717 858 1717 748 c 0,9,10
 1717 612 1717 612 1569 535 c 0,11,12
 1406 452 1406 452 1021 417 c 1,13,14
 1031 174 1031 174 1270 174 c 0,15,16
 1394 174 1394 174 1487 234 c 0,17,18
 1512 250 1512 250 1548.5 275.5 c 128,-1,19
 1585 301 1585 301 1616 301 c 128,-1,20
 1647 301 1647 301 1668 275 c 2,21,-1
 1727 204 l 1,22,-1
 1710 188 l 1,23,24
 1548 32 1548 32 1370 -2 c 0,25,26
 1306 -14 1306 -14 1233 -14 c 0,27,28
 1104 -14 1104 -14 1015 42.5 c 128,-1,29
 926 99 926 99 879 192 c 1,30,31
 715 -14 715 -14 431 -14 c 0,32,33
 244 -14 244 -14 144 93 c 0,34,35
 46 199 46 199 46 357 c 0,0,1
268 335 m 0,36,37
 268 184 268 184 375 136 c 0,38,39
 413 118 413 118 481 118 c 2,40,-1
 485 118 l 1,41,42
 634 119 634 119 724.5 234 c 128,-1,43
 815 349 815 349 827 550 c 0,44,45
 828 567 828 567 829 585 c 0,46,47
 829 745 829 745 722 792 c 0,48,49
 682 810 682 810 612 810 c 0,50,51
 460 810 460 810 364 683 c 128,-1,52
 268 556 268 556 268 335 c 0,36,37
1035 569 m 1,53,54
 1522 625 1522 625 1522 752 c 0,55,56
 1522 768 1522 768 1513 785 c 0,57,58
 1482 843 1482 843 1356 843 c 128,-1,59
 1230 843 1230 843 1147.5 767 c 128,-1,60
 1065 691 1065 691 1035 569 c 1,53,54
EndSplineSet
Validated: 1
Substitution2: "sous-table 'smcp' Bas-de-casse vers petites capitales dans Latin lookup 0" oe.smcp
EndChar

StartChar: p
Encoding: 82 112 114
Width: 1153
GlyphClass: 2
Flags: W
AnchorPoint: "Ancre-1" 91 -320 basechar 0
AnchorPoint: "Ancre-0" 500 1122 basechar 0
AnchorPoint: "Ancre-2" 1053 1515 basechar 0
AnchorPoint: "Ancre-3" 1053 -510 basechar 0
AnchorPoint: "Ancre-5" 1053 1492 basechar 0
LayerCount: 2
Fore
SplineSet
402 902 m 2,0,-1
 402 893 l 1,1,-1
 392 776 l 1,2,3
 512 921 512 921 661 970 c 0,4,5
 726 992 726 992 793 992 c 0,6,7
 945 992 945 992 1024 897 c 128,-1,8
 1103 802 1103 802 1103 626 c 0,9,10
 1103 384 1103 384 956 191 c 0,11,12
 860 65 860 65 713 14 c 0,13,14
 638 -14 638 -14 555 -14 c 0,15,16
 406 -14 406 -14 305 67 c 1,17,-1
 257 -308 l 1,18,-1
 254 -330 l 1,19,-1
 33 -330 l 1,20,-1
 195 957 l 1,21,-1
 198 979 l 1,22,-1
 311 979 l 2,23,24
 351 979 351 979 376.5 958.5 c 128,-1,25
 402 938 402 938 402 902 c 2,0,-1
360 459 m 1,26,-1
 329 244 l 1,27,28
 400 172 400 172 539.5 172 c 128,-1,29
 679 172 679 172 779 307.5 c 128,-1,30
 879 443 879 443 879 607 c 0,31,32
 879 802 879 802 712 802 c 0,33,34
 625 802 625 802 523.5 707 c 128,-1,35
 422 612 422 612 360 459 c 1,26,-1
EndSplineSet
Validated: 1
Substitution2: "sous-table 'smcp' Bas-de-casse vers petites capitales dans Latin lookup 0" p.smcp
Substitution2: "sous-table 'ordn' Ordinaux dans Latin lookup 39" p.superior
Substitution2: "sous-table 'sups' Exposant lookups25" p.superior
EndChar

StartChar: thorn
Encoding: 191 254 115
Width: 1176
GlyphClass: 2
Flags: W
LayerCount: 2
Fore
SplineSet
985 134 m 128,-1,1
 928 65 928 65 839 25.5 c 128,-1,2
 750 -14 750 -14 613 -14 c 128,-1,3
 476 -14 476 -14 370 75 c 1,4,-1
 370 -330 l 1,5,-1
 144 -330 l 1,6,-1
 144 1422 l 1,7,-1
 370 1422 l 1,8,-1
 370 876 l 1,9,10
 506 993 506 993 694 993 c 0,11,12
 992 993 992 993 1075 706 c 0,13,14
 1102 614 1102 614 1102 501.5 c 128,-1,15
 1102 389 1102 389 1072 296 c 128,-1,0
 1042 203 1042 203 985 134 c 128,-1,1
370 262 m 1,16,17
 449 172 449 172 587.5 172 c 128,-1,18
 726 172 726 172 798.5 254.5 c 128,-1,19
 871 337 871 337 871 495 c 0,20,21
 871 736 871 736 732 787 c 0,22,23
 686 804 686 804 629 804 c 0,24,25
 475 804 475 804 370 684 c 1,26,-1
 370 262 l 1,16,17
EndSplineSet
Validated: 1
Substitution2: "sous-table 'smcp' Bas-de-casse vers petites capitales dans Latin lookup 0" thorn.smcp
EndChar

StartChar: q
Encoding: 83 113 116
Width: 1153
GlyphClass: 2
Flags: W
AnchorPoint: "Ancre-1" 709 -314 basechar 0
AnchorPoint: "Ancre-0" 500 1122 basechar 0
AnchorPoint: "Ancre-2" 1053 1515 basechar 0
AnchorPoint: "Ancre-3" 1053 -510 basechar 0
AnchorPoint: "Ancre-5" 1053 1492 basechar 0
LayerCount: 2
Fore
SplineSet
766 -330 m 2,0,1
 680 -330 680 -330 674 -246 c 1,2,-1
 674 -245 l 1,3,4
 675 -238 675 -238 676 -229 c 2,5,-1
 732 171 l 1,6,7
 570 -14 570 -14 355 -14 c 0,8,9
 211 -14 211 -14 129.5 80 c 128,-1,10
 48 174 48 174 48 343.5 c 128,-1,11
 48 513 48 513 141 663 c 0,12,13
 283 892 283 892 577 965 c 0,14,15
 672 989 672 989 807 990 c 1,16,-1
 809 991 l 1,17,-1
 816 991 l 2,18,19
 952 991 952 991 1065 938 c 1,20,-1
 906 -308 l 1,21,-1
 903 -330 l 1,22,-1
 766 -330 l 2,0,1
786 527 m 1,23,-1
 828 810 l 1,24,25
 786 814 786 814 721 814 c 128,-1,26
 656 814 656 814 568.5 778 c 128,-1,27
 481 742 481 742 415 682 c 0,28,29
 274 552 274 552 274 377 c 0,30,31
 274 274 274 274 312 228 c 128,-1,32
 350 182 350 182 440 182 c 128,-1,33
 530 182 530 182 625.5 276 c 128,-1,34
 721 370 721 370 786 527 c 1,23,-1
EndSplineSet
Validated: 1
Substitution2: "sous-table 'smcp' Bas-de-casse vers petites capitales dans Latin lookup 0" q.smcp
Substitution2: "sous-table 'ordn' Ordinaux dans Latin lookup 39" q.superior
Substitution2: "sous-table 'sups' Exposant lookups25" q.superior
EndChar

StartChar: r
Encoding: 84 114 117
Width: 802
GlyphClass: 2
Flags: W
AnchorPoint: "Ancre-5" 770 1492 basechar 0
AnchorPoint: "Ancre-2" 770 1515 basechar 0
AnchorPoint: "Ancre-3" 770 -510 basechar 0
AnchorPoint: "Ancre-1" 135 10 basechar 0
AnchorPoint: "Ancre-0" 272 1122 basechar 0
LayerCount: 2
Fore
SplineSet
405 902 m 2,0,-1
 405 893 l 1,1,-1
 396 786 l 1,2,3
 550 986 550 986 715 986 c 0,4,5
 759 986 759 986 826 960 c 1,6,-1
 792 770 l 1,7,-1
 786 741 l 1,8,-1
 758 752 l 2,9,10
 714 769 714 769 661 769 c 128,-1,11
 608 769 608 769 547 723 c 1,12,13
 432 646 432 646 357 439 c 1,14,-1
 294 -0 l 1,15,-1
 72 0 l 1,16,-1
 193 957 l 1,17,-1
 196 979 l 1,18,-1
 305 979 l 2,19,20
 348 979 348 979 376.5 958.5 c 128,-1,21
 405 938 405 938 405 902 c 2,0,-1
EndSplineSet
Validated: 1
Substitution2: "sous-table 'smcp' Bas-de-casse vers petites capitales dans Latin lookup 0" r.smcp
Substitution2: "sous-table 'ordn' Ordinaux dans Latin lookup 39" r.superior
Substitution2: "sous-table 'sups' Exposant lookups25" r.superior
EndChar

StartChar: s
Encoding: 85 115 118
Width: 897
GlyphClass: 2
Flags: W
AnchorPoint: "Ancre-5" 797 1492 basechar 0
AnchorPoint: "Ancre-2" 797 1515 basechar 0
AnchorPoint: "Ancre-3" 797 -510 basechar 0
AnchorPoint: "Ancre-1" 283 10 basechar 0
AnchorPoint: "Ancre-0" 310 1122 basechar 0
LayerCount: 2
Fore
SplineSet
891 861 m 1,0,-1
 836 781 l 1,1,2
 812 748 812 748 784.5 748 c 128,-1,3
 757 748 757 748 738 760 c 0,4,5
 654 816 654 816 567 816 c 1,6,-1
 558 817 l 1,7,8
 453 816 453 816 396 780 c 128,-1,9
 339 744 339 744 339 696 c 0,10,11
 339 634 339 634 480 582 c 0,12,13
 525 565 525 565 606 535.5 c 128,-1,14
 687 506 687 506 750.5 459.5 c 128,-1,15
 814 413 814 413 814 333 c 0,16,17
 814 186 814 186 695 86 c 0,18,19
 577 -10 577 -10 356 -14 c 1,20,-1
 355 -15 l 1,21,-1
 343 -15 l 2,22,23
 139 -15 139 -15 25 112 c 1,24,-1
 12 126 l 1,25,-1
 64 208 l 2,26,27
 88 247 88 247 122 247 c 0,28,29
 158 247 158 247 176 230 c 0,30,31
 254 158 254 158 354 158 c 2,32,-1
 356 158 l 1,33,34
 486 159 486 159 544.5 200.5 c 128,-1,35
 603 242 603 242 603 290 c 128,-1,36
 603 338 603 338 575 360 c 0,37,38
 524 401 524 401 414.5 433 c 128,-1,39
 305 465 305 465 249 491 c 0,40,41
 124 555 124 555 123 669 c 0,42,43
 124 801 124 801 236 897 c 1,44,45
 360 992 360 992 560 992 c 128,-1,46
 760 992 760 992 876 876 c 2,47,-1
 891 861 l 1,0,-1
EndSplineSet
Validated: 1
Substitution2: "sous-table 'sups' Exposant lookups25" s.superior
Substitution2: "sous-table 'ordn' Ordinaux dans Latin lookup 39" s.superior
Substitution2: "sous-table 'smcp' Bas-de-casse vers petites capitales dans Latin lookup 0" s.smcp
EndChar

StartChar: scedilla
Encoding: 288 351 119
Width: 897
GlyphClass: 2
Flags: W
AnchorPoint: "Ancre-5" 801 1122 basechar 0
AnchorPoint: "Ancre-3" 801 -510 basechar 0
AnchorPoint: "Ancre-2" 801 1515 basechar 0
AnchorPoint: "Ancre-1" 382 -310 basechar 0
AnchorPoint: "Ancre-0" 310 1122 basechar 0
LayerCount: 2
Fore
SplineSet
344 -58 m 1,0,1
 496 -95 496 -95 496 -197 c 0,2,3
 496 -283 496 -283 405 -332 c 0,4,5
 331 -372 331 -372 227 -372 c 0,6,7
 148 -372 148 -372 88 -339 c 1,8,-1
 69 -328 l 1,9,-1
 99 -254 l 1,10,-1
 99 -253 l 1,11,-1
 100 -252 l 1,12,13
 115 -221 115 -221 136 -221 c 128,-1,14
 157 -221 157 -221 174 -229 c 0,15,16
 204 -243 204 -243 229 -243 c 0,17,18
 283 -243 283 -243 291 -208 c 1,19,-1
 291 -206 l 1,20,21
 292 -202 292 -202 292 -198 c 0,22,23
 292 -176 292 -176 173 -160 c 1,24,-1
 140 -155 l 1,25,-1
 207 0 l 1,26,27
 99 29 99 29 25 112 c 1,28,-1
 12 126 l 1,29,-1
 64 208 l 2,30,31
 88 247 88 247 122 247 c 0,32,33
 158 247 158 247 176 230 c 0,34,35
 254 158 254 158 354 158 c 2,36,-1
 356 158 l 1,37,38
 486 159 486 159 544.5 200.5 c 128,-1,39
 603 242 603 242 603 290 c 128,-1,40
 603 338 603 338 575 360 c 0,41,42
 524 401 524 401 414.5 433 c 128,-1,43
 305 465 305 465 249 491 c 0,44,45
 124 555 124 555 123 669 c 0,46,47
 124 801 124 801 236 897 c 1,48,49
 360 992 360 992 560 992 c 128,-1,50
 760 992 760 992 876 876 c 2,51,-1
 891 861 l 1,52,-1
 836 781 l 1,53,54
 812 748 812 748 784.5 748 c 128,-1,55
 757 748 757 748 738 760 c 0,56,57
 654 816 654 816 567 816 c 1,58,-1
 558 817 l 1,59,60
 453 816 453 816 396 780 c 128,-1,61
 339 744 339 744 339 696 c 0,62,63
 339 634 339 634 480 582 c 0,64,65
 525 565 525 565 606 535 c 128,-1,66
 687 505 687 505 750.5 458 c 128,-1,67
 814 411 814 411 814 332 c 0,68,69
 814 185 814 185 695 85 c 1,70,71
 573 -10 573 -10 364 -14 c 1,72,-1
 344 -58 l 1,0,1
EndSplineSet
Validated: 1
Substitution2: "sous-table 'smcp' Bas-de-casse vers petites capitales dans Latin lookup 0" scedilla.smcp
LCarets2: 1 0
Ligature2: "sous-table 'ccmp' Composition et d+AOkA-composition de glyphe (CJK) lookups10" s uni0327
Substitution2: "sous-table 'salt' Alternatives stylistiques dans Latin lookup 8" uni0219
EndChar

StartChar: s_t.dlig
Encoding: 2546 -1 120
Width: 1545
GlyphClass: 3
Flags: W
LayerCount: 2
Fore
SplineSet
712 1143 m 1,0,-1
 712 1120 l 2,1,2
 712 1031 712 1031 771 951 c 1,3,4
 804 934 804 934 845 898 c 2,5,-1
 861 884 l 1,6,-1
 803 806 l 2,7,8
 778 773 778 773 749 773 c 0,9,10
 720 774 720 774 700 786 c 0,11,12
 611 841 611 841 535 841 c 0,13,14
 534 841 534 841 532 841 c 0,15,16
 530 841 530 841 521 842 c 0,17,18
 428 841 428 841 376 804 c 128,-1,19
 324 767 324 767 323 717 c 0,20,21
 324 653 324 653 452 600 c 0,22,23
 493 583 493 583 570 552 c 128,-1,24
 647 521 647 521 713.5 472.5 c 128,-1,25
 780 424 780 424 780 344 c 0,26,27
 780 191 780 191 660 92 c 128,-1,28
 540 -7 540 -7 354 -14 c 1,29,-1
 354 -15 l 1,30,-1
 328 -15 l 2,31,32
 131 -15 131 -15 16 109 c 2,33,-1
 3 123 l 1,34,-1
 55 203 l 2,35,36
 79 241 79 241 113 241 c 0,37,38
 114 240 l 0,39,40
 149 240 149 240 172 220 c 0,41,42
 247 154 247 154 324 154 c 2,43,-1
 325 154 l 1,44,45
 456 155 456 155 510 198.5 c 128,-1,46
 564 242 564 242 564 291.5 c 128,-1,47
 564 341 564 341 539 363 c 0,48,49
 491 405 491 405 391 439 c 128,-1,50
 291 473 291 473 239 499 c 0,51,52
 114 566 114 566 114 693 c 128,-1,53
 114 820 114 820 226 919 c 0,54,55
 341 1017 341 1017 526 1017 c 0,56,57
 559 1017 559 1017 589 1014 c 1,58,59
 572 1068 572 1068 572 1095 c 2,60,-1
 572 1125 l 2,61,62
 572 1229 572 1229 641 1333.5 c 128,-1,63
 710 1438 710 1438 849 1484 c 0,64,65
 921 1508 921 1508 1009 1508 c 0,66,67
 1181 1508 1181 1508 1264 1415 c 0,68,69
 1329 1341 1329 1341 1329 1235 c 0,70,71
 1329 1209 1329 1209 1326 1183 c 2,72,-1
 1297 968 l 1,73,-1
 1553 968 l 1,74,-1
 1536 817 l 1,75,-1
 1534 795 l 1,76,-1
 1275 795 l 1,77,-1
 1204 263 l 2,78,79
 1202 249 1202 249 1202 228 c 128,-1,80
 1202 207 1202 207 1216.5 189.5 c 128,-1,81
 1231 172 1231 172 1257 172 c 0,82,83
 1300 172 1300 172 1331.5 197 c 128,-1,84
 1363 222 1363 222 1382 222 c 2,85,-1
 1383 222 l 2,86,87
 1408 222 1408 222 1425 190 c 2,88,-1
 1466 109 l 1,89,-1
 1474 92 l 1,90,91
 1359 -15 1359 -15 1228 -15 c 0,92,93
 968 -15 968 -15 968 198 c 0,94,95
 968 224 968 224 973 254 c 1,96,-1
 1044 795 l 1,97,-1
 963 795 l 2,98,99
 938 795 938 795 920.5 809.5 c 128,-1,100
 903 824 903 824 904 850 c 1,101,-1
 904 857 l 1,102,-1
 912 921 l 1,103,-1
 914 940 l 1,104,-1
 1075 959 l 1,105,-1
 1141 1153 l 2,106,107
 1158 1205 1158 1205 1158 1250 c 0,108,109
 1158 1382 1158 1382 1002 1387 c 1,110,-1
 1001 1386 l 1,111,-1
 990 1386 l 2,112,113
 875 1386 875 1386 797.5 1316 c 128,-1,114
 720 1246 720 1246 712 1143 c 1,0,-1
EndSplineSet
Validated: 1
Ligature2: "sous-table 'dlig' Ligatures facultatives  dans Latin lookup 36" s t
EndChar

StartChar: glyph121
Encoding: 2547 -1 121
Width: 1545
GlyphClass: 3
Flags: W
LayerCount: 2
Fore
SplineSet
903 865 m 2,0,-1
 903 873 l 1,1,-1
 912 937 l 1,2,-1
 914 956 l 1,3,-1
 1081 976 l 1,4,5
 1150 1142 1150 1142 1150 1221 c 128,-1,6
 1150 1300 1150 1300 1124 1335 c 0,7,8
 1083 1386 1083 1386 1005 1386 c 0,9,10
 857 1386 857 1386 783 1309.5 c 128,-1,11
 709 1233 709 1233 709 1134 c 128,-1,12
 709 1035 709 1035 765 953 c 1,13,14
 809 929 809 929 843 898 c 2,15,-1
 858 884 l 1,16,-1
 801 806 l 2,17,18
 776 773 776 773 747 773 c 0,19,20
 718 774 718 774 698 786 c 0,21,22
 609 841 609 841 533 841 c 0,23,24
 532 841 532 841 530 841 c 128,-1,25
 528 841 528 841 519 842 c 0,26,27
 426 841 426 841 373.5 803.5 c 128,-1,28
 321 766 321 766 321 716 c 0,29,30
 322 651 322 651 450 598 c 0,31,32
 491 580 491 580 568 549.5 c 128,-1,33
 645 519 645 519 711.5 470 c 128,-1,34
 778 421 778 421 778 342 c 0,35,36
 778 201 778 201 677.5 103 c 128,-1,37
 577 5 577 5 419 -16 c 1,38,-1
 411 -34 l 1,39,40
 544 -74 544 -74 544 -170 c 0,41,42
 544 -248 544 -248 473.5 -294 c 128,-1,43
 403 -340 403 -340 309 -340 c 2,44,-1
 308 -340 l 2,45,46
 217 -340 217 -340 152 -305 c 2,47,-1
 132 -294 l 1,48,-1
 164 -221 l 1,49,-1
 165 -220 l 1,50,51
 180 -190 180 -190 202 -190 c 0,52,53
 226 -190 226 -190 234 -196 c 0,54,55
 263 -214 263 -214 293 -214 c 2,56,-1
 298 -214 l 2,57,58
 323 -214 323 -214 337.5 -201.5 c 128,-1,59
 352 -189 352 -189 352 -173 c 0,60,61
 351 -143 351 -143 236 -128 c 2,62,-1
 204 -124 l 1,63,-1
 249 -13 l 1,64,65
 100 10 100 10 14 106 c 1,66,-1
 1 120 l 1,67,-1
 53 200 l 2,68,69
 77 238 77 238 111 238 c 0,70,-1
 112 238 l 0,71,72
 147 238 147 238 170 217 c 0,73,74
 245 151 245 151 322 151 c 2,75,-1
 323 151 l 1,76,77
 454 152 454 152 508 195.5 c 128,-1,78
 562 239 562 239 562 288.5 c 128,-1,79
 562 338 562 338 537 360 c 0,80,81
 489 403 489 403 389 436.5 c 128,-1,82
 289 470 289 470 237 497 c 0,83,84
 112 564 112 564 112 691.5 c 128,-1,85
 112 819 112 819 224 919 c 0,86,87
 339 1017 339 1017 524 1017 c 0,88,89
 555 1017 555 1017 585 1014 c 1,90,91
 571 1065 571 1065 571 1122 c 0,92,93
 571 1284 571 1284 682 1396 c 0,94,95
 793 1509 793 1509 983 1509 c 0,96,-1
 984 1508 l 0,97,98
 1174 1508 1174 1508 1258 1411 c 0,99,100
 1324 1333 1324 1333 1324 1228 c 0,101,102
 1324 1202 1324 1202 1321 1179 c 2,103,-1
 1295 983 l 1,104,-1
 1552 983 l 1,105,-1
 1529 810 l 1,106,-1
 1273 810 l 1,107,-1
 1200 242 l 2,108,109
 1198 227 1198 227 1198 214 c 0,110,111
 1198 184 1198 184 1210 170 c 0,112,113
 1226 148 1226 148 1251 148 c 0,114,115
 1288 148 1288 148 1310 162 c 128,-1,116
 1332 176 1332 176 1345 185 c 128,-1,117
 1358 194 1358 194 1380.5 194.5 c 128,-1,118
 1403 195 1403 195 1417 165 c 1,119,-1
 1458 84 l 1,120,-1
 1466 67 l 1,121,122
 1351 -40 1351 -40 1221 -40 c 0,123,124
 964 -40 964 -40 964 180 c 0,125,126
 964 207 964 207 969 237 c 1,127,-1
 1042 810 l 1,128,-1
 962 810 l 2,129,130
 935 810 935 810 919 826.5 c 128,-1,131
 903 843 903 843 903 865 c 2,0,-1
EndSplineSet
Validated: 1
EndChar

StartChar: germandbls
Encoding: 160 223 122
Width: 1180
GlyphClass: 2
Flags: W
LayerCount: 2
Fore
SplineSet
321 46 m 1,0,-1
 321 44 l 1,1,-1
 271 -147 l 1,2,3
 250 -240 250 -240 158 -240 c 2,4,-1
 61 -240 l 1,5,-1
 192 792 l 1,6,-1
 110 802 l 1,7,8
 47 811 47 811 47 859 c 0,9,10
 47 864 47 864 48 871 c 2,11,-1
 56 937 l 1,12,-1
 59 958 l 1,13,-1
 222 958 l 1,14,15
 274 1139 274 1139 425.5 1271 c 128,-1,16
 577 1403 577 1403 767.5 1403 c 128,-1,17
 958 1403 958 1403 1050.5 1310 c 128,-1,18
 1143 1217 1143 1217 1143 1101 c 0,19,20
 1142 942 1142 942 977 840 c 0,21,22
 881 782 881 782 854.5 754.5 c 128,-1,23
 828 727 828 727 828 703.5 c 128,-1,24
 828 680 828 680 846 665 c 0,25,26
 871 644 871 644 963 600 c 0,27,28
 1120 523 1120 523 1120 354 c 128,-1,29
 1120 185 1120 185 1002 85 c 128,-1,30
 884 -15 884 -15 696.5 -15 c 128,-1,31
 509 -15 509 -15 382 111 c 2,32,-1
 367 126 l 1,33,-1
 432 207 l 1,34,35
 458 243 458 243 495 243 c 0,36,37
 496 242 l 0,38,39
 534 242 534 242 560 222 c 0,40,41
 647 154 647 154 706 154 c 2,42,-1
 707 154 l 1,43,44
 809 155 809 155 859 200 c 0,45,46
 908 246 908 246 908 296.5 c 128,-1,47
 908 347 908 347 891 368 c 0,48,49
 857 404 857 404 784.5 430.5 c 128,-1,50
 712 457 712 457 672 484 c 0,51,52
 575 546 575 546 575 656 c 0,53,54
 575 800 575 800 766 906 c 0,55,56
 811 931 811 931 849 960 c 0,57,58
 929 1021 929 1021 929 1103 c 0,59,60
 929 1143 929 1143 909 1171 c 0,61,62
 865 1228 865 1228 750.5 1228 c 128,-1,63
 636 1228 636 1228 546 1120 c 128,-1,64
 456 1012 456 1012 435 855 c 1,65,-1
 321 46 l 1,0,-1
EndSplineSet
Validated: 1
Substitution2: "sous-table 'smcp' Bas-de-casse vers petites capitales dans Latin lookup 0" germandbls.smcp
EndChar

StartChar: longs
Encoding: 320 383 123
Width: 597
GlyphClass: 2
Flags: W
LayerCount: 2
Fore
SplineSet
716 1227 m 2,0,-1
 703 1227 l 1,1,2
 690 1228 690 1228 661 1228 c 0,3,4
 599 1228 599 1228 554 1182 c 1,5,6
 497 1134 497 1134 479 1020 c 2,7,-1
 325 46 l 1,8,-1
 325 44 l 1,9,-1
 324 43 l 1,10,-1
 271 -147 l 1,11,12
 250 -240 250 -240 158 -240 c 2,13,-1
 62 -240 l 1,14,-1
 193 792 l 1,15,-1
 110 802 l 1,16,17
 47 811 47 811 47 859 c 0,18,19
 47 864 47 864 48 871 c 2,20,-1
 56 937 l 1,21,-1
 59 958 l 1,22,-1
 214 958 l 1,23,-1
 223 1031 l 2,24,25
 244 1205 244 1205 360 1304 c 1,26,27
 488 1403 488 1403 661 1403 c 0,28,29
 721 1403 721 1403 781 1382 c 1,30,-1
 801 1374 l 1,31,-1
 782 1266 l 1,32,33
 774 1227 774 1227 716 1227 c 2,0,-1
EndSplineSet
Validated: 1
EndChar

StartChar: t
Encoding: 86 116 124
Width: 736
GlyphClass: 2
Flags: W
AnchorPoint: "Ancre-5" 688 1538 basechar 0
AnchorPoint: "Ancre-2" 688 1515 basechar 0
AnchorPoint: "Ancre-3" 688 -510 basechar 0
AnchorPoint: "Ancre-1" 327 10 basechar 0
AnchorPoint: "Ancre-0" 259 1492 basechar 0
LayerCount: 2
Fore
SplineSet
331 1245 m 1,0,1
 348 1295 348 1295 396 1295 c 2,2,-1
 517 1295 l 1,3,-1
 476 960 l 1,4,-1
 742 960 l 1,5,-1
 724 804 l 1,6,-1
 721 782 l 1,7,-1
 454 782 l 1,8,-1
 398 362 l 2,9,10
 383 255 383 255 383 231 c 0,11,12
 383 178 383 178 448 178 c 0,13,14
 490 178 490 178 523 201 c 128,-1,15
 556 224 556 224 578.5 224 c 128,-1,16
 601 224 601 224 615 192 c 2,17,-1
 653 108 l 1,18,-1
 660 91 l 1,19,-1
 646 79 l 1,20,21
 538 -15 538 -15 413 -15 c 0,22,23
 161 -15 161 -15 161 203 c 0,24,25
 161 250 161 250 175 351 c 2,26,-1
 232 782 l 1,27,-1
 147 782 l 2,28,29
 122 782 122 782 107 798.5 c 128,-1,30
 92 815 92 815 92 839 c 2,31,-1
 92 849 l 1,32,-1
 100 919 l 1,33,-1
 102 938 l 1,34,-1
 261 960 l 1,35,-1
 331 1243 l 1,36,-1
 331 1245 l 1,0,1
EndSplineSet
Validated: 1
Substitution2: "sous-table 'smcp' Bas-de-casse vers petites capitales dans Latin lookup 0" t.smcp
Substitution2: "sous-table 'ordn' Ordinaux dans Latin lookup 39" t.superior
Substitution2: "sous-table 'sups' Exposant lookups25" t.superior
EndChar

StartChar: tbar
Encoding: 296 359 126
Width: 750
GlyphClass: 2
Flags: W
AnchorPoint: "Ancre-0" 259 1492 basechar 0
AnchorPoint: "Ancre-1" 421 0 basechar 0
AnchorPoint: "Ancre-2" 683 1515 basechar 0
AnchorPoint: "Ancre-3" 683 -510 basechar 0
AnchorPoint: "Ancre-5" 683 1434 basechar 0
LayerCount: 2
Fore
SplineSet
394 239 m 0,0,1
 396 178 396 178 441 178 c 0,2,3
 470 178 470 178 488 192 c 0,4,5
 506 204 506 204 518 214 c 0,6,7
 532 224 532 224 548 224 c 0,8,9
 578 224 578 224 589 191 c 1,10,-1
 622 107 l 1,11,-1
 629 92 l 1,12,13
 513 -15 513 -15 394 -15 c 128,-1,14
 275 -15 275 -15 223 57 c 0,15,16
 185 110 185 110 184 194 c 0,17,18
 184 221 184 221 188 252 c 2,19,-1
 224 532 l 1,20,-1
 105 532 l 1,21,-1
 121 671 l 1,22,-1
 124 693 l 1,23,-1
 244 693 l 1,24,-1
 258 782 l 1,25,-1
 190 782 l 2,26,27
 164 782 164 782 150.5 801 c 128,-1,28
 137 820 137 820 139 849 c 1,29,-1
 148 919 l 1,30,-1
 151 938 l 1,31,-1
 287 958 l 1,32,-1
 357 1243 l 1,33,34
 371 1295 371 1295 420 1295 c 2,35,-1
 528 1295 l 1,36,-1
 486 960 l 1,37,-1
 716 960 l 1,38,-1
 698 804 l 1,39,-1
 695 782 l 1,40,-1
 465 782 l 1,41,-1
 451 693 l 1,42,-1
 685 693 l 1,43,-1
 668 554 l 1,44,-1
 665 532 l 1,45,-1
 431 532 l 1,46,-1
 396 264 l 2,47,48
 394 251 394 251 394 239 c 0,0,1
EndSplineSet
Validated: 1
Substitution2: "sous-table 'smcp' Bas-de-casse vers petites capitales dans Latin lookup 0" tbar.smcp
EndChar

StartChar: t_f.liga
Encoding: 2548 -1 127
Width: 1354
GlyphClass: 3
Flags: W
LayerCount: 2
Fore
SplineSet
111 865 m 2,0,-1
 111 873 l 1,1,-1
 119 938 l 1,2,-1
 121 956 l 1,3,-1
 277 975 l 1,4,-1
 351 1251 l 1,5,6
 366 1299 366 1299 421 1299 c 2,7,-1
 542 1299 l 1,8,-1
 497 976 l 1,9,-1
 925 976 l 1,10,-1
 935 1047 l 1,11,12
 957 1215 957 1215 1068 1308.5 c 128,-1,13
 1179 1402 1179 1402 1341 1403 c 0,14,15
 1404 1403 1404 1403 1463 1383 c 2,16,-1
 1483 1376 l 1,17,-1
 1465 1270 l 2,18,19
 1457 1227 1457 1227 1415 1225 c 0,20,21
 1392 1223 1392 1223 1351 1223 c 0,22,23
 1270 1223 1270 1223 1223 1179 c 128,-1,24
 1176 1135 1176 1135 1161 1039 c 1,25,-1
 1153 983 l 1,26,-1
 1423 983 l 1,27,-1
 1405 832 l 1,28,-1
 1402 810 l 1,29,-1
 1136 810 l 1,30,-1
 1030 21 l 1,31,-1
 1027 0 l 1,32,-1
 795 0 l 1,33,-1
 903 835 l 1,34,-1
 475 835 l 1,35,-1
 401 267 l 1,36,37
 399 252 399 252 399 240 c 0,38,39
 398 210 398 210 412 194 c 0,40,41
 432 172 432 172 460 173 c 0,42,43
 505 173 505 173 540 196.5 c 128,-1,44
 575 220 575 220 597 220 c 128,-1,45
 619 220 619 220 638 192 c 1,46,-1
 639 191 l 1,47,-1
 639 190 l 1,48,-1
 692 92 l 1,49,50
 569 -15 569 -15 434 -15 c 0,51,52
 177 -15 177 -15 175 200 c 0,53,54
 175 226 175 226 178 254 c 2,55,-1
 248 810 l 1,56,-1
 167 810 l 2,57,58
 141 810 141 810 126 826.5 c 128,-1,59
 111 843 111 843 111 865 c 2,0,-1
EndSplineSet
Validated: 1
Ligature2: "sous-table 'liga' Ligatures standard dans Latin lookup 37" t f
EndChar

StartChar: t_iogonek.liga
Encoding: 2549 -1 128
Width: 1241
GlyphClass: 3
Flags: W
LayerCount: 2
Fore
SplineSet
1118 -264 m 1,0,1
 1027 -329 1027 -329 925 -329 c 128,-1,2
 823 -329 823 -329 769.5 -291.5 c 128,-1,3
 716 -254 716 -254 716 -189 c 0,4,5
 716 -92 716 -92 824 -14 c 1,6,-1
 935 810 l 1,7,-1
 477 810 l 1,8,-1
 402 242 l 2,9,10
 400 228 400 228 400 205.5 c 128,-1,11
 400 183 400 183 416 165 c 128,-1,12
 432 147 432 147 455 147 c 2,13,-1
 457 147 l 2,14,15
 500 147 500 147 525.5 161.5 c 128,-1,16
 551 176 551 176 565 185 c 0,17,18
 583 196 583 196 598 196 c 0,19,20
 623 196 623 196 643 167 c 1,21,-1
 644 166 l 1,22,-1
 644 165 l 1,23,-1
 697 67 l 1,24,-1
 681 54 l 2,25,26
 564 -40 564 -40 432 -40 c 0,27,28
 174 -40 174 -40 174 184 c 0,29,30
 174 209 174 209 177 237 c 2,31,-1
 248 810 l 1,32,-1
 166 810 l 2,33,34
 141 810 141 810 126 826.5 c 128,-1,35
 111 843 111 843 111 867 c 2,36,-1
 111 876 l 1,37,-1
 119 943 l 1,38,-1
 121 962 l 1,39,-1
 277 982 l 1,40,-1
 351 1269 l 1,41,42
 367 1320 367 1320 422 1320 c 2,43,-1
 546 1320 l 1,44,-1
 500 983 l 1,45,-1
 1182 983 l 1,46,-1
 1062 18 l 1,47,-1
 1059 -4 l 1,48,-1
 1028 -4 l 1,49,50
 953 -41 953 -41 924 -96 c 0,51,52
 914 -114 914 -114 914 -138 c 0,53,54
 914 -178 914 -178 958 -178 c 0,55,56
 1008 -178 1008 -178 1024.5 -166.5 c 128,-1,57
 1041 -155 1041 -155 1054 -155 c 0,58,59
 1084 -155 1084 -155 1093 -186 c 1,60,-1
 1113 -246 l 1,61,-1
 1118 -264 l 1,0,1
1205 1162.5 m 128,-1,63
 1156 1114 1156 1114 1097.5 1114 c 128,-1,64
 1039 1114 1039 1114 999.5 1153.5 c 128,-1,65
 960 1193 960 1193 960 1254 c 128,-1,66
 960 1315 960 1315 1011.5 1361.5 c 128,-1,67
 1063 1408 1063 1408 1109 1408 c 0,68,69
 1210 1408 1210 1408 1244 1324 c 0,70,71
 1254 1299 1254 1299 1254 1271 c 0,72,62
 1254 1211 1254 1211 1205 1162.5 c 128,-1,63
EndSplineSet
Validated: 1
Ligature2: "sous-table 'liga' Ligatures standard dans Latin lookup 37" t iogonek
EndChar

StartChar: t_dotlessi.liga
Encoding: 2550 -1 129
Width: 1241
GlyphClass: 3
Flags: W
LayerCount: 2
Fore
SplineSet
111 864 m 2,0,-1
 111 873 l 1,1,-1
 119 936 l 1,2,-1
 121 955 l 1,3,-1
 277 973 l 1,4,-1
 351 1246 l 1,5,6
 367 1295 367 1295 423 1295 c 2,7,-1
 548 1295 l 1,8,-1
 502 983 l 1,9,-1
 1182 983 l 1,10,-1
 1062 21 l 1,11,-1
 1059 -0 l 1,12,-1
 828 0 l 1,13,-1
 941 835 l 1,14,-1
 479 835 l 1,15,-1
 403 267 l 2,16,17
 401 253 401 253 401 230.5 c 128,-1,18
 401 208 401 208 416.5 190 c 128,-1,19
 432 172 432 172 456 172 c 2,20,-1
 458 172 l 2,21,22
 502 172 502 172 527.5 187 c 128,-1,23
 553 202 553 202 567 211 c 128,-1,24
 581 220 581 220 604 220 c 128,-1,25
 627 220 627 220 646 192 c 1,26,-1
 647 191 l 1,27,-1
 647 190 l 1,28,-1
 691 109 l 1,29,-1
 701 92 l 1,30,-1
 685 79 l 1,31,32
 567 -15 567 -15 433 -15 c 0,33,34
 174 -15 174 -15 174 202 c 0,35,36
 174 227 174 227 177 254 c 2,37,-1
 248 810 l 1,38,-1
 166 810 l 2,39,40
 141 810 141 810 126 825.5 c 128,-1,41
 111 841 111 841 111 864 c 2,0,-1
EndSplineSet
Validated: 1
Ligature2: "sous-table 'liga' Ligatures standard dans Latin lookup 37" t dotlessi
EndChar

StartChar: t_t.liga
Encoding: 2551 -1 130
Width: 1399
GlyphClass: 3
Flags: W
LayerCount: 2
Fore
SplineSet
1348 92 m 1,0,1
 1225 -15 1225 -15 1090 -15 c 128,-1,2
 955 -15 955 -15 887 42 c 128,-1,3
 819 99 819 99 819 207 c 0,4,5
 819 232 819 232 822 262 c 2,6,-1
 897 835 l 1,7,-1
 481 835 l 1,8,-1
 407 267 l 2,9,10
 405 254 405 254 405 231.5 c 128,-1,11
 405 209 405 209 422 190.5 c 128,-1,12
 439 172 439 172 463 172 c 2,13,-1
 466 172 l 2,14,15
 522 172 522 172 573 208 c 0,16,17
 591 220 591 220 613.5 220 c 128,-1,18
 636 220 636 220 654 192 c 1,19,-1
 655 191 l 1,20,-1
 655 190 l 1,21,-1
 707 92 l 1,22,-1
 691 79 l 2,23,24
 574 -15 574 -15 441 -15 c 0,25,26
 180 -15 180 -15 180 200 c 0,27,28
 180 226 180 226 183 254 c 2,29,-1
 253 810 l 1,30,-1
 168 810 l 2,31,32
 145 810 145 810 128.5 825.5 c 128,-1,33
 112 841 112 841 112 864 c 2,34,-1
 112 873 l 1,35,-1
 120 936 l 1,36,-1
 123 955 l 1,37,-1
 283 973 l 1,38,-1
 357 1246 l 1,39,40
 373 1295 373 1295 427 1295 c 2,41,-1
 548 1295 l 1,42,-1
 503 958 l 1,43,-1
 929 958 l 1,44,-1
 1006 1244 l 1,45,46
 1021 1295 1021 1295 1078 1295 c 2,47,-1
 1198 1295 l 1,48,-1
 1155 983 l 1,49,-1
 1430 983 l 1,50,-1
 1413 832 l 1,51,-1
 1410 810 l 1,52,-1
 1132 810 l 1,53,-1
 1057 263 l 2,54,55
 1055 250 1055 250 1055 229 c 128,-1,56
 1055 208 1055 208 1072 190 c 0,57,58
 1088 172 1088 172 1118 173 c 0,59,60
 1176 173 1176 173 1221 208 c 0,61,62
 1238 220 1238 220 1258.5 220 c 128,-1,63
 1279 220 1279 220 1296 192 c 1,64,-1
 1297 191 l 1,65,-1
 1348 92 l 1,0,1
EndSplineSet
Validated: 1
Ligature2: "sous-table 'liga' Ligatures standard dans Latin lookup 37" t t
EndChar

StartChar: t_t_f.liga
Encoding: 2552 -1 131
Width: 1967
GlyphClass: 3
Flags: W
LayerCount: 2
Fore
SplineSet
1312 92 m 1,0,1
 1189 -15 1189 -15 1056 -15 c 0,2,3
 794 -15 794 -15 794 206 c 0,4,5
 794 232 794 232 797 262 c 2,6,-1
 869 835 l 1,7,-1
 474 835 l 1,8,-1
 402 267 l 2,9,10
 400 252 400 252 400 240 c 0,11,12
 400 210 400 210 413 194 c 0,13,14
 431 172 431 172 454 172 c 2,15,-1
 456 172 l 2,16,17
 500 172 500 172 524 186.5 c 128,-1,18
 548 201 548 201 562 210.5 c 128,-1,19
 576 220 576 220 597.5 220 c 128,-1,20
 619 220 619 220 637 192 c 1,21,-1
 637 191 l 1,22,-1
 638 190 l 1,23,-1
 689 92 l 1,24,25
 566 -15 566 -15 434 -15 c 0,26,27
 177 -15 177 -15 177 200 c 0,28,29
 177 226 177 226 180 254 c 2,30,-1
 250 810 l 1,31,-1
 167 810 l 2,32,33
 142 810 142 810 127 826.5 c 128,-1,34
 112 843 112 843 112 865 c 2,35,-1
 112 873 l 1,36,-1
 121 956 l 1,37,-1
 279 975 l 1,38,-1
 353 1251 l 1,39,40
 368 1299 368 1299 421 1299 c 2,41,-1
 539 1299 l 1,42,-1
 496 976 l 1,43,-1
 900 976 l 1,44,-1
 975 1251 l 1,45,46
 990 1299 990 1299 1045 1299 c 2,47,-1
 1162 1299 l 1,48,-1
 1119 976 l 1,49,-1
 1542 976 l 1,50,-1
 1551 1047 l 1,51,52
 1574 1215 1574 1215 1682 1308.5 c 128,-1,53
 1790 1402 1790 1402 1952 1403 c 0,54,55
 2015 1403 2015 1403 2074 1383 c 2,56,-1
 2094 1376 l 1,57,-1
 2077 1270 l 1,58,-1
 2077 1269 l 1,59,-1
 2076 1269 l 1,60,61
 2066 1227 2066 1227 2027 1225 c 0,62,63
 2004 1223 2004 1223 1963 1223 c 0,64,65
 1880 1223 1880 1223 1833 1179 c 128,-1,66
 1786 1135 1786 1135 1772 1039 c 2,67,-1
 1764 983 l 1,68,-1
 2034 983 l 1,69,-1
 2017 832 l 1,70,-1
 2014 810 l 1,71,-1
 1748 810 l 1,72,-1
 1644 21 l 1,73,-1
 1641 -0 l 1,74,-1
 1414 0 l 1,75,-1
 1520 835 l 1,76,-1
 1097 835 l 1,77,-1
 1025 267 l 2,78,79
 1023 253 1023 253 1023 231.5 c 128,-1,80
 1023 210 1023 210 1038 192 c 0,81,82
 1054 174 1054 174 1082 173 c 0,83,84
 1129 173 1129 173 1163.5 196.5 c 128,-1,85
 1198 220 1198 220 1219.5 220 c 128,-1,86
 1241 220 1241 220 1258 192 c 1,87,-1
 1259 191 l 1,88,-1
 1303 110 l 1,89,-1
 1312 92 l 1,0,1
EndSplineSet
Validated: 1
Ligature2: "sous-table 'liga' Ligatures standard dans Latin lookup 37" t t f
EndChar

StartChar: t_t_iogonek.liga
Encoding: 2553 -1 132
Width: 1853
GlyphClass: 3
Flags: W
LayerCount: 2
Fore
SplineSet
1710 -265 m 1,0,1
 1619 -330 1619 -330 1523.5 -330 c 128,-1,2
 1428 -330 1428 -330 1378.5 -292 c 128,-1,3
 1329 -254 1329 -254 1329 -189 c 0,4,5
 1329 -87 1329 -87 1440 -7 c 1,6,-1
 1544 810 l 1,7,-1
 1110 810 l 1,8,-1
 1038 242 l 1,9,10
 1036 227 1036 227 1036 214 c 0,11,12
 1036 185 1036 185 1048 170 c 0,13,14
 1066 148 1066 148 1096 148 c 0,15,16
 1148 148 1148 148 1198 183 c 0,17,18
 1216 195 1216 195 1237.5 195 c 128,-1,19
 1259 195 1259 195 1277 167 c 1,20,-1
 1277 166 l 1,21,-1
 1278 165 l 1,22,-1
 1330 67 l 1,23,-1
 1314 54 l 1,24,25
 1201 -40 1201 -40 1069.5 -40 c 128,-1,26
 938 -40 938 -40 871.5 17 c 128,-1,27
 805 74 805 74 805 182 c 0,28,29
 805 208 805 208 808 237 c 2,30,-1
 881 810 l 1,31,-1
 477 810 l 1,32,-1
 405 242 l 2,33,34
 403 229 403 229 403 206 c 128,-1,35
 403 183 403 183 418.5 165 c 128,-1,36
 434 147 434 147 459 147 c 2,37,-1
 460 147 l 2,38,39
 512 147 512 147 546.5 170.5 c 128,-1,40
 581 194 581 194 603 194.5 c 128,-1,41
 625 195 625 195 644 168 c 1,42,-1
 645 167 l 1,43,-1
 688 84 l 1,44,-1
 696 67 l 1,45,46
 573 -40 573 -40 439 -40 c 0,47,48
 179 -40 179 -40 179 182 c 0,49,50
 179 208 179 208 182 237 c 2,51,-1
 252 810 l 1,52,-1
 167 810 l 2,53,54
 142 810 142 810 127 826.5 c 128,-1,55
 112 843 112 843 112 867 c 2,56,-1
 112 876 l 1,57,-1
 121 962 l 1,58,-1
 282 982 l 1,59,-1
 356 1269 l 2,60,61
 368 1320 368 1320 425 1320 c 2,62,-1
 543 1320 l 1,63,-1
 499 983 l 1,64,-1
 912 983 l 1,65,-1
 988 1268 l 1,66,67
 998 1320 998 1320 1058 1320 c 2,68,-1
 1176 1320 l 1,69,-1
 1132 983 l 1,70,-1
 1788 983 l 1,71,-1
 1771 832 l 1,72,-1
 1768 810 l 1,73,-1
 1767 810 l 1,74,-1
 1668 17 l 1,75,-1
 1665 -4 l 1,76,-1
 1626 -4 l 1,77,78
 1555 -42 1555 -42 1528 -96 c 0,79,80
 1518 -115 1518 -115 1518 -136 c 0,81,82
 1518 -158 1518 -158 1530 -168 c 0,83,84
 1540 -178 1540 -178 1560 -178 c 0,85,86
 1601 -178 1601 -178 1618 -166.5 c 128,-1,87
 1635 -155 1635 -155 1647.5 -155 c 128,-1,88
 1660 -155 1660 -155 1672 -163.5 c 128,-1,89
 1684 -172 1684 -172 1687 -186 c 1,90,-1
 1710 -265 l 1,0,1
1704 1114 m 2,91,92
 1645 1114 1645 1114 1607 1153.5 c 128,-1,93
 1569 1193 1569 1193 1569 1253.5 c 128,-1,94
 1569 1314 1569 1314 1619 1361 c 128,-1,95
 1669 1408 1669 1408 1715 1408 c 0,96,97
 1818 1408 1818 1408 1852 1324 c 0,98,99
 1862 1299 1862 1299 1862 1270 c 0,100,101
 1862 1208 1862 1208 1812.5 1161 c 128,-1,102
 1763 1114 1763 1114 1705 1114 c 2,103,-1
 1704 1114 l 2,91,92
EndSplineSet
Validated: 1
Ligature2: "sous-table 'liga' Ligatures standard dans Latin lookup 37" t t iogonek
EndChar

StartChar: t_t_dotlessi.liga
Encoding: 2554 -1 133
Width: 1853
GlyphClass: 3
Flags: W
LayerCount: 2
Fore
SplineSet
1332 92 m 1,0,1
 1209 -15 1209 -15 1074 -15 c 0,2,3
 806 -15 806 -15 806 207 c 0,4,5
 806 233 806 233 809 262 c 2,6,-1
 882 835 l 1,7,-1
 477 835 l 1,8,-1
 405 267 l 2,9,10
 403 254 403 254 403 231 c 128,-1,11
 403 208 403 208 419 190 c 128,-1,12
 435 172 435 172 459 172 c 2,13,-1
 460 172 l 2,14,15
 504 172 504 172 529.5 186.5 c 128,-1,16
 555 201 555 201 569.5 210.5 c 128,-1,17
 584 220 584 220 605.5 220 c 128,-1,18
 627 220 627 220 645 192 c 1,19,-1
 647 190 l 1,20,-1
 697 92 l 1,21,22
 574 -15 574 -15 440 -15 c 0,23,24
 179 -15 179 -15 179 200 c 0,25,26
 179 226 179 226 182 254 c 2,27,-1
 252 810 l 1,28,-1
 167 810 l 2,29,30
 142 810 142 810 127 825.5 c 128,-1,31
 112 841 112 841 112 864 c 2,32,-1
 112 872 l 1,33,-1
 121 955 l 1,34,-1
 282 973 l 1,35,-1
 356 1245 l 1,36,37
 368 1295 368 1295 425 1295 c 2,38,-1
 543 1295 l 1,39,-1
 499 958 l 1,40,-1
 913 958 l 1,41,-1
 989 1243 l 1,42,43
 999 1295 999 1295 1060 1295 c 2,44,-1
 1178 1295 l 1,45,-1
 1134 983 l 1,46,-1
 1788 983 l 1,47,-1
 1771 832 l 1,48,-1
 1768 810 l 1,49,-1
 1767 810 l 1,50,-1
 1668 21 l 1,51,-1
 1665 -0 l 1,52,-1
 1442 0 l 1,53,-1
 1547 835 l 1,54,-1
 1112 835 l 1,55,-1
 1040 267 l 1,56,57
 1038 252 1038 252 1038 239 c 0,58,59
 1038 210 1038 210 1050 195 c 0,60,61
 1068 173 1068 173 1098 173 c 0,62,63
 1146 173 1146 173 1182.5 196.5 c 128,-1,64
 1219 220 1219 220 1240 220 c 128,-1,65
 1261 220 1261 220 1279 192 c 1,66,-1
 1280 191 l 1,67,-1
 1280 190 l 1,68,-1
 1332 92 l 1,0,1
EndSplineSet
Validated: 1
Ligature2: "sous-table 'liga' Ligatures standard dans Latin lookup 37" t t dotlessi
EndChar

StartChar: u
Encoding: 87 117 134
Width: 1153
GlyphClass: 2
Flags: W
AnchorPoint: "Ancre-1" 282 10 basechar 0
AnchorPoint: "Ancre-0" 368 1122 basechar 0
AnchorPoint: "Ancre-2" 1053 1515 basechar 0
AnchorPoint: "Ancre-3" 1053 -510 basechar 0
AnchorPoint: "Ancre-5" 1053 1492 basechar 0
LayerCount: 2
Fore
SplineSet
760 179 m 1,0,1
 587 -14 587 -14 349 -14 c 0,2,3
 215 -14 215 -14 146 89 c 0,4,5
 95 163 95 163 95 279 c 0,6,7
 95 321 95 321 100 364 c 2,8,-1
 173 956 l 1,9,-1
 176 978 l 1,10,-1
 408 978 l 1,11,-1
 324 367 l 2,12,13
 320 334 320 334 320 286 c 0,14,15
 320 182 320 182 433 182 c 0,16,17
 527 182 527 182 628.5 264 c 128,-1,18
 730 346 730 346 789 484 c 1,19,-1
 856 978 l 1,20,-1
 1081 978 l 1,21,-1
 960 22 l 1,22,-1
 957 0 l 1,23,-1
 848 0 l 2,24,25
 806 0 806 0 779.5 21.5 c 128,-1,26
 753 43 753 43 753 80 c 2,27,-1
 753 90 l 1,28,-1
 760 179 l 1,0,1
EndSplineSet
Validated: 1
Substitution2: "sous-table 'smcp' Bas-de-casse vers petites capitales dans Latin lookup 0" u.smcp
Substitution2: "sous-table 'ordn' Ordinaux dans Latin lookup 39" u.superior
Substitution2: "sous-table 'sups' Exposant lookups25" u.superior
EndChar

StartChar: uogonek
Encoding: 308 371 135
Width: 1153
GlyphClass: 2
Flags: W
AnchorPoint: "Ancre-5" 1076 1122 basechar 0
AnchorPoint: "Ancre-4" 853 550 basechar 0
AnchorPoint: "Ancre-3" 1076 -510 basechar 0
AnchorPoint: "Ancre-2" 1076 1515 basechar 0
AnchorPoint: "Ancre-1" 538 0 basechar 0
AnchorPoint: "Ancre-0" 368 1122 basechar 0
LayerCount: 2
Fore
SplineSet
927 -169 m 1,0,-1
 939 -162 l 1,1,-1
 940 -162 l 1,2,3
 951 -155 951 -155 963.5 -155 c 128,-1,4
 976 -155 976 -155 988 -163.5 c 128,-1,5
 1000 -172 1000 -172 1003 -186 c 1,6,-1
 1026 -265 l 1,7,8
 935 -330 935 -330 838.5 -330 c 128,-1,9
 742 -330 742 -330 689 -289.5 c 128,-1,10
 636 -249 636 -249 636 -193 c 0,11,12
 636 -66 636 -66 775 24 c 1,13,14
 753 45 753 45 753 80 c 2,15,-1
 753 90 l 1,16,-1
 760 179 l 1,17,18
 587 -14 587 -14 349 -14 c 0,19,20
 215 -14 215 -14 146 89 c 0,21,22
 95 163 95 163 95 279 c 0,23,24
 95 322 95 322 100 364 c 2,25,-1
 173 956 l 1,26,-1
 176 978 l 1,27,-1
 408 978 l 1,28,-1
 324 366 l 2,29,30
 320 335 320 335 320 287 c 0,31,32
 320 182 320 182 433 182 c 0,33,34
 527 182 527 182 628.5 264 c 128,-1,35
 730 346 730 346 789 484 c 1,36,-1
 856 978 l 1,37,-1
 1081 978 l 1,38,-1
 960 22 l 1,39,-1
 959 13 l 1,40,-1
 846 -98 l 1,41,42
 838 -116 838 -116 838 -135.5 c 128,-1,43
 838 -155 838 -155 849 -166 c 1,44,-1
 850 -166 l 1,45,-1
 850 -167 l 1,46,47
 861 -178 861 -178 879 -178 c 128,-1,48
 897 -178 897 -178 908 -175 c 1,49,-1
 910 -175 l 1,50,51
 920 -173 920 -173 926 -169 c 1,52,-1
 927 -169 l 1,0,-1
EndSplineSet
Validated: 1
LCarets2: 1 0
Substitution2: "sous-table 'smcp' Bas-de-casse vers petites capitales dans Latin lookup 0" uogonek.smcp
Ligature2: "sous-table 'ccmp' Composition et d+AOkA-composition de glyphe (CJK) lookups10" u uni0328
EndChar

StartChar: v
Encoding: 88 118 136
Width: 1013
GlyphClass: 2
Flags: W
AnchorPoint: "Ancre-5" 975 1492 basechar 0
AnchorPoint: "Ancre-2" 975 1515 basechar 0
AnchorPoint: "Ancre-3" 975 -510 basechar 0
AnchorPoint: "Ancre-1" 384 10 basechar 0
AnchorPoint: "Ancre-0" 341 1122 basechar 0
LayerCount: 2
Fore
SplineSet
72 978 m 1,0,-1
 246 978 l 2,1,2
 304 978 304 978 317 922 c 2,3,-1
 468 297 l 2,4,5
 473 278 473 278 477 258 c 1,6,7
 487 280 487 280 498 301 c 2,8,-1
 822 928 l 1,9,-1
 822 929 l 1,10,11
 849 978 849 978 898 978 c 2,12,-1
 1075 978 l 1,13,-1
 536 -0 l 1,14,-1
 334 0 l 1,15,-1
 72 978 l 1,0,-1
EndSplineSet
Validated: 1
Substitution2: "sous-table 'smcp' Bas-de-casse vers petites capitales dans Latin lookup 0" v.smcp
Substitution2: "sous-table 'ordn' Ordinaux dans Latin lookup 39" v.superior
Substitution2: "sous-table 'sups' Exposant lookups25" v.superior
EndChar

StartChar: w
Encoding: 89 119 137
Width: 1564
GlyphClass: 2
Flags: W
AnchorPoint: "Ancre-5" 1522 1492 basechar 0
AnchorPoint: "Ancre-2" 1522 1515 basechar 0
AnchorPoint: "Ancre-3" 1522 -510 basechar 0
AnchorPoint: "Ancre-1" 644 10 basechar 0
AnchorPoint: "Ancre-0" 628 1122 basechar 0
LayerCount: 2
Fore
SplineSet
76 978 m 1,0,-1
 236 978 l 2,1,2
 300 978 300 978 310 920 c 2,3,-1
 416 297 l 2,4,5
 418 284 418 284 419 270 c 1,6,7
 425 285 425 285 433 302 c 2,8,-1
 733 931 l 2,9,10
 756 980 756 980 809 980 c 2,11,-1
 885 980 l 2,12,13
 949 980 949 980 957 926 c 1,14,-1
 1086 298 l 2,15,16
 1088 284 1088 284 1091 271 c 1,17,18
 1097 287 1097 287 1104 301 c 2,19,-1
 1381 926 l 1,20,21
 1402 978 1402 978 1454 978 c 2,22,-1
 1620 978 l 1,23,-1
 1157 0 l 1,24,-1
 1001 0 l 2,25,26
 954 0 954 0 943 53 c 2,27,-1
 807 686 l 1,28,-1
 499 48 l 1,29,30
 477 0 477 0 433 0 c 2,31,-1
 280 0 l 1,32,-1
 76 978 l 1,0,-1
EndSplineSet
Validated: 1
Substitution2: "sous-table 'smcp' Bas-de-casse vers petites capitales dans Latin lookup 0" w.smcp
Substitution2: "sous-table 'ordn' Ordinaux dans Latin lookup 39" w.superior
Substitution2: "sous-table 'sups' Exposant lookups25" w.superior
EndChar

StartChar: x
Encoding: 90 120 138
Width: 987
GlyphClass: 2
Flags: W
AnchorPoint: "Ancre-5" 937 1492 basechar 0
AnchorPoint: "Ancre-3" 937 -510 basechar 0
AnchorPoint: "Ancre-2" 937 1515 basechar 0
AnchorPoint: "Ancre-1" 346 10 basechar 0
AnchorPoint: "Ancre-0" 300 1122 basechar 0
LayerCount: 2
Fore
SplineSet
-47 0 m 1,0,-1
 372 527 l 1,1,-1
 122 978 l 1,2,-1
 330 978 l 2,3,4
 382 978 382 978 402 939 c 2,5,-1
 549 649 l 1,6,-1
 777 940 l 2,7,8
 806 978 806 978 841 978 c 2,9,-1
 1049 978 l 1,10,-1
 677 521 l 1,11,-1
 948 -0 l 1,12,-1
 747 0 l 2,13,14
 694 0 694 0 670 49 c 2,15,-1
 502 392 l 1,16,-1
 230 43 l 2,17,18
 196 0 196 0 155 0 c 2,19,-1
 -47 0 l 1,0,-1
EndSplineSet
Validated: 1
Substitution2: "sous-table 'sups' Exposant lookups25" x.superior
Substitution2: "sous-table 'ordn' Ordinaux dans Latin lookup 39" x.superior
Substitution2: "sous-table 'smcp' Bas-de-casse vers petites capitales dans Latin lookup 0" x.smcp
EndChar

StartChar: y
Encoding: 91 121 139
Width: 1016
GlyphClass: 2
Flags: W
AnchorPoint: "Ancre-5" 983 1492 basechar 0
AnchorPoint: "Ancre-3" 983 -510 basechar 0
AnchorPoint: "Ancre-2" 983 1515 basechar 0
AnchorPoint: "Ancre-1" 524 10 basechar 0
AnchorPoint: "Ancre-0" 328 1122 basechar 0
LayerCount: 2
Fore
SplineSet
1067 978 m 1,0,-1
 583 54 l 1,1,-1
 483 -130 l 2,2,3
 470 -155 470 -155 466 -161 c 1,4,-1
 466 -162 l 1,5,-1
 465 -163 l 1,6,7
 419 -241 419 -241 330 -290 c 1,8,9
 276 -314 276 -314 204 -314 c 128,-1,10
 132 -314 132 -314 105.5 -293 c 128,-1,11
 79 -272 79 -272 79 -234 c 0,12,13
 79 -229 79 -229 79 -224 c 2,14,-1
 86 -161 l 1,15,-1
 89 -139 l 1,16,-1
 149 -139 l 1,17,18
 217 -133 217 -133 244 -109.5 c 128,-1,19
 271 -86 271 -86 350 57 c 1,20,-1
 362 77 l 1,21,-1
 114 948 l 1,22,-1
 105 978 l 1,23,-1
 279 978 l 2,24,25
 305 978 305 978 325 963 c 128,-1,26
 345 948 345 948 352 923 c 2,27,-1
 516 311 l 2,28,29
 517 308 517 308 517 305 c 1,30,31
 523 317 523 317 822 927 c 0,32,33
 831 947 831 947 852 962.5 c 128,-1,34
 873 978 873 978 896 978 c 2,35,-1
 1067 978 l 1,0,-1
EndSplineSet
Validated: 1
Substitution2: "sous-table 'smcp' Bas-de-casse vers petites capitales dans Latin lookup 0" y.smcp
Substitution2: "sous-table 'salt' Alternatives stylistiques lookups28" y.salt
Substitution2: "sous-table 'ordn' Ordinaux dans Latin lookup 39" y.superior
Substitution2: "sous-table 'sups' Exposant lookups25" y.superior
Substitution2: "sous-table 'ss04' Style 4 lookups34" y.salt
EndChar

StartChar: z
Encoding: 92 122 140
Width: 909
GlyphClass: 2
Flags: W
AnchorPoint: "Ancre-5" 860 1492 basechar 0
AnchorPoint: "Ancre-3" 860 -510 basechar 0
AnchorPoint: "Ancre-2" 860 1515 basechar 0
AnchorPoint: "Ancre-1" 253 10 basechar 0
AnchorPoint: "Ancre-0" 314 1122 basechar 0
LayerCount: 2
Fore
SplineSet
918 978 m 1,0,-1
 906 882 l 1,1,2
 899 842 899 842 870 806 c 1,3,-1
 315 187 l 1,4,-1
 799 187 l 1,5,-1
 779 22 l 1,6,-1
 776 -0 l 1,7,-1
 3 0 l 1,8,-1
 14 95 l 1,9,-1
 14 96 l 1,10,11
 20 131 20 131 50 166 c 2,12,-1
 606 791 l 1,13,-1
 130 791 l 1,14,-1
 155 978 l 1,15,-1
 918 978 l 1,0,-1
EndSplineSet
Validated: 1
Substitution2: "sous-table 'smcp' Bas-de-casse vers petites capitales dans Latin lookup 0" z.smcp
Substitution2: "sous-table 'ordn' Ordinaux dans Latin lookup 39" z.superior
Substitution2: "sous-table 'sups' Exposant lookups25" z.superior
EndChar

StartChar: ordfeminine
Encoding: 107 170 141
Width: 809
GlyphClass: 2
Flags: W
LayerCount: 2
Fore
SplineSet
337 1289 m 1,0,1
 457 1400 457 1400 602 1400 c 0,2,3
 656 1400 656 1400 696 1381 c 1,4,5
 737 1380 737 1380 763 1378 c 1,6,7
 805 1323 805 1323 805 1241 c 0,8,9
 805 1222 805 1222 803 1201 c 2,10,-1
 758 833 l 1,11,-1
 755 811 l 1,12,-1
 678 811 l 2,13,14
 631 811 631 811 617 857 c 1,15,-1
 616 859 l 1,16,-1
 616 863 l 1,17,18
 543 802 543 802 437 802 c 0,19,20
 360 802 360 802 311 845 c 0,21,22
 270 883 270 883 270 944 c 0,23,24
 270 1086 270 1086 488 1136 c 0,25,26
 550 1150 550 1150 636 1153 c 1,27,-1
 639 1188 l 1,28,29
 639 1216 639 1216 626 1231 c 0,30,31
 614 1246 614 1246 580 1246 c 0,32,33
 531 1246 531 1246 501 1229.5 c 128,-1,34
 471 1213 471 1213 454 1203 c 128,-1,35
 437 1193 437 1193 415 1193 c 0,36,37
 374 1193 374 1193 361 1233 c 1,38,-1
 337 1289 l 1,0,1
436 976 m 0,39,40
 436 942 436 942 480 942 c 128,-1,41
 524 942 524 942 552.5 957 c 128,-1,42
 581 972 581 972 611 998 c 1,43,-1
 619 1061 l 1,44,45
 442 1048 442 1048 437 987 c 0,46,47
 436 980 436 980 436 976 c 0,39,40
EndSplineSet
Validated: 1
Substitution2: "sous-table 'case' Formes sensibles +AOAA la casse lookups14" ordfeminine.case
EndChar

StartChar: ordmasculine
Encoding: 123 186 142
Width: 849
GlyphClass: 2
Flags: W
LayerCount: 2
Fore
SplineSet
597 1399 m 0,0,1
 802 1399 802 1399 857 1220 c 0,2,3
 867 1187 867 1187 867 1145 c 0,4,5
 867 1123 867 1123 864 1099 c 0,6,7
 848 965 848 965 752 881 c 0,8,9
 657 799 657 799 523 799 c 0,10,11
 385 799 385 799 311 884 c 0,12,13
 253 950 253 950 253 1053 c 0,14,15
 253 1221 253 1221 358.5 1310 c 128,-1,16
 464 1399 464 1399 597 1399 c 0,0,1
431 1052 m 2,17,18
 431 953 431 953 536 953 c 0,19,20
 665 953 665 953 685 1102 c 0,21,22
 688 1120 688 1120 688 1141 c 2,23,-1
 688 1145 l 2,24,25
 688 1245 688 1245 584 1245 c 0,26,27
 431 1245 431 1245 431 1056 c 2,28,-1
 431 1052 l 2,17,18
EndSplineSet
Validated: 1
EndChar

StartChar: ordfeminine.case
Encoding: 2555 -1 143
Width: 839
GlyphClass: 2
Flags: W
LayerCount: 2
Fore
SplineSet
667 811 m 2,0,1
 633 811 633 811 626 844 c 2,2,-1
 604 939 l 1,3,-1
 413 939 l 1,4,-1
 368 843 l 2,5,6
 352 811 352 811 322 811 c 2,7,-1
 213 811 l 1,8,-1
 506 1383 l 1,9,-1
 626 1383 l 1,10,-1
 772 811 l 1,11,-1
 667 811 l 2,0,1
544 1203 m 1,12,-1
 467 1041 l 1,13,-1
 580 1041 l 1,14,-1
 545 1196 l 2,15,16
 544 1200 544 1200 544 1203 c 1,12,-1
EndSplineSet
Validated: 1
EndChar

StartChar: a.superior
Encoding: 2556 -1 144
Width: 748
GlyphClass: 2
Flags: W
LayerCount: 2
Fore
SplineSet
515 1392 m 2,0,1
 617 1392 617 1392 654.5 1344.5 c 128,-1,2
 692 1297 692 1297 692 1251.5 c 128,-1,3
 692 1206 692 1206 688 1174 c 1,4,-1
 687 1174 l 1,5,-1
 651 883 l 1,6,-1
 587 883 l 2,7,8
 547 883 547 883 540 897 c 1,9,-1
 537 914 l 1,10,11
 469 875 469 875 397.5 875 c 128,-1,12
 326 875 326 875 290 905.5 c 128,-1,13
 254 936 254 936 254 983 c 0,14,15
 254 1167 254 1167 551 1174 c 1,16,17
 554 1197 554 1197 554 1214 c 0,18,19
 554 1275 554 1275 508 1275 c 0,20,21
 470 1275 470 1275 443.5 1260.5 c 128,-1,22
 417 1246 417 1246 403.5 1238.5 c 128,-1,23
 390 1231 390 1231 368.5 1231 c 128,-1,24
 347 1231 347 1231 332 1258 c 1,25,-1
 332 1259 l 1,26,-1
 312 1306 l 1,27,-1
 317 1311 l 1,28,29
 412 1392 412 1392 514 1392 c 2,30,-1
 515 1392 l 2,0,1
390 1016 m 0,31,32
 390 978 390 978 436 978 c 128,-1,33
 482 978 482 978 531 1026 c 1,34,-1
 540 1094 l 1,35,36
 390 1085 390 1085 390 1016 c 0,31,32
EndSplineSet
Validated: 1
EndChar

StartChar: b.superior
Encoding: 2557 -1 145
Width: 745
GlyphClass: 2
Flags: W
LayerCount: 2
Fore
SplineSet
440 1348 m 1,0,1
 503 1400 503 1400 574 1400 c 128,-1,2
 645 1400 645 1400 686.5 1344.5 c 128,-1,3
 728 1289 728 1289 728 1206 c 0,4,5
 728 980 728 980 582 901 c 0,6,7
 537 876 537 876 476.5 876 c 128,-1,8
 416 876 416 876 376 927 c 1,9,-1
 373 915 l 2,10,11
 366 883 366 883 331 883 c 2,12,-1
 241 883 l 1,13,-1
 331 1597 l 1,14,-1
 332 1606 l 1,15,-1
 473 1606 l 1,16,-1
 440 1348 l 1,0,1
399 1022 m 1,17,18
 425 988 425 988 470.5 988 c 128,-1,19
 516 988 516 988 550 1034.5 c 128,-1,20
 584 1081 584 1081 584 1181 c 0,21,22
 584 1184 584 1184 584 1187 c 0,23,24
 584 1285 584 1285 519 1285 c 0,25,26
 471 1285 471 1285 426 1235 c 1,27,-1
 399 1022 l 1,17,18
EndSplineSet
Validated: 1
EndChar

StartChar: c.superior
Encoding: 2558 -1 146
Width: 597
GlyphClass: 2
Flags: W
LayerCount: 2
Fore
SplineSet
605 966 m 1,0,-1
 599 960 l 1,1,2
 520 876 520 876 397 876 c 0,3,4
 313 876 313 876 260 935 c 128,-1,5
 207 994 207 994 207 1076 c 0,6,7
 207 1222 207 1222 280 1306 c 0,8,9
 354 1390 354 1390 468 1390 c 0,10,11
 580 1390 580 1390 646 1310 c 1,12,-1
 604 1260 l 2,13,14
 588 1241 588 1241 572.5 1241 c 128,-1,15
 557 1241 557 1241 548.5 1247 c 128,-1,16
 540 1253 540 1253 523 1265 c 128,-1,17
 506 1277 506 1277 461 1277 c 128,-1,18
 416 1277 416 1277 383 1232 c 128,-1,19
 350 1187 350 1187 350 1116 c 0,20,21
 350 988 350 988 430 988 c 0,22,23
 467 988 467 988 487.5 1002.5 c 128,-1,24
 508 1017 508 1017 518.5 1025 c 128,-1,25
 529 1033 529 1033 546 1033 c 128,-1,26
 563 1033 563 1033 573 1016 c 2,27,-1
 600 972 l 1,28,-1
 605 966 l 1,0,-1
EndSplineSet
Validated: 1
EndChar

StartChar: d.superior
Encoding: 2559 -1 147
Width: 748
GlyphClass: 2
Flags: W
LayerCount: 2
Fore
SplineSet
543 941 m 1,0,1
 476 876 476 876 399 876 c 128,-1,2
 322 876 322 876 281.5 932 c 128,-1,3
 241 988 241 988 241 1071 c 0,4,5
 242 1298 242 1298 387 1377 c 0,6,7
 430 1402 430 1402 489 1402 c 2,8,-1
 491 1402 l 2,9,10
 542 1402 542 1402 583 1367 c 1,11,-1
 612 1597 l 1,12,-1
 613 1606 l 1,13,-1
 753 1606 l 1,14,-1
 664 892 l 1,15,-1
 663 883 l 1,16,-1
 580 883 l 2,17,18
 546 883 546 883 544 915 c 2,19,-1
 543 941 l 1,0,1
569 1254 m 1,20,21
 544 1289 544 1289 498 1289 c 128,-1,22
 452 1289 452 1289 418 1242 c 128,-1,23
 384 1195 384 1195 384 1093.5 c 128,-1,24
 384 992 384 992 452 992 c 0,25,26
 499 992 499 992 541 1041 c 1,27,-1
 569 1254 l 1,20,21
EndSplineSet
Validated: 1
EndChar

StartChar: e.superior
Encoding: 2560 -1 148
Width: 693
GlyphClass: 2
Flags: W
LayerCount: 2
Fore
SplineSet
562 1213 m 0,0,1
 562 1283 562 1283 480 1283 c 0,2,3
 449 1283 449 1283 422.5 1261 c 128,-1,4
 396 1239 396 1239 382 1200 c 1,5,-1
 561 1200 l 1,6,7
 562 1207 562 1207 562 1213 c 0,0,1
658 966 m 1,8,9
 568 876 568 876 432 876 c 128,-1,10
 296 876 296 876 248 1006 c 0,11,12
 232 1048 232 1048 232 1105 c 0,13,14
 232 1225 232 1225 306 1307.5 c 128,-1,15
 380 1390 380 1390 481.5 1390 c 128,-1,16
 583 1390 583 1390 635 1338 c 128,-1,17
 687 1286 687 1286 687 1205 c 0,18,19
 687 1119 687 1119 660 1111 c 1,20,-1
 659 1110 l 1,21,22
 651 1108 651 1108 642 1107 c 1,23,-1
 370 1107 l 1,24,-1
 370 1104 l 2,25,26
 370 990 370 990 464 990 c 0,27,28
 504 990 504 990 542 1011.5 c 128,-1,29
 580 1033 580 1033 597.5 1033 c 128,-1,30
 615 1033 615 1033 625 1017 c 2,31,-1
 653 972 l 1,32,-1
 658 966 l 1,8,9
EndSplineSet
Validated: 1
EndChar

StartChar: f.superior
Encoding: 2561 -1 149
Width: 469
GlyphClass: 2
Flags: W
LayerCount: 2
Fore
SplineSet
210 1324 m 2,0,-1
 210 1330 l 1,1,-1
 216 1379 l 1,2,-1
 217 1388 l 1,3,-1
 284 1388 l 1,4,-1
 288 1415 l 1,5,6
 299 1502 299 1502 355 1550.5 c 128,-1,7
 411 1599 411 1599 497 1599 c 0,8,9
 520 1599 520 1599 568 1587 c 1,10,-1
 567 1578 l 1,11,-1
 556 1517 l 1,12,13
 552 1487 552 1487 512 1487 c 0,14,15
 470 1486 470 1486 450 1470 c 0,16,17
 431 1455 431 1455 421 1388 c 1,18,-1
 537 1388 l 1,19,-1
 525 1290 l 1,20,-1
 524 1281 l 1,21,-1
 412 1281 l 1,22,-1
 363 892 l 1,23,-1
 362 883 l 1,24,-1
 222 883 l 1,25,-1
 272 1285 l 1,26,-1
 245 1290 l 1,27,28
 210 1295 210 1295 210 1324 c 2,0,-1
EndSplineSet
Validated: 1
EndChar

StartChar: g.superior
Encoding: 2562 -1 150
Width: 748
GlyphClass: 2
Flags: W
LayerCount: 2
Fore
SplineSet
493 1286 m 0,0,1
 417 1286 417 1286 417 1208 c 0,2,3
 417 1155 417 1155 474 1155 c 0,4,5
 552 1155 552 1155 552 1233 c 0,6,7
 552 1286 552 1286 493 1286 c 0,0,1
417 929 m 1,8,9
 349 902 349 902 349 855 c 0,10,11
 349 809 349 809 440 809 c 0,12,13
 492 809 492 809 521 829.5 c 128,-1,14
 550 850 550 850 550 869.5 c 128,-1,15
 550 889 550 889 542 896 c 0,16,17
 516 913 516 913 417 929 c 1,8,9
276 997 m 0,18,19
 276 1060 276 1060 340 1095 c 1,20,21
 288 1137 288 1137 288 1213.5 c 128,-1,22
 288 1290 288 1290 350 1339.5 c 128,-1,23
 412 1389 412 1389 489 1390 c 1,24,-1
 491 1391 l 1,25,-1
 493 1391 l 2,26,27
 565 1391 565 1391 608 1366 c 1,28,-1
 751 1366 l 1,29,-1
 750 1355 l 1,30,-1
 744 1310 l 1,31,32
 739 1283 739 1283 708 1277 c 2,33,-1
 675 1271 l 1,34,35
 678 1253 678 1253 678 1231 c 0,36,37
 678 1160 678 1160 616 1108.5 c 128,-1,38
 554 1057 554 1057 468 1057 c 2,39,-1
 465 1057 l 2,40,41
 443 1057 443 1057 419 1061 c 1,42,43
 404 1052 404 1052 404 1040 c 0,44,45
 404 1021 404 1021 451.5 1014.5 c 128,-1,46
 499 1008 499 1008 535 1003 c 0,47,48
 684 989 684 989 684 904 c 0,49,50
 684 824 684 824 610.5 766 c 128,-1,51
 537 708 537 708 407.5 708 c 128,-1,52
 278 708 278 708 235 785 c 0,53,54
 223 807 223 807 223 830 c 2,55,-1
 223 834 l 2,56,57
 223 913 223 913 314 947 c 1,58,59
 276 967 276 967 276 997 c 0,18,19
EndSplineSet
Validated: 1
Substitution2: "sous-table 'ss04' Style 4 lookups34" g.superior.salt
Substitution2: "sous-table 'salt' Alternatives stylistiques lookups28" g.superior.salt
EndChar

StartChar: h.superior
Encoding: 2563 -1 151
Width: 750
GlyphClass: 2
Flags: W
LayerCount: 2
Fore
SplineSet
576 1228 m 0,0,1
 576 1285 576 1285 524 1285 c 0,2,3
 480 1285 480 1285 433 1242 c 1,4,-1
 389 892 l 1,5,-1
 388 883 l 1,6,-1
 247 883 l 1,7,-1
 337 1597 l 1,8,-1
 338 1606 l 1,9,-1
 479 1606 l 1,10,-1
 446 1355 l 1,11,12
 506 1400 506 1400 580 1400 c 128,-1,13
 654 1400 654 1400 685 1350 c 128,-1,14
 716 1300 716 1300 716 1261 c 128,-1,15
 716 1222 716 1222 714 1203 c 2,16,-1
 675 892 l 1,17,-1
 674 883 l 1,18,-1
 535 883 l 1,19,-1
 574 1203 l 2,20,21
 576 1216 576 1216 576 1228 c 0,0,1
EndSplineSet
Validated: 1
EndChar

